solid OpenSCAD_Model
  facet normal 1 -0 0
    outer loop
      vertex 110 0 25
      vertex 110 28 0
      vertex 110 28 25
    endloop
  endfacet
  facet normal 1 0 0
    outer loop
      vertex 110 28 0
      vertex 110 0 25
      vertex 110 0 0
    endloop
  endfacet
  facet normal 0 0 1
    outer loop
      vertex 3.05 28 25
      vertex 0 28 25
      vertex 3.05 3 25
    endloop
  endfacet
  facet normal 0 0 1
    outer loop
      vertex 106.95 3 25
      vertex 110 28 25
      vertex 106.95 28 25
    endloop
  endfacet
  facet normal 0 0 1
    outer loop
      vertex 110 28 25
      vertex 106.95 3 25
      vertex 110 0 25
    endloop
  endfacet
  facet normal -0 0 1
    outer loop
      vertex 3.05 3 25
      vertex 110 0 25
      vertex 106.95 3 25
    endloop
  endfacet
  facet normal 0 0 1
    outer loop
      vertex 3.05 3 25
      vertex 0 0 25
      vertex 110 0 25
    endloop
  endfacet
  facet normal 0 0 1
    outer loop
      vertex 0 0 25
      vertex 3.05 3 25
      vertex 0 28 25
    endloop
  endfacet
  facet normal 0 0 -1
    outer loop
      vertex 0 0 0
      vertex 110 28 0
      vertex 110 0 0
    endloop
  endfacet
  facet normal -0 0 -1
    outer loop
      vertex 110 28 0
      vertex 0 0 0
      vertex 0 28 0
    endloop
  endfacet
  facet normal -1 0 0
    outer loop
      vertex 0 0 0
      vertex 0 28 25
      vertex 0 28 0
    endloop
  endfacet
  facet normal -1 -0 0
    outer loop
      vertex 0 28 25
      vertex 0 0 0
      vertex 0 0 25
    endloop
  endfacet
  facet normal 0 1 0
    outer loop
      vertex 110 28 25
      vertex 106.95 28 3.99
      vertex 106.95 28 25
    endloop
  endfacet
  facet normal 0 1 0
    outer loop
      vertex 106.95 28 3.99
      vertex 110 28 0
      vertex 3.05 28 3.99
    endloop
  endfacet
  facet normal 0 1 -0
    outer loop
      vertex 110 28 0
      vertex 106.95 28 3.99
      vertex 110 28 25
    endloop
  endfacet
  facet normal 0 1 -0
    outer loop
      vertex 3.05 28 3.99
      vertex 0 28 25
      vertex 3.05 28 25
    endloop
  endfacet
  facet normal 0 1 0
    outer loop
      vertex 3.05 28 3.99
      vertex 0 28 0
      vertex 0 28 25
    endloop
  endfacet
  facet normal 0 1 0
    outer loop
      vertex 0 28 0
      vertex 3.05 28 3.99
      vertex 110 28 0
    endloop
  endfacet
  facet normal 0 -1 0
    outer loop
      vertex 0 0 0
      vertex 110 0 25
      vertex 0 0 25
    endloop
  endfacet
  facet normal 0 -1 -0
    outer loop
      vertex 110 0 25
      vertex 0 0 0
      vertex 110 0 0
    endloop
  endfacet
  facet normal -1 0 0
    outer loop
      vertex 106.95 3 3.99
      vertex 106.95 28 25
      vertex 106.95 28 3.99
    endloop
  endfacet
  facet normal -1 -0 0
    outer loop
      vertex 106.95 28 25
      vertex 106.95 3 3.99
      vertex 106.95 3 25
    endloop
  endfacet
  facet normal -0 0 1
    outer loop
      vertex 3.05 28 3.99
      vertex 106.95 3 3.99
      vertex 106.95 28 3.99
    endloop
  endfacet
  facet normal 0 0 1
    outer loop
      vertex 106.95 3 3.99
      vertex 3.05 28 3.99
      vertex 3.05 3 3.99
    endloop
  endfacet
  facet normal 1 -0 0
    outer loop
      vertex 3.05 3 25
      vertex 3.05 28 3.99
      vertex 3.05 28 25
    endloop
  endfacet
  facet normal 1 0 0
    outer loop
      vertex 3.05 28 3.99
      vertex 3.05 3 25
      vertex 3.05 3 3.99
    endloop
  endfacet
  facet normal 0 1 -0
    outer loop
      vertex 106.95 3 3.99
      vertex 3.05 3 25
      vertex 106.95 3 25
    endloop
  endfacet
  facet normal 0 1 0
    outer loop
      vertex 3.05 3 25
      vertex 106.95 3 3.99
      vertex 3.05 3 3.99
    endloop
  endfacet
  facet normal 0.156541 -0.987672 0
    outer loop
      vertex 220.576 0.0236511 0
      vertex 220.762 0.0531311 30
      vertex 220.576 0.0236511 30
    endloop
  endfacet
  facet normal 0.156541 -0.987672 0
    outer loop
      vertex 220.762 0.0531311 30
      vertex 220.576 0.0236511 0
      vertex 220.762 0.0531311 0
    endloop
  endfacet
  facet normal -0.892217 -0.451607 0
    outer loop
      vertex 120.371 1.55473 0
      vertex 120.286 1.72266 30
      vertex 120.286 1.72266 0
    endloop
  endfacet
  facet normal -0.892217 -0.451607 0
    outer loop
      vertex 120.286 1.72266 30
      vertex 120.371 1.55473 0
      vertex 120.371 1.55473 30
    endloop
  endfacet
  facet normal 0.453804 -0.891102 0
    outer loop
      vertex 221.477 0.285522 0
      vertex 221.645 0.371078 30
      vertex 221.477 0.285522 30
    endloop
  endfacet
  facet normal 0.453804 -0.891102 0
    outer loop
      vertex 221.645 0.371078 30
      vertex 221.477 0.285522 0
      vertex 221.645 0.371078 0
    endloop
  endfacet
  facet normal -0.749114 -0.662441 0
    outer loop
      vertex 120.813 0.946365 0
      vertex 120.688 1.08772 30
      vertex 120.688 1.08772 0
    endloop
  endfacet
  facet normal -0.749114 -0.662441 0
    outer loop
      vertex 120.688 1.08772 30
      vertex 120.813 0.946365 0
      vertex 120.813 0.946365 30
    endloop
  endfacet
  facet normal -0.0938955 -0.995582 0
    outer loop
      vertex 122.624 0.0236511 0
      vertex 122.812 0.00592041 30
      vertex 122.624 0.0236511 30
    endloop
  endfacet
  facet normal -0.0938955 -0.995582 -0
    outer loop
      vertex 122.812 0.00592041 30
      vertex 122.624 0.0236511 0
      vertex 122.812 0.00592041 0
    endloop
  endfacet
  facet normal -0.156541 -0.987672 0
    outer loop
      vertex 122.438 0.0531311 0
      vertex 122.624 0.0236511 30
      vertex 122.438 0.0531311 30
    endloop
  endfacet
  facet normal -0.156541 -0.987672 -0
    outer loop
      vertex 122.624 0.0236511 30
      vertex 122.438 0.0531311 0
      vertex 122.624 0.0236511 0
    endloop
  endfacet
  facet normal -0.156126 0.987737 0
    outer loop
      vertex 122.624 24.9763 0
      vertex 122.438 24.9469 30
      vertex 122.624 24.9763 30
    endloop
  endfacet
  facet normal -0.156126 0.987737 0
    outer loop
      vertex 122.438 24.9469 30
      vertex 122.624 24.9763 0
      vertex 122.438 24.9469 0
    endloop
  endfacet
  facet normal 0 -1 0
    outer loop
      vertex 123 0 0
      vertex 220.2 0 30
      vertex 123 0 30
    endloop
  endfacet
  facet normal 0 -1 -0
    outer loop
      vertex 220.2 0 30
      vertex 123 0 0
      vertex 220.2 0 0
    endloop
  endfacet
  facet normal 0.917466 -0.397814 0
    outer loop
      vertex 222.914 1.72266 30
      vertex 222.989 1.89563 0
      vertex 222.989 1.89563 30
    endloop
  endfacet
  facet normal 0.917466 -0.397814 0
    outer loop
      vertex 222.989 1.89563 0
      vertex 222.914 1.72266 30
      vertex 222.914 1.72266 0
    endloop
  endfacet
  facet normal -0.339566 0.940582 0
    outer loop
      vertex 122.073 24.8532 0
      vertex 121.896 24.7893 30
      vertex 122.073 24.8532 30
    endloop
  endfacet
  facet normal -0.339566 0.940582 0
    outer loop
      vertex 121.896 24.7893 30
      vertex 122.073 24.8532 0
      vertex 121.896 24.7893 0
    endloop
  endfacet
  facet normal 0.98808 -0.15394 0
    outer loop
      vertex 223.147 2.43785 30
      vertex 223.176 2.62399 0
      vertex 223.176 2.62399 30
    endloop
  endfacet
  facet normal 0.98808 -0.15394 0
    outer loop
      vertex 223.176 2.62399 0
      vertex 223.147 2.43785 30
      vertex 223.147 2.43785 0
    endloop
  endfacet
  facet normal -0.99543 -0.09549 0
    outer loop
      vertex 120.024 2.62399 0
      vertex 120.006 2.81163 30
      vertex 120.006 2.81163 0
    endloop
  endfacet
  facet normal -0.99543 -0.09549 0
    outer loop
      vertex 120.006 2.81163 30
      vertex 120.024 2.62399 0
      vertex 120.024 2.62399 30
    endloop
  endfacet
  facet normal 0 1 -0
    outer loop
      vertex 220.2 25 0
      vertex 123 25 30
      vertex 220.2 25 30
    endloop
  endfacet
  facet normal 0 1 0
    outer loop
      vertex 123 25 30
      vertex 220.2 25 0
      vertex 123 25 0
    endloop
  endfacet
  facet normal -0.0313675 0.999508 0
    outer loop
      vertex 123 25 0
      vertex 122.812 24.9941 30
      vertex 123 25 30
    endloop
  endfacet
  facet normal -0.0313675 0.999508 0
    outer loop
      vertex 122.812 24.9941 30
      vertex 123 25 0
      vertex 122.812 24.9941 0
    endloop
  endfacet
  facet normal -0.0942593 0.995548 0
    outer loop
      vertex 122.812 24.9941 0
      vertex 122.624 24.9763 30
      vertex 122.812 24.9941 30
    endloop
  endfacet
  facet normal -0.0942593 0.995548 0
    outer loop
      vertex 122.624 24.9763 30
      vertex 122.812 24.9941 0
      vertex 122.624 24.9763 0
    endloop
  endfacet
  facet normal 0.892293 0.451458 0
    outer loop
      vertex 222.914 23.2773 30
      vertex 222.829 23.4453 0
      vertex 222.829 23.4453 30
    endloop
  endfacet
  facet normal 0.892293 0.451458 0
    outer loop
      vertex 222.829 23.4453 0
      vertex 222.914 23.2773 30
      vertex 222.914 23.2773 0
    endloop
  endfacet
  facet normal -0.976062 0.217492 0
    outer loop
      vertex 120.053 22.5621 0
      vertex 120.094 22.7461 30
      vertex 120.094 22.7461 0
    endloop
  endfacet
  facet normal -0.976062 0.217492 0
    outer loop
      vertex 120.094 22.7461 30
      vertex 120.053 22.5621 0
      vertex 120.053 22.5621 30
    endloop
  endfacet
  facet normal 0.976039 -0.217593 0
    outer loop
      vertex 223.106 2.25394 30
      vertex 223.147 2.43785 0
      vertex 223.147 2.43785 30
    endloop
  endfacet
  facet normal 0.976039 -0.217593 0
    outer loop
      vertex 223.147 2.43785 0
      vertex 223.106 2.25394 30
      vertex 223.106 2.25394 0
    endloop
  endfacet
  facet normal 0.218502 0.975836 -0
    outer loop
      vertex 220.946 24.9057 0
      vertex 220.762 24.9469 30
      vertex 220.946 24.9057 30
    endloop
  endfacet
  facet normal 0.218502 0.975836 0
    outer loop
      vertex 220.762 24.9469 30
      vertex 220.946 24.9057 0
      vertex 220.762 24.9469 0
    endloop
  endfacet
  facet normal -0.959661 0.281161 0
    outer loop
      vertex 120.094 22.7461 0
      vertex 120.147 22.927 30
      vertex 120.147 22.927 0
    endloop
  endfacet
  facet normal -0.959661 0.281161 0
    outer loop
      vertex 120.147 22.927 30
      vertex 120.094 22.7461 0
      vertex 120.094 22.7461 30
    endloop
  endfacet
  facet normal -0.999493 -0.0318361 0
    outer loop
      vertex 120.006 2.81163 0
      vertex 120 3 30
      vertex 120 3 0
    endloop
  endfacet
  facet normal -0.999493 -0.0318361 0
    outer loop
      vertex 120 3 30
      vertex 120.006 2.81163 0
      vertex 120.006 2.81163 30
    endloop
  endfacet
  facet normal 0.612655 0.790351 -0
    outer loop
      vertex 222.112 24.3115 0
      vertex 221.963 24.427 30
      vertex 222.112 24.3115 30
    endloop
  endfacet
  facet normal 0.612655 0.790351 0
    outer loop
      vertex 221.963 24.427 30
      vertex 222.112 24.3115 0
      vertex 221.963 24.427 0
    endloop
  endfacet
  facet normal 0.791497 -0.611174 0
    outer loop
      vertex 222.512 1.08772 30
      vertex 222.627 1.23665 0
      vertex 222.627 1.23665 30
    endloop
  endfacet
  facet normal 0.791497 -0.611174 0
    outer loop
      vertex 222.627 1.23665 0
      vertex 222.512 1.08772 30
      vertex 222.512 1.08772 0
    endloop
  endfacet
  facet normal -0.0314759 -0.999505 0
    outer loop
      vertex 122.812 0.00592041 0
      vertex 123 0 30
      vertex 122.812 0.00592041 30
    endloop
  endfacet
  facet normal -0.0314759 -0.999505 -0
    outer loop
      vertex 123 0 30
      vertex 122.812 0.00592041 0
      vertex 123 0 0
    endloop
  endfacet
  facet normal -0.826906 -0.56234 0
    outer loop
      vertex 120.573 1.23665 0
      vertex 120.467 1.39252 30
      vertex 120.467 1.39252 0
    endloop
  endfacet
  facet normal -0.826906 -0.56234 0
    outer loop
      vertex 120.467 1.39252 30
      vertex 120.573 1.23665 0
      vertex 120.573 1.23665 30
    endloop
  endfacet
  facet normal -0.218111 -0.975924 0
    outer loop
      vertex 122.254 0.0942535 0
      vertex 122.438 0.0531311 30
      vertex 122.254 0.0942535 30
    endloop
  endfacet
  facet normal -0.218111 -0.975924 -0
    outer loop
      vertex 122.438 0.0531311 30
      vertex 122.254 0.0942535 0
      vertex 122.438 0.0531311 0
    endloop
  endfacet
  facet normal -0.999493 0.031831 0
    outer loop
      vertex 120 22 0
      vertex 120.006 22.1884 30
      vertex 120.006 22.1884 0
    endloop
  endfacet
  facet normal -0.999493 0.031831 0
    outer loop
      vertex 120.006 22.1884 30
      vertex 120 22 0
      vertex 120 22 30
    endloop
  endfacet
  facet normal 0.999493 -0.0318361 0
    outer loop
      vertex 223.194 2.81163 30
      vertex 223.2 3 0
      vertex 223.2 3 30
    endloop
  endfacet
  facet normal 0.999493 -0.0318361 0
    outer loop
      vertex 223.2 3 0
      vertex 223.194 2.81163 30
      vertex 223.194 2.81163 0
    endloop
  endfacet
  facet normal 0.995428 0.0955102 0
    outer loop
      vertex 223.194 22.1884 30
      vertex 223.176 22.376 0
      vertex 223.176 22.376 30
    endloop
  endfacet
  facet normal 0.995428 0.0955102 0
    outer loop
      vertex 223.176 22.376 0
      vertex 223.194 22.1884 30
      vertex 223.194 22.1884 0
    endloop
  endfacet
  facet normal -1 0 0
    outer loop
      vertex 120 3 0
      vertex 120 22 30
      vertex 120 22 0
    endloop
  endfacet
  facet normal -1 -0 0
    outer loop
      vertex 120 22 30
      vertex 120 3 0
      vertex 120 3 30
    endloop
  endfacet
  facet normal 0.707823 -0.706389 0
    outer loop
      vertex 222.254 0.813095 30
      vertex 222.387 0.946365 0
      vertex 222.387 0.946365 30
    endloop
  endfacet
  facet normal 0.707823 -0.706389 0
    outer loop
      vertex 222.387 0.946365 0
      vertex 222.254 0.813095 30
      vertex 222.254 0.813095 0
    endloop
  endfacet
  facet normal 0.0314759 -0.999505 0
    outer loop
      vertex 220.2 0 0
      vertex 220.388 0.00592041 30
      vertex 220.2 0 30
    endloop
  endfacet
  facet normal 0.0314759 -0.999505 0
    outer loop
      vertex 220.388 0.00592041 30
      vertex 220.2 0 0
      vertex 220.388 0.00592041 0
    endloop
  endfacet
  facet normal 0.0938955 -0.995582 0
    outer loop
      vertex 220.388 0.00592041 0
      vertex 220.576 0.0236511 30
      vertex 220.388 0.00592041 30
    endloop
  endfacet
  facet normal 0.0938955 -0.995582 0
    outer loop
      vertex 220.576 0.0236511 30
      vertex 220.388 0.00592041 0
      vertex 220.576 0.0236511 0
    endloop
  endfacet
  facet normal 0.860581 -0.509314 0
    outer loop
      vertex 222.733 1.39252 30
      vertex 222.829 1.55473 0
      vertex 222.829 1.55473 30
    endloop
  endfacet
  facet normal 0.860581 -0.509314 0
    outer loop
      vertex 222.829 1.55473 0
      vertex 222.733 1.39252 30
      vertex 222.733 1.39252 0
    endloop
  endfacet
  facet normal 1 -0 0
    outer loop
      vertex 223.2 3 30
      vertex 223.2 22 0
      vertex 223.2 22 30
    endloop
  endfacet
  facet normal 1 0 0
    outer loop
      vertex 223.2 22 0
      vertex 223.2 3 30
      vertex 223.2 3 0
    endloop
  endfacet
  facet normal 0.976062 0.217492 0
    outer loop
      vertex 223.147 22.5621 30
      vertex 223.106 22.7461 0
      vertex 223.106 22.7461 30
    endloop
  endfacet
  facet normal 0.976062 0.217492 0
    outer loop
      vertex 223.106 22.7461 0
      vertex 223.147 22.5621 30
      vertex 223.147 22.5621 0
    endloop
  endfacet
  facet normal 0.917407 0.39795 0
    outer loop
      vertex 222.989 23.1044 30
      vertex 222.914 23.2773 0
      vertex 222.914 23.2773 30
    endloop
  endfacet
  facet normal 0.917407 0.39795 0
    outer loop
      vertex 222.914 23.2773 0
      vertex 222.989 23.1044 30
      vertex 222.989 23.1044 0
    endloop
  endfacet
  facet normal 0.561809 -0.827267 0
    outer loop
      vertex 221.807 0.46701 0
      vertex 221.963 0.572952 30
      vertex 221.807 0.46701 30
    endloop
  endfacet
  facet normal 0.561809 -0.827267 0
    outer loop
      vertex 221.963 0.572952 30
      vertex 221.807 0.46701 0
      vertex 221.963 0.572952 0
    endloop
  endfacet
  facet normal 0.278573 0.960415 -0
    outer loop
      vertex 221.127 24.8532 0
      vertex 220.946 24.9057 30
      vertex 221.127 24.8532 30
    endloop
  endfacet
  facet normal 0.278573 0.960415 0
    outer loop
      vertex 220.946 24.9057 30
      vertex 221.127 24.8532 0
      vertex 220.946 24.9057 0
    endloop
  endfacet
  facet normal 0.999493 0.031831 0
    outer loop
      vertex 223.2 22 30
      vertex 223.194 22.1884 0
      vertex 223.194 22.1884 30
    endloop
  endfacet
  facet normal 0.999493 0.031831 0
    outer loop
      vertex 223.194 22.1884 0
      vertex 223.2 22 30
      vertex 223.2 22 0
    endloop
  endfacet
  facet normal -0.339298 -0.940679 0
    outer loop
      vertex 121.896 0.210678 0
      vertex 122.073 0.146835 30
      vertex 121.896 0.210678 30
    endloop
  endfacet
  facet normal -0.339298 -0.940679 -0
    outer loop
      vertex 122.073 0.146835 30
      vertex 121.896 0.210678 0
      vertex 122.073 0.146835 0
    endloop
  endfacet
  facet normal 0.659655 -0.751569 0
    outer loop
      vertex 222.112 0.688461 0
      vertex 222.254 0.813095 30
      vertex 222.112 0.688461 30
    endloop
  endfacet
  facet normal 0.659655 -0.751569 0
    outer loop
      vertex 222.254 0.813095 30
      vertex 222.112 0.688461 0
      vertex 222.254 0.813095 0
    endloop
  endfacet
  facet normal 0.860567 0.509337 0
    outer loop
      vertex 222.829 23.4453 30
      vertex 222.733 23.6075 0
      vertex 222.733 23.6075 30
    endloop
  endfacet
  facet normal 0.860567 0.509337 0
    outer loop
      vertex 222.733 23.6075 0
      vertex 222.829 23.4453 30
      vertex 222.829 23.4453 0
    endloop
  endfacet
  facet normal -0.278972 -0.960299 0
    outer loop
      vertex 122.073 0.146835 0
      vertex 122.254 0.0942535 30
      vertex 122.073 0.146835 30
    endloop
  endfacet
  facet normal -0.278972 -0.960299 -0
    outer loop
      vertex 122.254 0.0942535 30
      vertex 122.073 0.146835 0
      vertex 122.254 0.0942535 0
    endloop
  endfacet
  facet normal 0.99543 -0.09549 0
    outer loop
      vertex 223.176 2.62399 30
      vertex 223.194 2.81163 0
      vertex 223.194 2.81163 30
    endloop
  endfacet
  facet normal 0.99543 -0.09549 0
    outer loop
      vertex 223.194 2.81163 0
      vertex 223.176 2.62399 30
      vertex 223.176 2.62399 0
    endloop
  endfacet
  facet normal 0.218111 -0.975924 0
    outer loop
      vertex 220.762 0.0531311 0
      vertex 220.946 0.0942535 30
      vertex 220.762 0.0531311 30
    endloop
  endfacet
  facet normal 0.218111 -0.975924 0
    outer loop
      vertex 220.946 0.0942535 30
      vertex 220.762 0.0531311 0
      vertex 220.946 0.0942535 0
    endloop
  endfacet
  facet normal -0.396863 0.917878 0
    outer loop
      vertex 121.896 24.7893 0
      vertex 121.723 24.7145 30
      vertex 121.896 24.7893 30
    endloop
  endfacet
  facet normal -0.396863 0.917878 0
    outer loop
      vertex 121.723 24.7145 30
      vertex 121.896 24.7893 0
      vertex 121.723 24.7145 0
    endloop
  endfacet
  facet normal -0.791497 -0.611174 0
    outer loop
      vertex 120.688 1.08772 0
      vertex 120.573 1.23665 30
      vertex 120.573 1.23665 0
    endloop
  endfacet
  facet normal -0.791497 -0.611174 0
    outer loop
      vertex 120.573 1.23665 30
      vertex 120.688 1.08772 0
      vertex 120.688 1.08772 30
    endloop
  endfacet
  facet normal -0.453804 -0.891102 0
    outer loop
      vertex 121.555 0.371078 0
      vertex 121.723 0.285522 30
      vertex 121.555 0.371078 30
    endloop
  endfacet
  facet normal -0.453804 -0.891102 -0
    outer loop
      vertex 121.723 0.285522 30
      vertex 121.555 0.371078 0
      vertex 121.723 0.285522 0
    endloop
  endfacet
  facet normal -0.509409 0.860524 0
    outer loop
      vertex 121.555 24.6289 0
      vertex 121.393 24.533 30
      vertex 121.555 24.6289 30
    endloop
  endfacet
  facet normal -0.509409 0.860524 0
    outer loop
      vertex 121.393 24.533 30
      vertex 121.555 24.6289 0
      vertex 121.393 24.533 0
    endloop
  endfacet
  facet normal 0.959698 -0.281032 0
    outer loop
      vertex 223.053 2.07295 30
      vertex 223.106 2.25394 0
      vertex 223.106 2.25394 30
    endloop
  endfacet
  facet normal 0.959698 -0.281032 0
    outer loop
      vertex 223.106 2.25394 0
      vertex 223.053 2.07295 30
      vertex 223.053 2.07295 0
    endloop
  endfacet
  facet normal -0.860581 -0.509314 0
    outer loop
      vertex 120.467 1.39252 0
      vertex 120.371 1.55473 30
      vertex 120.371 1.55473 0
    endloop
  endfacet
  facet normal -0.860581 -0.509314 0
    outer loop
      vertex 120.371 1.55473 30
      vertex 120.467 1.39252 0
      vertex 120.467 1.39252 30
    endloop
  endfacet
  facet normal 0.156126 0.987737 -0
    outer loop
      vertex 220.762 24.9469 0
      vertex 220.576 24.9763 30
      vertex 220.762 24.9469 30
    endloop
  endfacet
  facet normal 0.156126 0.987737 0
    outer loop
      vertex 220.576 24.9763 30
      vertex 220.762 24.9469 0
      vertex 220.576 24.9763 0
    endloop
  endfacet
  facet normal 0 0 1
    outer loop
      vertex 220.2 25 30
      vertex 223.2 22 30
      vertex 223.194 22.1884 30
    endloop
  endfacet
  facet normal 0 0 1
    outer loop
      vertex 223.2 22 30
      vertex 220.2 25 30
      vertex 223.2 3 30
    endloop
  endfacet
  facet normal 0 0 1
    outer loop
      vertex 220.2 25 30
      vertex 223.194 22.1884 30
      vertex 223.176 22.376 30
    endloop
  endfacet
  facet normal 0 0 1
    outer loop
      vertex 220.2 0 30
      vertex 223.2 3 30
      vertex 220.2 25 30
    endloop
  endfacet
  facet normal 0 0 1
    outer loop
      vertex 220.2 25 30
      vertex 223.176 22.376 30
      vertex 223.147 22.5621 30
    endloop
  endfacet
  facet normal 0 0 1
    outer loop
      vertex 223.2 3 30
      vertex 220.2 0 30
      vertex 223.194 2.81163 30
    endloop
  endfacet
  facet normal 0 0 1
    outer loop
      vertex 220.2 25 30
      vertex 223.147 22.5621 30
      vertex 223.106 22.7461 30
    endloop
  endfacet
  facet normal 0 0 1
    outer loop
      vertex 223.194 2.81163 30
      vertex 220.2 0 30
      vertex 223.176 2.62399 30
    endloop
  endfacet
  facet normal 0 0 1
    outer loop
      vertex 220.2 25 30
      vertex 223.106 22.7461 30
      vertex 223.053 22.927 30
    endloop
  endfacet
  facet normal 0 0 1
    outer loop
      vertex 223.176 2.62399 30
      vertex 220.2 0 30
      vertex 223.147 2.43785 30
    endloop
  endfacet
  facet normal 0 0 1
    outer loop
      vertex 220.2 25 30
      vertex 223.053 22.927 30
      vertex 222.989 23.1044 30
    endloop
  endfacet
  facet normal 0 0 1
    outer loop
      vertex 223.147 2.43785 30
      vertex 220.2 0 30
      vertex 223.106 2.25394 30
    endloop
  endfacet
  facet normal 0 0 1
    outer loop
      vertex 220.2 25 30
      vertex 222.989 23.1044 30
      vertex 222.914 23.2773 30
    endloop
  endfacet
  facet normal 0 0 1
    outer loop
      vertex 223.106 2.25394 30
      vertex 220.2 0 30
      vertex 223.053 2.07295 30
    endloop
  endfacet
  facet normal 0 0 1
    outer loop
      vertex 220.2 25 30
      vertex 222.914 23.2773 30
      vertex 222.829 23.4453 30
    endloop
  endfacet
  facet normal 0 0 1
    outer loop
      vertex 223.053 2.07295 30
      vertex 220.2 0 30
      vertex 222.989 1.89563 30
    endloop
  endfacet
  facet normal 0 0 1
    outer loop
      vertex 220.2 25 30
      vertex 222.829 23.4453 30
      vertex 222.733 23.6075 30
    endloop
  endfacet
  facet normal 0 0 1
    outer loop
      vertex 222.989 1.89563 30
      vertex 220.2 0 30
      vertex 222.914 1.72266 30
    endloop
  endfacet
  facet normal 0 0 1
    outer loop
      vertex 220.2 25 30
      vertex 222.733 23.6075 30
      vertex 222.627 23.7634 30
    endloop
  endfacet
  facet normal 0 0 1
    outer loop
      vertex 222.914 1.72266 30
      vertex 220.2 0 30
      vertex 222.829 1.55473 30
    endloop
  endfacet
  facet normal 0 0 1
    outer loop
      vertex 220.2 25 30
      vertex 222.627 23.7634 30
      vertex 222.512 23.9123 30
    endloop
  endfacet
  facet normal 0 0 1
    outer loop
      vertex 222.829 1.55473 30
      vertex 220.2 0 30
      vertex 222.733 1.39252 30
    endloop
  endfacet
  facet normal 0 0 1
    outer loop
      vertex 220.2 25 30
      vertex 222.512 23.9123 30
      vertex 222.387 24.0536 30
    endloop
  endfacet
  facet normal 0 0 1
    outer loop
      vertex 222.733 1.39252 30
      vertex 220.2 0 30
      vertex 222.627 1.23665 30
    endloop
  endfacet
  facet normal 0 0 1
    outer loop
      vertex 220.2 25 30
      vertex 222.387 24.0536 30
      vertex 222.254 24.1869 30
    endloop
  endfacet
  facet normal 0 0 1
    outer loop
      vertex 222.627 1.23665 30
      vertex 220.2 0 30
      vertex 222.512 1.08772 30
    endloop
  endfacet
  facet normal 0 0 1
    outer loop
      vertex 220.2 25 30
      vertex 222.254 24.1869 30
      vertex 222.112 24.3115 30
    endloop
  endfacet
  facet normal 0 0 1
    outer loop
      vertex 222.512 1.08772 30
      vertex 220.2 0 30
      vertex 222.387 0.946365 30
    endloop
  endfacet
  facet normal 0 0 1
    outer loop
      vertex 220.2 25 30
      vertex 222.112 24.3115 30
      vertex 221.963 24.427 30
    endloop
  endfacet
  facet normal 0 0 1
    outer loop
      vertex 222.387 0.946365 30
      vertex 220.2 0 30
      vertex 222.254 0.813095 30
    endloop
  endfacet
  facet normal 0 0 1
    outer loop
      vertex 220.2 25 30
      vertex 221.963 24.427 30
      vertex 221.807 24.533 30
    endloop
  endfacet
  facet normal 0 0 1
    outer loop
      vertex 222.254 0.813095 30
      vertex 220.2 0 30
      vertex 222.112 0.688461 30
    endloop
  endfacet
  facet normal 0 0 1
    outer loop
      vertex 220.2 25 30
      vertex 221.807 24.533 30
      vertex 221.645 24.6289 30
    endloop
  endfacet
  facet normal 0 0 1
    outer loop
      vertex 222.112 0.688461 30
      vertex 220.2 0 30
      vertex 221.963 0.572952 30
    endloop
  endfacet
  facet normal 0 0 1
    outer loop
      vertex 220.2 25 30
      vertex 221.645 24.6289 30
      vertex 221.477 24.7145 30
    endloop
  endfacet
  facet normal 0 0 1
    outer loop
      vertex 221.963 0.572952 30
      vertex 220.2 0 30
      vertex 221.807 0.46701 30
    endloop
  endfacet
  facet normal 0 0 1
    outer loop
      vertex 220.2 25 30
      vertex 221.477 24.7145 30
      vertex 221.304 24.7893 30
    endloop
  endfacet
  facet normal 0 0 1
    outer loop
      vertex 221.807 0.46701 30
      vertex 220.2 0 30
      vertex 221.645 0.371078 30
    endloop
  endfacet
  facet normal 0 0 1
    outer loop
      vertex 220.2 25 30
      vertex 221.304 24.7893 30
      vertex 221.127 24.8532 30
    endloop
  endfacet
  facet normal 0 0 1
    outer loop
      vertex 221.645 0.371078 30
      vertex 220.2 0 30
      vertex 221.477 0.285522 30
    endloop
  endfacet
  facet normal 0 0 1
    outer loop
      vertex 220.2 25 30
      vertex 221.127 24.8532 30
      vertex 220.946 24.9057 30
    endloop
  endfacet
  facet normal 0 0 1
    outer loop
      vertex 221.477 0.285522 30
      vertex 220.2 0 30
      vertex 221.304 0.210678 30
    endloop
  endfacet
  facet normal 0 0 1
    outer loop
      vertex 220.2 25 30
      vertex 220.946 24.9057 30
      vertex 220.762 24.9469 30
    endloop
  endfacet
  facet normal 0 0 1
    outer loop
      vertex 221.304 0.210678 30
      vertex 220.2 0 30
      vertex 221.127 0.146835 30
    endloop
  endfacet
  facet normal 0 0 1
    outer loop
      vertex 220.2 25 30
      vertex 220.762 24.9469 30
      vertex 220.576 24.9763 30
    endloop
  endfacet
  facet normal 0 0 1
    outer loop
      vertex 221.127 0.146835 30
      vertex 220.2 0 30
      vertex 220.946 0.0942535 30
    endloop
  endfacet
  facet normal 0 0 1
    outer loop
      vertex 220.2 25 30
      vertex 220.576 24.9763 30
      vertex 220.388 24.9941 30
    endloop
  endfacet
  facet normal 0 0 1
    outer loop
      vertex 220.946 0.0942535 30
      vertex 220.2 0 30
      vertex 220.762 0.0531311 30
    endloop
  endfacet
  facet normal 0 0 1
    outer loop
      vertex 220.762 0.0531311 30
      vertex 220.2 0 30
      vertex 220.576 0.0236511 30
    endloop
  endfacet
  facet normal 0 0 1
    outer loop
      vertex 220.576 0.0236511 30
      vertex 220.2 0 30
      vertex 220.388 0.00592041 30
    endloop
  endfacet
  facet normal -0 0 1
    outer loop
      vertex 123 25 30
      vertex 220.2 0 30
      vertex 220.2 25 30
    endloop
  endfacet
  facet normal 0 0 1
    outer loop
      vertex 123 25 30
      vertex 123 0 30
      vertex 220.2 0 30
    endloop
  endfacet
  facet normal 0 0 1
    outer loop
      vertex 120 22 30
      vertex 123 25 30
      vertex 122.812 24.9941 30
    endloop
  endfacet
  facet normal 0 0 1
    outer loop
      vertex 123 25 30
      vertex 120 22 30
      vertex 123 0 30
    endloop
  endfacet
  facet normal 0 0 1
    outer loop
      vertex 120 22 30
      vertex 122.812 24.9941 30
      vertex 122.624 24.9763 30
    endloop
  endfacet
  facet normal -0 0 1
    outer loop
      vertex 120 3 30
      vertex 123 0 30
      vertex 120 22 30
    endloop
  endfacet
  facet normal 0 0 1
    outer loop
      vertex 120 22 30
      vertex 122.624 24.9763 30
      vertex 122.438 24.9469 30
    endloop
  endfacet
  facet normal 0 0 1
    outer loop
      vertex 123 0 30
      vertex 120 3 30
      vertex 122.812 0.00592041 30
    endloop
  endfacet
  facet normal 0 0 1
    outer loop
      vertex 120 22 30
      vertex 122.438 24.9469 30
      vertex 122.254 24.9057 30
    endloop
  endfacet
  facet normal 0 0 1
    outer loop
      vertex 122.812 0.00592041 30
      vertex 120 3 30
      vertex 122.624 0.0236511 30
    endloop
  endfacet
  facet normal 0 0 1
    outer loop
      vertex 120 22 30
      vertex 122.254 24.9057 30
      vertex 122.073 24.8532 30
    endloop
  endfacet
  facet normal 0 0 1
    outer loop
      vertex 122.624 0.0236511 30
      vertex 120 3 30
      vertex 122.438 0.0531311 30
    endloop
  endfacet
  facet normal 0 0 1
    outer loop
      vertex 120 22 30
      vertex 122.073 24.8532 30
      vertex 121.896 24.7893 30
    endloop
  endfacet
  facet normal 0 0 1
    outer loop
      vertex 122.438 0.0531311 30
      vertex 120 3 30
      vertex 122.254 0.0942535 30
    endloop
  endfacet
  facet normal 0 0 1
    outer loop
      vertex 120 22 30
      vertex 121.896 24.7893 30
      vertex 121.723 24.7145 30
    endloop
  endfacet
  facet normal 0 0 1
    outer loop
      vertex 122.254 0.0942535 30
      vertex 120 3 30
      vertex 122.073 0.146835 30
    endloop
  endfacet
  facet normal 0 0 1
    outer loop
      vertex 120 22 30
      vertex 121.723 24.7145 30
      vertex 121.555 24.6289 30
    endloop
  endfacet
  facet normal 0 0 1
    outer loop
      vertex 122.073 0.146835 30
      vertex 120 3 30
      vertex 121.896 0.210678 30
    endloop
  endfacet
  facet normal 0 0 1
    outer loop
      vertex 120 22 30
      vertex 121.555 24.6289 30
      vertex 121.393 24.533 30
    endloop
  endfacet
  facet normal 0 0 1
    outer loop
      vertex 121.896 0.210678 30
      vertex 120 3 30
      vertex 121.723 0.285522 30
    endloop
  endfacet
  facet normal 0 0 1
    outer loop
      vertex 120 22 30
      vertex 121.393 24.533 30
      vertex 121.237 24.427 30
    endloop
  endfacet
  facet normal 0 0 1
    outer loop
      vertex 121.723 0.285522 30
      vertex 120 3 30
      vertex 121.555 0.371078 30
    endloop
  endfacet
  facet normal 0 0 1
    outer loop
      vertex 120 22 30
      vertex 121.237 24.427 30
      vertex 121.088 24.3115 30
    endloop
  endfacet
  facet normal 0 0 1
    outer loop
      vertex 121.555 0.371078 30
      vertex 120 3 30
      vertex 121.393 0.46701 30
    endloop
  endfacet
  facet normal 0 0 1
    outer loop
      vertex 120 22 30
      vertex 121.088 24.3115 30
      vertex 120.946 24.1869 30
    endloop
  endfacet
  facet normal 0 0 1
    outer loop
      vertex 121.393 0.46701 30
      vertex 120 3 30
      vertex 121.237 0.572952 30
    endloop
  endfacet
  facet normal 0 0 1
    outer loop
      vertex 120 22 30
      vertex 120.946 24.1869 30
      vertex 120.813 24.0536 30
    endloop
  endfacet
  facet normal 0 0 1
    outer loop
      vertex 121.237 0.572952 30
      vertex 120 3 30
      vertex 121.088 0.688461 30
    endloop
  endfacet
  facet normal 0 0 1
    outer loop
      vertex 120 22 30
      vertex 120.813 24.0536 30
      vertex 120.688 23.9123 30
    endloop
  endfacet
  facet normal 0 0 1
    outer loop
      vertex 121.088 0.688461 30
      vertex 120 3 30
      vertex 120.946 0.813095 30
    endloop
  endfacet
  facet normal 0 0 1
    outer loop
      vertex 120 22 30
      vertex 120.688 23.9123 30
      vertex 120.573 23.7634 30
    endloop
  endfacet
  facet normal 0 0 1
    outer loop
      vertex 120.946 0.813095 30
      vertex 120 3 30
      vertex 120.813 0.946365 30
    endloop
  endfacet
  facet normal 0 0 1
    outer loop
      vertex 120 22 30
      vertex 120.573 23.7634 30
      vertex 120.467 23.6075 30
    endloop
  endfacet
  facet normal 0 0 1
    outer loop
      vertex 120.813 0.946365 30
      vertex 120 3 30
      vertex 120.688 1.08772 30
    endloop
  endfacet
  facet normal 0 0 1
    outer loop
      vertex 120 22 30
      vertex 120.467 23.6075 30
      vertex 120.371 23.4453 30
    endloop
  endfacet
  facet normal 0 0 1
    outer loop
      vertex 120.688 1.08772 30
      vertex 120 3 30
      vertex 120.573 1.23665 30
    endloop
  endfacet
  facet normal 0 0 1
    outer loop
      vertex 120 22 30
      vertex 120.371 23.4453 30
      vertex 120.286 23.2773 30
    endloop
  endfacet
  facet normal 0 0 1
    outer loop
      vertex 120.573 1.23665 30
      vertex 120 3 30
      vertex 120.467 1.39252 30
    endloop
  endfacet
  facet normal 0 0 1
    outer loop
      vertex 120 22 30
      vertex 120.286 23.2773 30
      vertex 120.211 23.1044 30
    endloop
  endfacet
  facet normal 0 0 1
    outer loop
      vertex 120.467 1.39252 30
      vertex 120 3 30
      vertex 120.371 1.55473 30
    endloop
  endfacet
  facet normal 0 0 1
    outer loop
      vertex 120 22 30
      vertex 120.211 23.1044 30
      vertex 120.147 22.927 30
    endloop
  endfacet
  facet normal 0 0 1
    outer loop
      vertex 120.371 1.55473 30
      vertex 120 3 30
      vertex 120.286 1.72266 30
    endloop
  endfacet
  facet normal 0 0 1
    outer loop
      vertex 120 22 30
      vertex 120.147 22.927 30
      vertex 120.094 22.7461 30
    endloop
  endfacet
  facet normal 0 0 1
    outer loop
      vertex 120.286 1.72266 30
      vertex 120 3 30
      vertex 120.211 1.89563 30
    endloop
  endfacet
  facet normal 0 0 1
    outer loop
      vertex 120 22 30
      vertex 120.094 22.7461 30
      vertex 120.053 22.5621 30
    endloop
  endfacet
  facet normal 0 0 1
    outer loop
      vertex 120.211 1.89563 30
      vertex 120 3 30
      vertex 120.147 2.07295 30
    endloop
  endfacet
  facet normal 0 0 1
    outer loop
      vertex 120 22 30
      vertex 120.053 22.5621 30
      vertex 120.024 22.376 30
    endloop
  endfacet
  facet normal 0 0 1
    outer loop
      vertex 120.147 2.07295 30
      vertex 120 3 30
      vertex 120.094 2.25394 30
    endloop
  endfacet
  facet normal 0 0 1
    outer loop
      vertex 120 22 30
      vertex 120.024 22.376 30
      vertex 120.006 22.1884 30
    endloop
  endfacet
  facet normal 0 0 1
    outer loop
      vertex 120.094 2.25394 30
      vertex 120 3 30
      vertex 120.053 2.43785 30
    endloop
  endfacet
  facet normal 0 0 1
    outer loop
      vertex 120.053 2.43785 30
      vertex 120 3 30
      vertex 120.024 2.62399 30
    endloop
  endfacet
  facet normal 0 0 1
    outer loop
      vertex 120.024 2.62399 30
      vertex 120 3 30
      vertex 120.006 2.81163 30
    endloop
  endfacet
  facet normal -0.561809 -0.827267 0
    outer loop
      vertex 121.237 0.572952 0
      vertex 121.393 0.46701 30
      vertex 121.237 0.572952 30
    endloop
  endfacet
  facet normal -0.561809 -0.827267 -0
    outer loop
      vertex 121.393 0.46701 30
      vertex 121.237 0.572952 0
      vertex 121.393 0.46701 0
    endloop
  endfacet
  facet normal 0.339566 0.940582 -0
    outer loop
      vertex 221.304 24.7893 0
      vertex 221.127 24.8532 30
      vertex 221.304 24.7893 30
    endloop
  endfacet
  facet normal 0.339566 0.940582 0
    outer loop
      vertex 221.127 24.8532 30
      vertex 221.304 24.7893 0
      vertex 221.127 24.8532 0
    endloop
  endfacet
  facet normal -0.453989 0.891007 0
    outer loop
      vertex 121.723 24.7145 0
      vertex 121.555 24.6289 30
      vertex 121.723 24.7145 30
    endloop
  endfacet
  facet normal -0.453989 0.891007 0
    outer loop
      vertex 121.555 24.6289 30
      vertex 121.723 24.7145 0
      vertex 121.555 24.6289 0
    endloop
  endfacet
  facet normal 0.749114 -0.662441 0
    outer loop
      vertex 222.387 0.946365 30
      vertex 222.512 1.08772 0
      vertex 222.512 1.08772 30
    endloop
  endfacet
  facet normal 0.749114 -0.662441 0
    outer loop
      vertex 222.512 1.08772 0
      vertex 222.387 0.946365 30
      vertex 222.387 0.946365 0
    endloop
  endfacet
  facet normal 0.509409 0.860524 -0
    outer loop
      vertex 221.807 24.533 0
      vertex 221.645 24.6289 30
      vertex 221.807 24.533 30
    endloop
  endfacet
  facet normal 0.509409 0.860524 0
    outer loop
      vertex 221.645 24.6289 30
      vertex 221.807 24.533 0
      vertex 221.645 24.6289 0
    endloop
  endfacet
  facet normal 0.988075 0.153972 0
    outer loop
      vertex 223.176 22.376 30
      vertex 223.147 22.5621 0
      vertex 223.147 22.5621 30
    endloop
  endfacet
  facet normal 0.988075 0.153972 0
    outer loop
      vertex 223.147 22.5621 0
      vertex 223.176 22.376 30
      vertex 223.176 22.376 0
    endloop
  endfacet
  facet normal 0.453989 0.891007 -0
    outer loop
      vertex 221.645 24.6289 0
      vertex 221.477 24.7145 30
      vertex 221.645 24.6289 30
    endloop
  endfacet
  facet normal 0.453989 0.891007 0
    outer loop
      vertex 221.477 24.7145 30
      vertex 221.645 24.6289 0
      vertex 221.477 24.7145 0
    endloop
  endfacet
  facet normal 0.0942593 0.995548 -0
    outer loop
      vertex 220.576 24.9763 0
      vertex 220.388 24.9941 30
      vertex 220.576 24.9763 30
    endloop
  endfacet
  facet normal 0.0942593 0.995548 0
    outer loop
      vertex 220.388 24.9941 30
      vertex 220.576 24.9763 0
      vertex 220.388 24.9941 0
    endloop
  endfacet
  facet normal -0.959698 -0.281032 0
    outer loop
      vertex 120.147 2.07295 0
      vertex 120.094 2.25394 30
      vertex 120.094 2.25394 0
    endloop
  endfacet
  facet normal -0.959698 -0.281032 0
    outer loop
      vertex 120.094 2.25394 30
      vertex 120.147 2.07295 0
      vertex 120.147 2.07295 30
    endloop
  endfacet
  facet normal 0.0313675 0.999508 -0
    outer loop
      vertex 220.388 24.9941 0
      vertex 220.2 25 30
      vertex 220.388 24.9941 30
    endloop
  endfacet
  facet normal 0.0313675 0.999508 0
    outer loop
      vertex 220.2 25 30
      vertex 220.388 24.9941 0
      vertex 220.2 25 0
    endloop
  endfacet
  facet normal -0.791437 0.611251 0
    outer loop
      vertex 120.573 23.7634 0
      vertex 120.688 23.9123 30
      vertex 120.688 23.9123 0
    endloop
  endfacet
  facet normal -0.791437 0.611251 0
    outer loop
      vertex 120.688 23.9123 30
      vertex 120.573 23.7634 0
      vertex 120.573 23.7634 30
    endloop
  endfacet
  facet normal -0.659655 -0.751569 0
    outer loop
      vertex 120.946 0.813095 0
      vertex 121.088 0.688461 30
      vertex 120.946 0.813095 30
    endloop
  endfacet
  facet normal -0.659655 -0.751569 -0
    outer loop
      vertex 121.088 0.688461 30
      vertex 120.946 0.813095 0
      vertex 121.088 0.688461 0
    endloop
  endfacet
  facet normal -0.988075 0.153972 0
    outer loop
      vertex 120.024 22.376 0
      vertex 120.053 22.5621 30
      vertex 120.053 22.5621 0
    endloop
  endfacet
  facet normal -0.988075 0.153972 0
    outer loop
      vertex 120.053 22.5621 30
      vertex 120.024 22.376 0
      vertex 120.024 22.376 30
    endloop
  endfacet
  facet normal 0.940657 0.339358 0
    outer loop
      vertex 223.053 22.927 30
      vertex 222.989 23.1044 0
      vertex 222.989 23.1044 30
    endloop
  endfacet
  facet normal 0.940657 0.339358 0
    outer loop
      vertex 222.989 23.1044 0
      vertex 223.053 22.927 30
      vertex 223.053 22.927 0
    endloop
  endfacet
  facet normal 0.509535 -0.86045 0
    outer loop
      vertex 221.645 0.371078 0
      vertex 221.807 0.46701 30
      vertex 221.645 0.371078 30
    endloop
  endfacet
  facet normal 0.509535 -0.86045 0
    outer loop
      vertex 221.807 0.46701 30
      vertex 221.645 0.371078 0
      vertex 221.807 0.46701 0
    endloop
  endfacet
  facet normal -0.659553 0.751658 0
    outer loop
      vertex 121.088 24.3115 0
      vertex 120.946 24.1869 30
      vertex 121.088 24.3115 30
    endloop
  endfacet
  facet normal -0.659553 0.751658 0
    outer loop
      vertex 120.946 24.1869 30
      vertex 121.088 24.3115 0
      vertex 120.946 24.1869 0
    endloop
  endfacet
  facet normal 0.397059 -0.917793 0
    outer loop
      vertex 221.304 0.210678 0
      vertex 221.477 0.285522 30
      vertex 221.304 0.210678 30
    endloop
  endfacet
  facet normal 0.397059 -0.917793 0
    outer loop
      vertex 221.477 0.285522 30
      vertex 221.304 0.210678 0
      vertex 221.477 0.285522 0
    endloop
  endfacet
  facet normal 0.612684 -0.790328 0
    outer loop
      vertex 221.963 0.572952 0
      vertex 222.112 0.688461 30
      vertex 221.963 0.572952 30
    endloop
  endfacet
  facet normal 0.612684 -0.790328 0
    outer loop
      vertex 222.112 0.688461 30
      vertex 221.963 0.572952 0
      vertex 222.112 0.688461 0
    endloop
  endfacet
  facet normal -0.917466 -0.397814 0
    outer loop
      vertex 120.286 1.72266 0
      vertex 120.211 1.89563 30
      vertex 120.211 1.89563 0
    endloop
  endfacet
  facet normal -0.917466 -0.397814 0
    outer loop
      vertex 120.211 1.89563 30
      vertex 120.286 1.72266 0
      vertex 120.286 1.72266 30
    endloop
  endfacet
  facet normal 0.826906 -0.56234 0
    outer loop
      vertex 222.627 1.23665 30
      vertex 222.733 1.39252 0
      vertex 222.733 1.39252 30
    endloop
  endfacet
  facet normal 0.826906 -0.56234 0
    outer loop
      vertex 222.733 1.39252 0
      vertex 222.627 1.23665 30
      vertex 222.627 1.23665 0
    endloop
  endfacet
  facet normal -0.98808 -0.15394 0
    outer loop
      vertex 120.053 2.43785 0
      vertex 120.024 2.62399 30
      vertex 120.024 2.62399 0
    endloop
  endfacet
  facet normal -0.98808 -0.15394 0
    outer loop
      vertex 120.024 2.62399 30
      vertex 120.053 2.43785 0
      vertex 120.053 2.43785 30
    endloop
  endfacet
  facet normal -0.940608 -0.339493 0
    outer loop
      vertex 120.211 1.89563 0
      vertex 120.147 2.07295 30
      vertex 120.147 2.07295 0
    endloop
  endfacet
  facet normal -0.940608 -0.339493 0
    outer loop
      vertex 120.147 2.07295 30
      vertex 120.211 1.89563 0
      vertex 120.211 1.89563 30
    endloop
  endfacet
  facet normal 0.659553 0.751658 -0
    outer loop
      vertex 222.254 24.1869 0
      vertex 222.112 24.3115 30
      vertex 222.254 24.1869 30
    endloop
  endfacet
  facet normal 0.659553 0.751658 0
    outer loop
      vertex 222.112 24.3115 30
      vertex 222.254 24.1869 0
      vertex 222.112 24.3115 0
    endloop
  endfacet
  facet normal 0.278972 -0.960299 0
    outer loop
      vertex 220.946 0.0942535 0
      vertex 221.127 0.146835 30
      vertex 220.946 0.0942535 30
    endloop
  endfacet
  facet normal 0.278972 -0.960299 0
    outer loop
      vertex 221.127 0.146835 30
      vertex 220.946 0.0942535 0
      vertex 221.127 0.146835 0
    endloop
  endfacet
  facet normal 0 0 -1
    outer loop
      vertex 220.2 0 0
      vertex 223.2 3 0
      vertex 223.194 2.81163 0
    endloop
  endfacet
  facet normal -0 0 -1
    outer loop
      vertex 223.2 3 0
      vertex 220.2 0 0
      vertex 223.2 22 0
    endloop
  endfacet
  facet normal 0 0 -1
    outer loop
      vertex 220.2 0 0
      vertex 223.194 2.81163 0
      vertex 223.176 2.62399 0
    endloop
  endfacet
  facet normal 0 0 -1
    outer loop
      vertex 220.2 25 0
      vertex 223.2 22 0
      vertex 220.2 0 0
    endloop
  endfacet
  facet normal 0 0 -1
    outer loop
      vertex 220.2 0 0
      vertex 223.176 2.62399 0
      vertex 223.147 2.43785 0
    endloop
  endfacet
  facet normal 0 0 -1
    outer loop
      vertex 223.2 22 0
      vertex 220.2 25 0
      vertex 223.194 22.1884 0
    endloop
  endfacet
  facet normal 0 0 -1
    outer loop
      vertex 220.2 0 0
      vertex 223.147 2.43785 0
      vertex 223.106 2.25394 0
    endloop
  endfacet
  facet normal 0 0 -1
    outer loop
      vertex 223.194 22.1884 0
      vertex 220.2 25 0
      vertex 223.176 22.376 0
    endloop
  endfacet
  facet normal 0 0 -1
    outer loop
      vertex 220.2 0 0
      vertex 223.106 2.25394 0
      vertex 223.053 2.07295 0
    endloop
  endfacet
  facet normal 0 0 -1
    outer loop
      vertex 223.176 22.376 0
      vertex 220.2 25 0
      vertex 223.147 22.5621 0
    endloop
  endfacet
  facet normal 0 0 -1
    outer loop
      vertex 220.2 0 0
      vertex 223.053 2.07295 0
      vertex 222.989 1.89563 0
    endloop
  endfacet
  facet normal 0 0 -1
    outer loop
      vertex 223.147 22.5621 0
      vertex 220.2 25 0
      vertex 223.106 22.7461 0
    endloop
  endfacet
  facet normal 0 0 -1
    outer loop
      vertex 220.2 0 0
      vertex 222.989 1.89563 0
      vertex 222.914 1.72266 0
    endloop
  endfacet
  facet normal 0 0 -1
    outer loop
      vertex 223.106 22.7461 0
      vertex 220.2 25 0
      vertex 223.053 22.927 0
    endloop
  endfacet
  facet normal 0 0 -1
    outer loop
      vertex 220.2 0 0
      vertex 222.914 1.72266 0
      vertex 222.829 1.55473 0
    endloop
  endfacet
  facet normal 0 0 -1
    outer loop
      vertex 223.053 22.927 0
      vertex 220.2 25 0
      vertex 222.989 23.1044 0
    endloop
  endfacet
  facet normal 0 0 -1
    outer loop
      vertex 220.2 0 0
      vertex 222.829 1.55473 0
      vertex 222.733 1.39252 0
    endloop
  endfacet
  facet normal 0 0 -1
    outer loop
      vertex 222.989 23.1044 0
      vertex 220.2 25 0
      vertex 222.914 23.2773 0
    endloop
  endfacet
  facet normal 0 0 -1
    outer loop
      vertex 220.2 0 0
      vertex 222.733 1.39252 0
      vertex 222.627 1.23665 0
    endloop
  endfacet
  facet normal 0 0 -1
    outer loop
      vertex 222.914 23.2773 0
      vertex 220.2 25 0
      vertex 222.829 23.4453 0
    endloop
  endfacet
  facet normal 0 0 -1
    outer loop
      vertex 220.2 0 0
      vertex 222.627 1.23665 0
      vertex 222.512 1.08772 0
    endloop
  endfacet
  facet normal 0 0 -1
    outer loop
      vertex 222.829 23.4453 0
      vertex 220.2 25 0
      vertex 222.733 23.6075 0
    endloop
  endfacet
  facet normal 0 0 -1
    outer loop
      vertex 220.2 0 0
      vertex 222.512 1.08772 0
      vertex 222.387 0.946365 0
    endloop
  endfacet
  facet normal 0 0 -1
    outer loop
      vertex 222.733 23.6075 0
      vertex 220.2 25 0
      vertex 222.627 23.7634 0
    endloop
  endfacet
  facet normal 0 0 -1
    outer loop
      vertex 220.2 0 0
      vertex 222.387 0.946365 0
      vertex 222.254 0.813095 0
    endloop
  endfacet
  facet normal 0 0 -1
    outer loop
      vertex 222.627 23.7634 0
      vertex 220.2 25 0
      vertex 222.512 23.9123 0
    endloop
  endfacet
  facet normal 0 0 -1
    outer loop
      vertex 220.2 0 0
      vertex 222.254 0.813095 0
      vertex 222.112 0.688461 0
    endloop
  endfacet
  facet normal 0 0 -1
    outer loop
      vertex 222.512 23.9123 0
      vertex 220.2 25 0
      vertex 222.387 24.0536 0
    endloop
  endfacet
  facet normal 0 0 -1
    outer loop
      vertex 220.2 0 0
      vertex 222.112 0.688461 0
      vertex 221.963 0.572952 0
    endloop
  endfacet
  facet normal 0 0 -1
    outer loop
      vertex 222.387 24.0536 0
      vertex 220.2 25 0
      vertex 222.254 24.1869 0
    endloop
  endfacet
  facet normal 0 0 -1
    outer loop
      vertex 220.2 0 0
      vertex 221.963 0.572952 0
      vertex 221.807 0.46701 0
    endloop
  endfacet
  facet normal 0 0 -1
    outer loop
      vertex 222.254 24.1869 0
      vertex 220.2 25 0
      vertex 222.112 24.3115 0
    endloop
  endfacet
  facet normal 0 0 -1
    outer loop
      vertex 220.2 0 0
      vertex 221.807 0.46701 0
      vertex 221.645 0.371078 0
    endloop
  endfacet
  facet normal 0 0 -1
    outer loop
      vertex 222.112 24.3115 0
      vertex 220.2 25 0
      vertex 221.963 24.427 0
    endloop
  endfacet
  facet normal 0 0 -1
    outer loop
      vertex 220.2 0 0
      vertex 221.645 0.371078 0
      vertex 221.477 0.285522 0
    endloop
  endfacet
  facet normal 0 0 -1
    outer loop
      vertex 221.963 24.427 0
      vertex 220.2 25 0
      vertex 221.807 24.533 0
    endloop
  endfacet
  facet normal 0 0 -1
    outer loop
      vertex 220.2 0 0
      vertex 221.477 0.285522 0
      vertex 221.304 0.210678 0
    endloop
  endfacet
  facet normal 0 0 -1
    outer loop
      vertex 221.807 24.533 0
      vertex 220.2 25 0
      vertex 221.645 24.6289 0
    endloop
  endfacet
  facet normal 0 0 -1
    outer loop
      vertex 220.2 0 0
      vertex 221.304 0.210678 0
      vertex 221.127 0.146835 0
    endloop
  endfacet
  facet normal 0 0 -1
    outer loop
      vertex 221.645 24.6289 0
      vertex 220.2 25 0
      vertex 221.477 24.7145 0
    endloop
  endfacet
  facet normal 0 0 -1
    outer loop
      vertex 220.2 0 0
      vertex 221.127 0.146835 0
      vertex 220.946 0.0942535 0
    endloop
  endfacet
  facet normal 0 0 -1
    outer loop
      vertex 221.477 24.7145 0
      vertex 220.2 25 0
      vertex 221.304 24.7893 0
    endloop
  endfacet
  facet normal 0 0 -1
    outer loop
      vertex 220.2 0 0
      vertex 220.946 0.0942535 0
      vertex 220.762 0.0531311 0
    endloop
  endfacet
  facet normal 0 0 -1
    outer loop
      vertex 221.304 24.7893 0
      vertex 220.2 25 0
      vertex 221.127 24.8532 0
    endloop
  endfacet
  facet normal 0 0 -1
    outer loop
      vertex 220.2 0 0
      vertex 220.762 0.0531311 0
      vertex 220.576 0.0236511 0
    endloop
  endfacet
  facet normal 0 0 -1
    outer loop
      vertex 221.127 24.8532 0
      vertex 220.2 25 0
      vertex 220.946 24.9057 0
    endloop
  endfacet
  facet normal 0 0 -1
    outer loop
      vertex 220.2 0 0
      vertex 220.576 0.0236511 0
      vertex 220.388 0.00592041 0
    endloop
  endfacet
  facet normal 0 0 -1
    outer loop
      vertex 220.946 24.9057 0
      vertex 220.2 25 0
      vertex 220.762 24.9469 0
    endloop
  endfacet
  facet normal 0 0 -1
    outer loop
      vertex 220.762 24.9469 0
      vertex 220.2 25 0
      vertex 220.576 24.9763 0
    endloop
  endfacet
  facet normal 0 0 -1
    outer loop
      vertex 220.576 24.9763 0
      vertex 220.2 25 0
      vertex 220.388 24.9941 0
    endloop
  endfacet
  facet normal 0 0 -1
    outer loop
      vertex 123 0 0
      vertex 220.2 25 0
      vertex 220.2 0 0
    endloop
  endfacet
  facet normal 0 0 -1
    outer loop
      vertex 123 0 0
      vertex 123 25 0
      vertex 220.2 25 0
    endloop
  endfacet
  facet normal 0 0 -1
    outer loop
      vertex 120 3 0
      vertex 123 0 0
      vertex 122.812 0.00592041 0
    endloop
  endfacet
  facet normal 0 0 -1
    outer loop
      vertex 123 0 0
      vertex 120 3 0
      vertex 123 25 0
    endloop
  endfacet
  facet normal 0 0 -1
    outer loop
      vertex 120 3 0
      vertex 122.812 0.00592041 0
      vertex 122.624 0.0236511 0
    endloop
  endfacet
  facet normal 0 0 -1
    outer loop
      vertex 120 22 0
      vertex 123 25 0
      vertex 120 3 0
    endloop
  endfacet
  facet normal 0 0 -1
    outer loop
      vertex 120 3 0
      vertex 122.624 0.0236511 0
      vertex 122.438 0.0531311 0
    endloop
  endfacet
  facet normal 0 0 -1
    outer loop
      vertex 123 25 0
      vertex 120 22 0
      vertex 122.812 24.9941 0
    endloop
  endfacet
  facet normal 0 0 -1
    outer loop
      vertex 120 3 0
      vertex 122.438 0.0531311 0
      vertex 122.254 0.0942535 0
    endloop
  endfacet
  facet normal 0 0 -1
    outer loop
      vertex 122.812 24.9941 0
      vertex 120 22 0
      vertex 122.624 24.9763 0
    endloop
  endfacet
  facet normal 0 0 -1
    outer loop
      vertex 120 3 0
      vertex 122.254 0.0942535 0
      vertex 122.073 0.146835 0
    endloop
  endfacet
  facet normal 0 0 -1
    outer loop
      vertex 122.624 24.9763 0
      vertex 120 22 0
      vertex 122.438 24.9469 0
    endloop
  endfacet
  facet normal 0 0 -1
    outer loop
      vertex 120 3 0
      vertex 122.073 0.146835 0
      vertex 121.896 0.210678 0
    endloop
  endfacet
  facet normal 0 0 -1
    outer loop
      vertex 122.438 24.9469 0
      vertex 120 22 0
      vertex 122.254 24.9057 0
    endloop
  endfacet
  facet normal 0 0 -1
    outer loop
      vertex 120 3 0
      vertex 121.896 0.210678 0
      vertex 121.723 0.285522 0
    endloop
  endfacet
  facet normal 0 0 -1
    outer loop
      vertex 122.254 24.9057 0
      vertex 120 22 0
      vertex 122.073 24.8532 0
    endloop
  endfacet
  facet normal 0 0 -1
    outer loop
      vertex 120 3 0
      vertex 121.723 0.285522 0
      vertex 121.555 0.371078 0
    endloop
  endfacet
  facet normal 0 0 -1
    outer loop
      vertex 122.073 24.8532 0
      vertex 120 22 0
      vertex 121.896 24.7893 0
    endloop
  endfacet
  facet normal 0 0 -1
    outer loop
      vertex 120 3 0
      vertex 121.555 0.371078 0
      vertex 121.393 0.46701 0
    endloop
  endfacet
  facet normal 0 0 -1
    outer loop
      vertex 121.896 24.7893 0
      vertex 120 22 0
      vertex 121.723 24.7145 0
    endloop
  endfacet
  facet normal 0 0 -1
    outer loop
      vertex 120 3 0
      vertex 121.393 0.46701 0
      vertex 121.237 0.572952 0
    endloop
  endfacet
  facet normal 0 0 -1
    outer loop
      vertex 121.723 24.7145 0
      vertex 120 22 0
      vertex 121.555 24.6289 0
    endloop
  endfacet
  facet normal 0 0 -1
    outer loop
      vertex 120 3 0
      vertex 121.237 0.572952 0
      vertex 121.088 0.688461 0
    endloop
  endfacet
  facet normal 0 0 -1
    outer loop
      vertex 121.555 24.6289 0
      vertex 120 22 0
      vertex 121.393 24.533 0
    endloop
  endfacet
  facet normal 0 0 -1
    outer loop
      vertex 120 3 0
      vertex 121.088 0.688461 0
      vertex 120.946 0.813095 0
    endloop
  endfacet
  facet normal 0 0 -1
    outer loop
      vertex 121.393 24.533 0
      vertex 120 22 0
      vertex 121.237 24.427 0
    endloop
  endfacet
  facet normal 0 0 -1
    outer loop
      vertex 120 3 0
      vertex 120.946 0.813095 0
      vertex 120.813 0.946365 0
    endloop
  endfacet
  facet normal 0 0 -1
    outer loop
      vertex 121.237 24.427 0
      vertex 120 22 0
      vertex 121.088 24.3115 0
    endloop
  endfacet
  facet normal 0 0 -1
    outer loop
      vertex 120 3 0
      vertex 120.813 0.946365 0
      vertex 120.688 1.08772 0
    endloop
  endfacet
  facet normal 0 0 -1
    outer loop
      vertex 121.088 24.3115 0
      vertex 120 22 0
      vertex 120.946 24.1869 0
    endloop
  endfacet
  facet normal 0 0 -1
    outer loop
      vertex 120 3 0
      vertex 120.688 1.08772 0
      vertex 120.573 1.23665 0
    endloop
  endfacet
  facet normal 0 0 -1
    outer loop
      vertex 120.946 24.1869 0
      vertex 120 22 0
      vertex 120.813 24.0536 0
    endloop
  endfacet
  facet normal 0 0 -1
    outer loop
      vertex 120 3 0
      vertex 120.573 1.23665 0
      vertex 120.467 1.39252 0
    endloop
  endfacet
  facet normal 0 0 -1
    outer loop
      vertex 120.813 24.0536 0
      vertex 120 22 0
      vertex 120.688 23.9123 0
    endloop
  endfacet
  facet normal 0 0 -1
    outer loop
      vertex 120 3 0
      vertex 120.467 1.39252 0
      vertex 120.371 1.55473 0
    endloop
  endfacet
  facet normal 0 0 -1
    outer loop
      vertex 120.688 23.9123 0
      vertex 120 22 0
      vertex 120.573 23.7634 0
    endloop
  endfacet
  facet normal 0 0 -1
    outer loop
      vertex 120 3 0
      vertex 120.371 1.55473 0
      vertex 120.286 1.72266 0
    endloop
  endfacet
  facet normal 0 0 -1
    outer loop
      vertex 120.573 23.7634 0
      vertex 120 22 0
      vertex 120.467 23.6075 0
    endloop
  endfacet
  facet normal 0 0 -1
    outer loop
      vertex 120 3 0
      vertex 120.286 1.72266 0
      vertex 120.211 1.89563 0
    endloop
  endfacet
  facet normal 0 0 -1
    outer loop
      vertex 120.467 23.6075 0
      vertex 120 22 0
      vertex 120.371 23.4453 0
    endloop
  endfacet
  facet normal 0 0 -1
    outer loop
      vertex 120 3 0
      vertex 120.211 1.89563 0
      vertex 120.147 2.07295 0
    endloop
  endfacet
  facet normal 0 0 -1
    outer loop
      vertex 120.371 23.4453 0
      vertex 120 22 0
      vertex 120.286 23.2773 0
    endloop
  endfacet
  facet normal 0 0 -1
    outer loop
      vertex 120 3 0
      vertex 120.147 2.07295 0
      vertex 120.094 2.25394 0
    endloop
  endfacet
  facet normal 0 0 -1
    outer loop
      vertex 120.286 23.2773 0
      vertex 120 22 0
      vertex 120.211 23.1044 0
    endloop
  endfacet
  facet normal 0 0 -1
    outer loop
      vertex 120 3 0
      vertex 120.094 2.25394 0
      vertex 120.053 2.43785 0
    endloop
  endfacet
  facet normal 0 0 -1
    outer loop
      vertex 120.211 23.1044 0
      vertex 120 22 0
      vertex 120.147 22.927 0
    endloop
  endfacet
  facet normal 0 0 -1
    outer loop
      vertex 120 3 0
      vertex 120.053 2.43785 0
      vertex 120.024 2.62399 0
    endloop
  endfacet
  facet normal 0 0 -1
    outer loop
      vertex 120.147 22.927 0
      vertex 120 22 0
      vertex 120.094 22.7461 0
    endloop
  endfacet
  facet normal 0 0 -1
    outer loop
      vertex 120 3 0
      vertex 120.024 2.62399 0
      vertex 120.006 2.81163 0
    endloop
  endfacet
  facet normal 0 0 -1
    outer loop
      vertex 120.094 22.7461 0
      vertex 120 22 0
      vertex 120.053 22.5621 0
    endloop
  endfacet
  facet normal 0 0 -1
    outer loop
      vertex 120.053 22.5621 0
      vertex 120 22 0
      vertex 120.024 22.376 0
    endloop
  endfacet
  facet normal 0 0 -1
    outer loop
      vertex 120.024 22.376 0
      vertex 120 22 0
      vertex 120.006 22.1884 0
    endloop
  endfacet
  facet normal -0.612655 0.790351 0
    outer loop
      vertex 121.237 24.427 0
      vertex 121.088 24.3115 30
      vertex 121.237 24.427 30
    endloop
  endfacet
  facet normal -0.612655 0.790351 0
    outer loop
      vertex 121.088 24.3115 30
      vertex 121.237 24.427 0
      vertex 121.088 24.3115 0
    endloop
  endfacet
  facet normal 0.826956 0.562266 0
    outer loop
      vertex 222.733 23.6075 30
      vertex 222.627 23.7634 0
      vertex 222.627 23.7634 30
    endloop
  endfacet
  facet normal 0.826956 0.562266 0
    outer loop
      vertex 222.627 23.7634 0
      vertex 222.733 23.6075 30
      vertex 222.733 23.6075 0
    endloop
  endfacet
  facet normal -0.860567 0.509337 0
    outer loop
      vertex 120.371 23.4453 0
      vertex 120.467 23.6075 30
      vertex 120.467 23.6075 0
    endloop
  endfacet
  facet normal -0.860567 0.509337 0
    outer loop
      vertex 120.467 23.6075 30
      vertex 120.371 23.4453 0
      vertex 120.371 23.4453 30
    endloop
  endfacet
  facet normal -0.509535 -0.86045 0
    outer loop
      vertex 121.393 0.46701 0
      vertex 121.555 0.371078 30
      vertex 121.393 0.46701 30
    endloop
  endfacet
  facet normal -0.509535 -0.86045 -0
    outer loop
      vertex 121.555 0.371078 30
      vertex 121.393 0.46701 0
      vertex 121.555 0.371078 0
    endloop
  endfacet
  facet normal 0.892217 -0.451607 0
    outer loop
      vertex 222.829 1.55473 30
      vertex 222.914 1.72266 0
      vertex 222.914 1.72266 30
    endloop
  endfacet
  facet normal 0.892217 -0.451607 0
    outer loop
      vertex 222.914 1.72266 0
      vertex 222.829 1.55473 30
      vertex 222.829 1.55473 0
    endloop
  endfacet
  facet normal -0.218502 0.975836 0
    outer loop
      vertex 122.438 24.9469 0
      vertex 122.254 24.9057 30
      vertex 122.438 24.9469 30
    endloop
  endfacet
  facet normal -0.218502 0.975836 0
    outer loop
      vertex 122.254 24.9057 30
      vertex 122.438 24.9469 0
      vertex 122.254 24.9057 0
    endloop
  endfacet
  facet normal -0.56202 0.827124 0
    outer loop
      vertex 121.393 24.533 0
      vertex 121.237 24.427 30
      vertex 121.393 24.533 30
    endloop
  endfacet
  facet normal -0.56202 0.827124 0
    outer loop
      vertex 121.237 24.427 30
      vertex 121.393 24.533 0
      vertex 121.237 24.427 0
    endloop
  endfacet
  facet normal -0.397059 -0.917793 0
    outer loop
      vertex 121.723 0.285522 0
      vertex 121.896 0.210678 30
      vertex 121.723 0.285522 30
    endloop
  endfacet
  facet normal -0.397059 -0.917793 -0
    outer loop
      vertex 121.896 0.210678 30
      vertex 121.723 0.285522 0
      vertex 121.896 0.210678 0
    endloop
  endfacet
  facet normal -0.976039 -0.217593 0
    outer loop
      vertex 120.094 2.25394 0
      vertex 120.053 2.43785 30
      vertex 120.053 2.43785 0
    endloop
  endfacet
  facet normal -0.976039 -0.217593 0
    outer loop
      vertex 120.053 2.43785 30
      vertex 120.094 2.25394 0
      vertex 120.094 2.25394 30
    endloop
  endfacet
  facet normal 0.56202 0.827124 -0
    outer loop
      vertex 221.963 24.427 0
      vertex 221.807 24.533 30
      vertex 221.963 24.427 30
    endloop
  endfacet
  facet normal 0.56202 0.827124 0
    outer loop
      vertex 221.807 24.533 30
      vertex 221.963 24.427 0
      vertex 221.807 24.533 0
    endloop
  endfacet
  facet normal 0.940608 -0.339493 0
    outer loop
      vertex 222.989 1.89563 30
      vertex 223.053 2.07295 0
      vertex 223.053 2.07295 30
    endloop
  endfacet
  facet normal 0.940608 -0.339493 0
    outer loop
      vertex 223.053 2.07295 0
      vertex 222.989 1.89563 30
      vertex 222.989 1.89563 0
    endloop
  endfacet
  facet normal -0.278573 0.960415 0
    outer loop
      vertex 122.254 24.9057 0
      vertex 122.073 24.8532 30
      vertex 122.254 24.9057 30
    endloop
  endfacet
  facet normal -0.278573 0.960415 0
    outer loop
      vertex 122.073 24.8532 30
      vertex 122.254 24.9057 0
      vertex 122.073 24.8532 0
    endloop
  endfacet
  facet normal 0.791437 0.611251 0
    outer loop
      vertex 222.627 23.7634 30
      vertex 222.512 23.9123 0
      vertex 222.512 23.9123 30
    endloop
  endfacet
  facet normal 0.791437 0.611251 0
    outer loop
      vertex 222.512 23.9123 0
      vertex 222.627 23.7634 30
      vertex 222.627 23.7634 0
    endloop
  endfacet
  facet normal -0.748986 0.662585 0
    outer loop
      vertex 120.688 23.9123 0
      vertex 120.813 24.0536 30
      vertex 120.813 24.0536 0
    endloop
  endfacet
  facet normal -0.748986 0.662585 0
    outer loop
      vertex 120.813 24.0536 30
      vertex 120.688 23.9123 0
      vertex 120.688 23.9123 30
    endloop
  endfacet
  facet normal -0.707823 -0.706389 0
    outer loop
      vertex 120.946 0.813095 0
      vertex 120.813 0.946365 30
      vertex 120.813 0.946365 0
    endloop
  endfacet
  facet normal -0.707823 -0.706389 0
    outer loop
      vertex 120.813 0.946365 30
      vertex 120.946 0.813095 0
      vertex 120.946 0.813095 30
    endloop
  endfacet
  facet normal 0.339298 -0.940679 0
    outer loop
      vertex 221.127 0.146835 0
      vertex 221.304 0.210678 30
      vertex 221.127 0.146835 30
    endloop
  endfacet
  facet normal 0.339298 -0.940679 0
    outer loop
      vertex 221.304 0.210678 30
      vertex 221.127 0.146835 0
      vertex 221.304 0.210678 0
    endloop
  endfacet
  facet normal -0.995428 0.0955102 0
    outer loop
      vertex 120.006 22.1884 0
      vertex 120.024 22.376 30
      vertex 120.024 22.376 0
    endloop
  endfacet
  facet normal -0.995428 0.0955102 0
    outer loop
      vertex 120.024 22.376 30
      vertex 120.006 22.1884 0
      vertex 120.006 22.1884 30
    endloop
  endfacet
  facet normal 0.959661 0.281161 0
    outer loop
      vertex 223.106 22.7461 30
      vertex 223.053 22.927 0
      vertex 223.053 22.927 30
    endloop
  endfacet
  facet normal 0.959661 0.281161 0
    outer loop
      vertex 223.053 22.927 0
      vertex 223.106 22.7461 30
      vertex 223.106 22.7461 0
    endloop
  endfacet
  facet normal -0.612684 -0.790328 0
    outer loop
      vertex 121.088 0.688461 0
      vertex 121.237 0.572952 30
      vertex 121.088 0.688461 30
    endloop
  endfacet
  facet normal -0.612684 -0.790328 -0
    outer loop
      vertex 121.237 0.572952 30
      vertex 121.088 0.688461 0
      vertex 121.237 0.572952 0
    endloop
  endfacet
  facet normal -0.707903 0.70631 0
    outer loop
      vertex 120.813 24.0536 0
      vertex 120.946 24.1869 30
      vertex 120.946 24.1869 0
    endloop
  endfacet
  facet normal -0.707903 0.70631 0
    outer loop
      vertex 120.946 24.1869 30
      vertex 120.813 24.0536 0
      vertex 120.813 24.0536 30
    endloop
  endfacet
  facet normal 0.396863 0.917878 -0
    outer loop
      vertex 221.477 24.7145 0
      vertex 221.304 24.7893 30
      vertex 221.477 24.7145 30
    endloop
  endfacet
  facet normal 0.396863 0.917878 0
    outer loop
      vertex 221.304 24.7893 30
      vertex 221.477 24.7145 0
      vertex 221.304 24.7893 0
    endloop
  endfacet
  facet normal 0.707903 0.70631 0
    outer loop
      vertex 222.387 24.0536 30
      vertex 222.254 24.1869 0
      vertex 222.254 24.1869 30
    endloop
  endfacet
  facet normal 0.707903 0.70631 0
    outer loop
      vertex 222.254 24.1869 0
      vertex 222.387 24.0536 30
      vertex 222.387 24.0536 0
    endloop
  endfacet
  facet normal 0.748986 0.662585 0
    outer loop
      vertex 222.512 23.9123 30
      vertex 222.387 24.0536 0
      vertex 222.387 24.0536 30
    endloop
  endfacet
  facet normal 0.748986 0.662585 0
    outer loop
      vertex 222.387 24.0536 0
      vertex 222.512 23.9123 30
      vertex 222.512 23.9123 0
    endloop
  endfacet
  facet normal -0.892293 0.451458 0
    outer loop
      vertex 120.286 23.2773 0
      vertex 120.371 23.4453 30
      vertex 120.371 23.4453 0
    endloop
  endfacet
  facet normal -0.892293 0.451458 0
    outer loop
      vertex 120.371 23.4453 30
      vertex 120.286 23.2773 0
      vertex 120.286 23.2773 30
    endloop
  endfacet
  facet normal -0.826956 0.562266 0
    outer loop
      vertex 120.467 23.6075 0
      vertex 120.573 23.7634 30
      vertex 120.573 23.7634 0
    endloop
  endfacet
  facet normal -0.826956 0.562266 0
    outer loop
      vertex 120.573 23.7634 30
      vertex 120.467 23.6075 0
      vertex 120.467 23.6075 30
    endloop
  endfacet
  facet normal -0.917407 0.39795 0
    outer loop
      vertex 120.211 23.1044 0
      vertex 120.286 23.2773 30
      vertex 120.286 23.2773 0
    endloop
  endfacet
  facet normal -0.917407 0.39795 0
    outer loop
      vertex 120.286 23.2773 30
      vertex 120.211 23.1044 0
      vertex 120.211 23.1044 30
    endloop
  endfacet
  facet normal -0.940657 0.339358 0
    outer loop
      vertex 120.147 22.927 0
      vertex 120.211 23.1044 30
      vertex 120.211 23.1044 0
    endloop
  endfacet
  facet normal -0.940657 0.339358 0
    outer loop
      vertex 120.211 23.1044 30
      vertex 120.147 22.927 0
      vertex 120.147 22.927 30
    endloop
  endfacet
endsolid OpenSCAD_Model
