solid OpenSCAD_Model
  facet normal -1 0 0
    outer loop
      vertex 35 -9 2.99
      vertex 35 9 12.01
      vertex 35 9 2.99
    endloop
  endfacet
  facet normal -1 -0 0
    outer loop
      vertex 35 9 12.01
      vertex 35 -9 2.99
      vertex 35 -9 12.01
    endloop
  endfacet
  facet normal 0 0 -1
    outer loop
      vertex -17 -2 12.01
      vertex 35 -9 12.01
      vertex -17 -9 12.01
    endloop
  endfacet
  facet normal 0 0 -1
    outer loop
      vertex 35 -9 12.01
      vertex -17 -2 12.01
      vertex 35 9 12.01
    endloop
  endfacet
  facet normal 0 0 -1
    outer loop
      vertex -35 9 12.01
      vertex -17 -2 12.01
      vertex -35 -2 12.01
    endloop
  endfacet
  facet normal 0 0 -1
    outer loop
      vertex -17 -2 12.01
      vertex -35 9 12.01
      vertex 35 9 12.01
    endloop
  endfacet
  facet normal -0 0 1
    outer loop
      vertex -35 9 2.99
      vertex 35 -9 2.99
      vertex 35 9 2.99
    endloop
  endfacet
  facet normal 0 0 1
    outer loop
      vertex 35 -9 2.99
      vertex -35 9 2.99
      vertex -35 -9 2.99
    endloop
  endfacet
  facet normal 1 0 0
    outer loop
      vertex -35 -2 24.8
      vertex -35 -9 24.8
      vertex -35 -2 12.01
    endloop
  endfacet
  facet normal 1 -0 0
    outer loop
      vertex -35 -2 12.01
      vertex -35 9 2.99
      vertex -35 9 12.01
    endloop
  endfacet
  facet normal 1 0 0
    outer loop
      vertex -35 -2 12.01
      vertex -35 -9 2.99
      vertex -35 9 2.99
    endloop
  endfacet
  facet normal 1 0 0
    outer loop
      vertex -35 -9 2.99
      vertex -35 -2 12.01
      vertex -35 -9 24.8
    endloop
  endfacet
  facet normal 0 -1 0
    outer loop
      vertex -35 9 2.99
      vertex 35 9 12.01
      vertex -35 9 12.01
    endloop
  endfacet
  facet normal 0 -1 -0
    outer loop
      vertex 35 9 12.01
      vertex -35 9 2.99
      vertex 35 9 2.99
    endloop
  endfacet
  facet normal 0 1 0
    outer loop
      vertex 35 -9 12.01
      vertex 35 -9 2.99
      vertex -17 -9 12.01
    endloop
  endfacet
  facet normal 0 1 -0
    outer loop
      vertex -17 -9 12.01
      vertex -35 -9 24.8
      vertex -17 -9 24.8
    endloop
  endfacet
  facet normal 0 1 0
    outer loop
      vertex -17 -9 12.01
      vertex -35 -9 2.99
      vertex -35 -9 24.8
    endloop
  endfacet
  facet normal 0 1 0
    outer loop
      vertex -35 -9 2.99
      vertex -17 -9 12.01
      vertex 35 -9 2.99
    endloop
  endfacet
  facet normal -1 0 0
    outer loop
      vertex -17 -9 12.01
      vertex -17 -2 24.8
      vertex -17 -2 12.01
    endloop
  endfacet
  facet normal -1 -0 0
    outer loop
      vertex -17 -2 24.8
      vertex -17 -9 12.01
      vertex -17 -9 24.8
    endloop
  endfacet
  facet normal 0 -1 0
    outer loop
      vertex -35 -2 12.01
      vertex -17 -2 24.8
      vertex -35 -2 24.8
    endloop
  endfacet
  facet normal 0 -1 -0
    outer loop
      vertex -17 -2 24.8
      vertex -35 -2 12.01
      vertex -17 -2 12.01
    endloop
  endfacet
  facet normal 1 -0 0
    outer loop
      vertex 41.75 -20.75 24.8
      vertex 41.75 20.75 0
      vertex 41.75 20.75 24.8
    endloop
  endfacet
  facet normal 1 0 0
    outer loop
      vertex 41.75 20.75 0
      vertex 41.75 -20.75 24.8
      vertex 41.75 -20.75 0
    endloop
  endfacet
  facet normal 0 0 1
    outer loop
      vertex 41.75 20.75 24.8
      vertex -17 -2 24.8
      vertex 41.75 -20.75 24.8
    endloop
  endfacet
  facet normal -0 0 1
    outer loop
      vertex -41.75 20.75 24.8
      vertex -17 -2 24.8
      vertex 41.75 20.75 24.8
    endloop
  endfacet
  facet normal 0 0 1
    outer loop
      vertex -41.75 -20.75 24.8
      vertex -35 -2 24.8
      vertex -41.75 20.75 24.8
    endloop
  endfacet
  facet normal 0 0 1
    outer loop
      vertex -17 -2 24.8
      vertex -41.75 20.75 24.8
      vertex -35 -2 24.8
    endloop
  endfacet
  facet normal -0 0 1
    outer loop
      vertex -17 -9 24.8
      vertex 41.75 -20.75 24.8
      vertex -17 -2 24.8
    endloop
  endfacet
  facet normal 0 0 1
    outer loop
      vertex -41.75 -20.75 24.8
      vertex -17 -9 24.8
      vertex -35 -9 24.8
    endloop
  endfacet
  facet normal 0 0 1
    outer loop
      vertex -17 -9 24.8
      vertex -41.75 -20.75 24.8
      vertex 41.75 -20.75 24.8
    endloop
  endfacet
  facet normal 0 0 1
    outer loop
      vertex -35 -2 24.8
      vertex -41.75 -20.75 24.8
      vertex -35 -9 24.8
    endloop
  endfacet
  facet normal 0 0 -1
    outer loop
      vertex -41.75 -20.75 0
      vertex 41.75 20.75 0
      vertex 41.75 -20.75 0
    endloop
  endfacet
  facet normal -0 0 -1
    outer loop
      vertex 41.75 20.75 0
      vertex -41.75 -20.75 0
      vertex -41.75 20.75 0
    endloop
  endfacet
  facet normal -1 0 0
    outer loop
      vertex -41.75 -20.75 0
      vertex -41.75 20.75 24.8
      vertex -41.75 20.75 0
    endloop
  endfacet
  facet normal -1 -0 0
    outer loop
      vertex -41.75 20.75 24.8
      vertex -41.75 -20.75 0
      vertex -41.75 -20.75 24.8
    endloop
  endfacet
  facet normal 0 1 -0
    outer loop
      vertex 41.75 20.75 0
      vertex -41.75 20.75 24.8
      vertex 41.75 20.75 24.8
    endloop
  endfacet
  facet normal 0 1 0
    outer loop
      vertex -41.75 20.75 24.8
      vertex 41.75 20.75 0
      vertex -41.75 20.75 0
    endloop
  endfacet
  facet normal 0 -1 0
    outer loop
      vertex -41.75 -20.75 0
      vertex 41.75 -20.75 24.8
      vertex -41.75 -20.75 24.8
    endloop
  endfacet
  facet normal 0 -1 -0
    outer loop
      vertex 41.75 -20.75 24.8
      vertex -41.75 -20.75 0
      vertex 41.75 -20.75 0
    endloop
  endfacet
endsolid OpenSCAD_Model
