solid OpenSCAD_Model
  facet normal 1 -0 0
    outer loop
      vertex 33 0 4.6
      vertex 33 27.5 0
      vertex 33 27.5 4.6
    endloop
  endfacet
  facet normal 1 0 0
    outer loop
      vertex 33 27.5 0
      vertex 33 0 4.6
      vertex 33 0 0
    endloop
  endfacet
  facet normal 0 1 -0
    outer loop
      vertex 27.5 33 0
      vertex 0 33 4.6
      vertex 27.5 33 4.6
    endloop
  endfacet
  facet normal 0 1 0
    outer loop
      vertex 0 33 4.6
      vertex 27.5 33 0
      vertex 0 33 0
    endloop
  endfacet
  facet normal 0 0 1
    outer loop
      vertex 28.5 53.5 4.6
      vertex 37.5 53.5 4.6
      vertex 37.4135 54.3779 4.6
    endloop
  endfacet
  facet normal 0 0 1
    outer loop
      vertex 57.9135 33.8779 4.6
      vertex 57.9135 32.1221 4.6
      vertex 58 33 4.6
    endloop
  endfacet
  facet normal 0 0 1
    outer loop
      vertex 57.6575 34.7221 4.6
      vertex 57.9135 32.1221 4.6
      vertex 57.9135 33.8779 4.6
    endloop
  endfacet
  facet normal 0 0 1
    outer loop
      vertex 57.6575 34.7221 4.6
      vertex 57.6575 31.2779 4.6
      vertex 57.9135 32.1221 4.6
    endloop
  endfacet
  facet normal 0 0 1
    outer loop
      vertex 57.2416 35.5001 4.6
      vertex 57.6575 31.2779 4.6
      vertex 57.6575 34.7221 4.6
    endloop
  endfacet
  facet normal 0 0 1
    outer loop
      vertex 57.2416 35.5001 4.6
      vertex 57.2416 30.4999 4.6
      vertex 57.6575 31.2779 4.6
    endloop
  endfacet
  facet normal 0 0 1
    outer loop
      vertex 56.682 36.182 4.6
      vertex 57.2416 30.4999 4.6
      vertex 57.2416 35.5001 4.6
    endloop
  endfacet
  facet normal 0 0 1
    outer loop
      vertex 56.682 36.182 4.6
      vertex 56.682 29.818 4.6
      vertex 57.2416 30.4999 4.6
    endloop
  endfacet
  facet normal 0 0 1
    outer loop
      vertex 56.0001 36.7416 4.6
      vertex 56.682 29.818 4.6
      vertex 56.682 36.182 4.6
    endloop
  endfacet
  facet normal 0 0 1
    outer loop
      vertex 56.0001 36.7416 4.6
      vertex 56.0001 29.2584 4.6
      vertex 56.682 29.818 4.6
    endloop
  endfacet
  facet normal 0 0 1
    outer loop
      vertex 55.2221 37.1575 4.6
      vertex 56.0001 29.2584 4.6
      vertex 56.0001 36.7416 4.6
    endloop
  endfacet
  facet normal 0 0 1
    outer loop
      vertex 55.2221 37.1575 4.6
      vertex 55.2221 28.8425 4.6
      vertex 56.0001 29.2584 4.6
    endloop
  endfacet
  facet normal 0 0 1
    outer loop
      vertex 54.3779 37.4135 4.6
      vertex 55.2221 28.8425 4.6
      vertex 55.2221 37.1575 4.6
    endloop
  endfacet
  facet normal 0 0 1
    outer loop
      vertex 54.3779 37.4135 4.6
      vertex 54.3779 28.5865 4.6
      vertex 55.2221 28.8425 4.6
    endloop
  endfacet
  facet normal 0 0 1
    outer loop
      vertex 53.5 37.5 4.6
      vertex 54.3779 28.5865 4.6
      vertex 54.3779 37.4135 4.6
    endloop
  endfacet
  facet normal 0 0 1
    outer loop
      vertex 53.5 37.5 4.6
      vertex 53.5 28.5 4.6
      vertex 54.3779 28.5865 4.6
    endloop
  endfacet
  facet normal -0 0 1
    outer loop
      vertex 37.5 37.5 4.6
      vertex 53.5 28.5 4.6
      vertex 53.5 37.5 4.6
    endloop
  endfacet
  facet normal 0 0 1
    outer loop
      vertex 28.5 53.5 4.6
      vertex 37.4135 54.3779 4.6
      vertex 37.1575 55.2221 4.6
    endloop
  endfacet
  facet normal 0 0 1
    outer loop
      vertex 28.5 53.5 4.6
      vertex 37.1575 55.2221 4.6
      vertex 36.7416 56.0001 4.6
    endloop
  endfacet
  facet normal 0 0 1
    outer loop
      vertex 28.5 53.5 4.6
      vertex 36.7416 56.0001 4.6
      vertex 36.182 56.682 4.6
    endloop
  endfacet
  facet normal 0 0 1
    outer loop
      vertex 37.5 37.5 4.6
      vertex 36.1447 28.5 4.6
      vertex 53.5 28.5 4.6
    endloop
  endfacet
  facet normal 0 0 1
    outer loop
      vertex 37.5 53.5 4.6
      vertex 28.5 53.5 4.6
      vertex 37.5 37.5 4.6
    endloop
  endfacet
  facet normal 0 0 1
    outer loop
      vertex 37.5 37.5 4.6
      vertex 28.5 36.1447 4.6
      vertex 36.1447 28.5 4.6
    endloop
  endfacet
  facet normal 0 0 1
    outer loop
      vertex 28.5 53.5 4.6
      vertex 36.182 56.682 4.6
      vertex 35.5001 57.2416 4.6
    endloop
  endfacet
  facet normal 0 -0 1
    outer loop
      vertex 35.1048 27.9187 4.6
      vertex 36.1447 28.5 4.6
      vertex 28.5 36.1447 4.6
    endloop
  endfacet
  facet normal 0 0 1
    outer loop
      vertex 28.5 53.5 4.6
      vertex 35.5001 57.2416 4.6
      vertex 34.7221 57.6575 4.6
    endloop
  endfacet
  facet normal 0 0 1
    outer loop
      vertex 36.1447 28.5 4.6
      vertex 35.1048 27.9187 4.6
      vertex 36.0556 28.4269 4.6
    endloop
  endfacet
  facet normal 0 0 1
    outer loop
      vertex 28.5 53.5 4.6
      vertex 34.7221 57.6575 4.6
      vertex 33.8779 57.9135 4.6
    endloop
  endfacet
  facet normal 0 0 1
    outer loop
      vertex 28.5 53.5 4.6
      vertex 33.8779 57.9135 4.6
      vertex 33 58 4.6
    endloop
  endfacet
  facet normal 0 0 1
    outer loop
      vertex 35.1048 27.9187 4.6
      vertex 28.5 36.1447 4.6
      vertex 34.073 27.6057 4.6
    endloop
  endfacet
  facet normal 0 0 1
    outer loop
      vertex 34.073 27.6057 4.6
      vertex 28.5 36.1447 4.6
      vertex 33 27.5 4.6
    endloop
  endfacet
  facet normal 0 0 1
    outer loop
      vertex 28.5 53.5 4.6
      vertex 33 58 4.6
      vertex 32.1221 57.9135 4.6
    endloop
  endfacet
  facet normal 0 0 1
    outer loop
      vertex 28.5 53.5 4.6
      vertex 32.1221 57.9135 4.6
      vertex 31.2779 57.6575 4.6
    endloop
  endfacet
  facet normal 0 0 1
    outer loop
      vertex 28.5 53.5 4.6
      vertex 31.2779 57.6575 4.6
      vertex 30.4999 57.2416 4.6
    endloop
  endfacet
  facet normal 0 0 1
    outer loop
      vertex 28.5 53.5 4.6
      vertex 30.4999 57.2416 4.6
      vertex 29.818 56.682 4.6
    endloop
  endfacet
  facet normal 0 0 1
    outer loop
      vertex 28.5 53.5 4.6
      vertex 29.818 56.682 4.6
      vertex 29.2584 56.0001 4.6
    endloop
  endfacet
  facet normal 0 0 1
    outer loop
      vertex 28.5 53.5 4.6
      vertex 29.2584 56.0001 4.6
      vertex 28.8425 55.2221 4.6
    endloop
  endfacet
  facet normal 0 0 1
    outer loop
      vertex 28.5 53.5 4.6
      vertex 28.8425 55.2221 4.6
      vertex 28.5865 54.3779 4.6
    endloop
  endfacet
  facet normal 0 0 1
    outer loop
      vertex 37.5 37.5 4.6
      vertex 28.5 53.5 4.6
      vertex 28.5 36.1447 4.6
    endloop
  endfacet
  facet normal -0 0 1
    outer loop
      vertex 27.5 33 4.6
      vertex 33 27.5 4.6
      vertex 28.5 36.1447 4.6
    endloop
  endfacet
  facet normal 0 0 1
    outer loop
      vertex 27.9187 35.1048 4.6
      vertex 28.5 36.1447 4.6
      vertex 28.4269 36.0556 4.6
    endloop
  endfacet
  facet normal 0 0 1
    outer loop
      vertex 28.5 36.1447 4.6
      vertex 27.9187 35.1048 4.6
      vertex 27.5 33 4.6
    endloop
  endfacet
  facet normal 0 0 1
    outer loop
      vertex 27.5 33 4.6
      vertex 27.9187 35.1048 4.6
      vertex 27.6057 34.073 4.6
    endloop
  endfacet
  facet normal 0 0 1
    outer loop
      vertex 0 0 4.6
      vertex 33 27.5 4.6
      vertex 27.5 33 4.6
    endloop
  endfacet
  facet normal 0 0 1
    outer loop
      vertex 0 0 4.6
      vertex 27.5 33 4.6
      vertex 0 33 4.6
    endloop
  endfacet
  facet normal 0 0 1
    outer loop
      vertex 33 27.5 4.6
      vertex 0 0 4.6
      vertex 33 0 4.6
    endloop
  endfacet
  facet normal 0 0 -1
    outer loop
      vertex 0 0 0
      vertex 33 27.5 0
      vertex 33 0 0
    endloop
  endfacet
  facet normal 0 0 -1
    outer loop
      vertex 33 27.5 0
      vertex 28.5 36.1447 0
      vertex 32.1221 57.9135 0
    endloop
  endfacet
  facet normal 0 0 -1
    outer loop
      vertex 28.5 53.5 0
      vertex 32.1221 57.9135 0
      vertex 28.5 36.1447 0
    endloop
  endfacet
  facet normal 0 0 -1
    outer loop
      vertex 32.1221 57.9135 0
      vertex 28.5 53.5 0
      vertex 31.2779 57.6575 0
    endloop
  endfacet
  facet normal 0 0 -1
    outer loop
      vertex 31.2779 57.6575 0
      vertex 28.5 53.5 0
      vertex 30.4999 57.2416 0
    endloop
  endfacet
  facet normal 0 0 -1
    outer loop
      vertex 30.4999 57.2416 0
      vertex 28.5 53.5 0
      vertex 29.818 56.682 0
    endloop
  endfacet
  facet normal 0 0 -1
    outer loop
      vertex 29.818 56.682 0
      vertex 28.5 53.5 0
      vertex 29.2584 56.0001 0
    endloop
  endfacet
  facet normal 0 0 -1
    outer loop
      vertex 29.2584 56.0001 0
      vertex 28.5 53.5 0
      vertex 28.8425 55.2221 0
    endloop
  endfacet
  facet normal 0 0 -1
    outer loop
      vertex 33 27.5 0
      vertex 27.5 33 0
      vertex 28.5 36.1447 0
    endloop
  endfacet
  facet normal 0 -0 -1
    outer loop
      vertex 27.9187 35.1048 0
      vertex 28.5 36.1447 0
      vertex 27.5 33 0
    endloop
  endfacet
  facet normal 0 0 -1
    outer loop
      vertex 28.5 36.1447 0
      vertex 27.9187 35.1048 0
      vertex 28.4269 36.0556 0
    endloop
  endfacet
  facet normal 0 0 -1
    outer loop
      vertex 27.9187 35.1048 0
      vertex 27.5 33 0
      vertex 27.6057 34.073 0
    endloop
  endfacet
  facet normal -0 0 -1
    outer loop
      vertex 33 27.5 0
      vertex 0 0 0
      vertex 27.5 33 0
    endloop
  endfacet
  facet normal -0 0 -1
    outer loop
      vertex 27.5 33 0
      vertex 0 0 0
      vertex 0 33 0
    endloop
  endfacet
  facet normal 0 0 -1
    outer loop
      vertex 57.9135 32.1221 0
      vertex 57.9135 33.8779 0
      vertex 58 33 0
    endloop
  endfacet
  facet normal 0 0 -1
    outer loop
      vertex 57.6575 31.2779 0
      vertex 57.9135 33.8779 0
      vertex 57.9135 32.1221 0
    endloop
  endfacet
  facet normal 0 0 -1
    outer loop
      vertex 57.6575 31.2779 0
      vertex 57.6575 34.7221 0
      vertex 57.9135 33.8779 0
    endloop
  endfacet
  facet normal 0 0 -1
    outer loop
      vertex 57.2416 30.4999 0
      vertex 57.6575 34.7221 0
      vertex 57.6575 31.2779 0
    endloop
  endfacet
  facet normal 0 0 -1
    outer loop
      vertex 57.2416 30.4999 0
      vertex 57.2416 35.5001 0
      vertex 57.6575 34.7221 0
    endloop
  endfacet
  facet normal 0 0 -1
    outer loop
      vertex 56.682 29.818 0
      vertex 57.2416 35.5001 0
      vertex 57.2416 30.4999 0
    endloop
  endfacet
  facet normal 0 0 -1
    outer loop
      vertex 56.682 29.818 0
      vertex 56.682 36.182 0
      vertex 57.2416 35.5001 0
    endloop
  endfacet
  facet normal 0 0 -1
    outer loop
      vertex 56.0001 29.2584 0
      vertex 56.682 36.182 0
      vertex 56.682 29.818 0
    endloop
  endfacet
  facet normal 0 0 -1
    outer loop
      vertex 56.0001 29.2584 0
      vertex 56.0001 36.7416 0
      vertex 56.682 36.182 0
    endloop
  endfacet
  facet normal 0 0 -1
    outer loop
      vertex 55.2221 28.8425 0
      vertex 56.0001 36.7416 0
      vertex 56.0001 29.2584 0
    endloop
  endfacet
  facet normal 0 0 -1
    outer loop
      vertex 55.2221 28.8425 0
      vertex 55.2221 37.1575 0
      vertex 56.0001 36.7416 0
    endloop
  endfacet
  facet normal 0 0 -1
    outer loop
      vertex 54.3779 28.5865 0
      vertex 55.2221 37.1575 0
      vertex 55.2221 28.8425 0
    endloop
  endfacet
  facet normal 0 0 -1
    outer loop
      vertex 54.3779 28.5865 0
      vertex 54.3779 37.4135 0
      vertex 55.2221 37.1575 0
    endloop
  endfacet
  facet normal 0 0 -1
    outer loop
      vertex 53.5 28.5 0
      vertex 54.3779 37.4135 0
      vertex 54.3779 28.5865 0
    endloop
  endfacet
  facet normal 0 0 -1
    outer loop
      vertex 53.5 28.5 0
      vertex 53.5 37.5 0
      vertex 54.3779 37.4135 0
    endloop
  endfacet
  facet normal 0 0 -1
    outer loop
      vertex 53.5 28.5 0
      vertex 37.5 37.5 0
      vertex 53.5 37.5 0
    endloop
  endfacet
  facet normal 0 0 -1
    outer loop
      vertex 32.1221 57.9135 0
      vertex 37.5 53.5 0
      vertex 37.5 37.5 0
    endloop
  endfacet
  facet normal 0 0 -1
    outer loop
      vertex 37.5 53.5 0
      vertex 32.1221 57.9135 0
      vertex 37.4135 54.3779 0
    endloop
  endfacet
  facet normal 0 0 -1
    outer loop
      vertex 37.4135 54.3779 0
      vertex 32.1221 57.9135 0
      vertex 37.1575 55.2221 0
    endloop
  endfacet
  facet normal 0 0 -1
    outer loop
      vertex 37.1575 55.2221 0
      vertex 32.1221 57.9135 0
      vertex 36.7416 56.0001 0
    endloop
  endfacet
  facet normal 0 0 -1
    outer loop
      vertex 36.1447 28.5 0
      vertex 37.5 37.5 0
      vertex 53.5 28.5 0
    endloop
  endfacet
  facet normal 0 0 -1
    outer loop
      vertex 33 27.5 0
      vertex 37.5 37.5 0
      vertex 36.1447 28.5 0
    endloop
  endfacet
  facet normal 0 0 -1
    outer loop
      vertex 35.1048 27.9187 0
      vertex 36.1447 28.5 0
      vertex 36.0556 28.4269 0
    endloop
  endfacet
  facet normal 0 0 -1
    outer loop
      vertex 32.1221 57.9135 0
      vertex 37.5 37.5 0
      vertex 33 27.5 0
    endloop
  endfacet
  facet normal 0 0 -1
    outer loop
      vertex 36.1447 28.5 0
      vertex 35.1048 27.9187 0
      vertex 33 27.5 0
    endloop
  endfacet
  facet normal 0 0 -1
    outer loop
      vertex 36.7416 56.0001 0
      vertex 32.1221 57.9135 0
      vertex 36.182 56.682 0
    endloop
  endfacet
  facet normal 0 0 -1
    outer loop
      vertex 33 27.5 0
      vertex 35.1048 27.9187 0
      vertex 34.073 27.6057 0
    endloop
  endfacet
  facet normal 0 0 -1
    outer loop
      vertex 35.5001 57.2416 0
      vertex 32.1221 57.9135 0
      vertex 34.7221 57.6575 0
    endloop
  endfacet
  facet normal 0 0 -1
    outer loop
      vertex 34.7221 57.6575 0
      vertex 32.1221 57.9135 0
      vertex 33.8779 57.9135 0
    endloop
  endfacet
  facet normal 0 0 -1
    outer loop
      vertex 36.182 56.682 0
      vertex 32.1221 57.9135 0
      vertex 35.5001 57.2416 0
    endloop
  endfacet
  facet normal 0 0 -1
    outer loop
      vertex 33.8779 57.9135 0
      vertex 32.1221 57.9135 0
      vertex 33 58 0
    endloop
  endfacet
  facet normal 0 0 -1
    outer loop
      vertex 28.8425 55.2221 0
      vertex 28.5 53.5 0
      vertex 28.5865 54.3779 0
    endloop
  endfacet
  facet normal 0.290196 0.956967 -0
    outer loop
      vertex 55.2221 37.1575 0
      vertex 54.3779 37.4135 4.6
      vertex 55.2221 37.1575 4.6
    endloop
  endfacet
  facet normal 0.290196 0.956967 0
    outer loop
      vertex 54.3779 37.4135 4.6
      vertex 55.2221 37.1575 0
      vertex 54.3779 37.4135 0
    endloop
  endfacet
  facet normal 0 1 -0
    outer loop
      vertex 53.5 37.5 0
      vertex 37.5 37.5 4.6
      vertex 53.5 37.5 4.6
    endloop
  endfacet
  facet normal 0 1 0
    outer loop
      vertex 37.5 37.5 4.6
      vertex 53.5 37.5 0
      vertex 37.5 37.5 0
    endloop
  endfacet
  facet normal 0.471441 0.881898 -0
    outer loop
      vertex 56.0001 36.7416 0
      vertex 55.2221 37.1575 4.6
      vertex 56.0001 36.7416 4.6
    endloop
  endfacet
  facet normal 0.471441 0.881898 0
    outer loop
      vertex 55.2221 37.1575 4.6
      vertex 56.0001 36.7416 0
      vertex 55.2221 37.1575 0
    endloop
  endfacet
  facet normal 0.0980558 0.995181 -0
    outer loop
      vertex 54.3779 37.4135 0
      vertex 53.5 37.5 4.6
      vertex 54.3779 37.4135 4.6
    endloop
  endfacet
  facet normal 0.0980558 0.995181 0
    outer loop
      vertex 53.5 37.5 4.6
      vertex 54.3779 37.4135 0
      vertex 53.5 37.5 0
    endloop
  endfacet
  facet normal 0 -1 0
    outer loop
      vertex 36.1447 28.5 0
      vertex 53.5 28.5 4.6
      vertex 36.1447 28.5 4.6
    endloop
  endfacet
  facet normal 0 -1 -0
    outer loop
      vertex 53.5 28.5 4.6
      vertex 36.1447 28.5 0
      vertex 53.5 28.5 0
    endloop
  endfacet
  facet normal 0.0980558 -0.995181 0
    outer loop
      vertex 53.5 28.5 0
      vertex 54.3779 28.5865 4.6
      vertex 53.5 28.5 4.6
    endloop
  endfacet
  facet normal 0.0980558 -0.995181 0
    outer loop
      vertex 54.3779 28.5865 4.6
      vertex 53.5 28.5 0
      vertex 54.3779 28.5865 0
    endloop
  endfacet
  facet normal 0.634379 0.773022 -0
    outer loop
      vertex 56.682 36.182 0
      vertex 56.0001 36.7416 4.6
      vertex 56.682 36.182 4.6
    endloop
  endfacet
  facet normal 0.634379 0.773022 0
    outer loop
      vertex 56.0001 36.7416 4.6
      vertex 56.682 36.182 0
      vertex 56.0001 36.7416 0
    endloop
  endfacet
  facet normal 0.773022 0.634379 0
    outer loop
      vertex 57.2416 35.5001 4.6
      vertex 56.682 36.182 0
      vertex 56.682 36.182 4.6
    endloop
  endfacet
  facet normal 0.773022 0.634379 0
    outer loop
      vertex 56.682 36.182 0
      vertex 57.2416 35.5001 4.6
      vertex 57.2416 35.5001 0
    endloop
  endfacet
  facet normal 0.956967 -0.290196 0
    outer loop
      vertex 57.6575 31.2779 4.6
      vertex 57.9135 32.1221 0
      vertex 57.9135 32.1221 4.6
    endloop
  endfacet
  facet normal 0.956967 -0.290196 0
    outer loop
      vertex 57.9135 32.1221 0
      vertex 57.6575 31.2779 4.6
      vertex 57.6575 31.2779 0
    endloop
  endfacet
  facet normal 0.956967 0.290196 0
    outer loop
      vertex 57.9135 33.8779 4.6
      vertex 57.6575 34.7221 0
      vertex 57.6575 34.7221 4.6
    endloop
  endfacet
  facet normal 0.956967 0.290196 0
    outer loop
      vertex 57.6575 34.7221 0
      vertex 57.9135 33.8779 4.6
      vertex 57.9135 33.8779 0
    endloop
  endfacet
  facet normal 0.290196 -0.956967 0
    outer loop
      vertex 54.3779 28.5865 0
      vertex 55.2221 28.8425 4.6
      vertex 54.3779 28.5865 4.6
    endloop
  endfacet
  facet normal 0.290196 -0.956967 0
    outer loop
      vertex 55.2221 28.8425 4.6
      vertex 54.3779 28.5865 0
      vertex 55.2221 28.8425 0
    endloop
  endfacet
  facet normal 0.773022 -0.634379 0
    outer loop
      vertex 56.682 29.818 4.6
      vertex 57.2416 30.4999 0
      vertex 57.2416 30.4999 4.6
    endloop
  endfacet
  facet normal 0.773022 -0.634379 0
    outer loop
      vertex 57.2416 30.4999 0
      vertex 56.682 29.818 4.6
      vertex 56.682 29.818 0
    endloop
  endfacet
  facet normal 0.881898 -0.471441 0
    outer loop
      vertex 57.2416 30.4999 4.6
      vertex 57.6575 31.2779 0
      vertex 57.6575 31.2779 4.6
    endloop
  endfacet
  facet normal 0.881898 -0.471441 0
    outer loop
      vertex 57.6575 31.2779 0
      vertex 57.2416 30.4999 4.6
      vertex 57.2416 30.4999 0
    endloop
  endfacet
  facet normal 0.881898 0.471441 0
    outer loop
      vertex 57.6575 34.7221 4.6
      vertex 57.2416 35.5001 0
      vertex 57.2416 35.5001 4.6
    endloop
  endfacet
  facet normal 0.881898 0.471441 0
    outer loop
      vertex 57.2416 35.5001 0
      vertex 57.6575 34.7221 4.6
      vertex 57.6575 34.7221 0
    endloop
  endfacet
  facet normal 0.634379 -0.773022 0
    outer loop
      vertex 56.0001 29.2584 0
      vertex 56.682 29.818 4.6
      vertex 56.0001 29.2584 4.6
    endloop
  endfacet
  facet normal 0.634379 -0.773022 0
    outer loop
      vertex 56.682 29.818 4.6
      vertex 56.0001 29.2584 0
      vertex 56.682 29.818 0
    endloop
  endfacet
  facet normal 0.471441 -0.881898 0
    outer loop
      vertex 55.2221 28.8425 0
      vertex 56.0001 29.2584 4.6
      vertex 55.2221 28.8425 4.6
    endloop
  endfacet
  facet normal 0.471441 -0.881898 0
    outer loop
      vertex 56.0001 29.2584 4.6
      vertex 55.2221 28.8425 0
      vertex 56.0001 29.2584 0
    endloop
  endfacet
  facet normal 0.995181 -0.0980558 0
    outer loop
      vertex 57.9135 32.1221 4.6
      vertex 58 33 0
      vertex 58 33 4.6
    endloop
  endfacet
  facet normal 0.995181 -0.0980558 0
    outer loop
      vertex 58 33 0
      vertex 57.9135 32.1221 4.6
      vertex 57.9135 32.1221 0
    endloop
  endfacet
  facet normal 0.995181 0.0980558 0
    outer loop
      vertex 58 33 4.6
      vertex 57.9135 33.8779 0
      vertex 57.9135 33.8779 4.6
    endloop
  endfacet
  facet normal 0.995181 0.0980558 0
    outer loop
      vertex 57.9135 33.8779 0
      vertex 58 33 4.6
      vertex 58 33 0
    endloop
  endfacet
  facet normal 0.634379 0.773022 -0
    outer loop
      vertex 36.182 56.682 0
      vertex 35.5001 57.2416 4.6
      vertex 36.182 56.682 4.6
    endloop
  endfacet
  facet normal 0.634379 0.773022 0
    outer loop
      vertex 35.5001 57.2416 4.6
      vertex 36.182 56.682 0
      vertex 35.5001 57.2416 0
    endloop
  endfacet
  facet normal -0.290196 0.956967 0
    outer loop
      vertex 32.1221 57.9135 0
      vertex 31.2779 57.6575 4.6
      vertex 32.1221 57.9135 4.6
    endloop
  endfacet
  facet normal -0.290196 0.956967 0
    outer loop
      vertex 31.2779 57.6575 4.6
      vertex 32.1221 57.9135 0
      vertex 31.2779 57.6575 0
    endloop
  endfacet
  facet normal -0.634379 0.773022 0
    outer loop
      vertex 30.4999 57.2416 0
      vertex 29.818 56.682 4.6
      vertex 30.4999 57.2416 4.6
    endloop
  endfacet
  facet normal -0.634379 0.773022 0
    outer loop
      vertex 29.818 56.682 4.6
      vertex 30.4999 57.2416 0
      vertex 29.818 56.682 0
    endloop
  endfacet
  facet normal 0.995181 0.0980558 0
    outer loop
      vertex 37.5 53.5 4.6
      vertex 37.4135 54.3779 0
      vertex 37.4135 54.3779 4.6
    endloop
  endfacet
  facet normal 0.995181 0.0980558 0
    outer loop
      vertex 37.4135 54.3779 0
      vertex 37.5 53.5 4.6
      vertex 37.5 53.5 0
    endloop
  endfacet
  facet normal 0.290196 0.956967 -0
    outer loop
      vertex 34.7221 57.6575 0
      vertex 33.8779 57.9135 4.6
      vertex 34.7221 57.6575 4.6
    endloop
  endfacet
  facet normal 0.290196 0.956967 0
    outer loop
      vertex 33.8779 57.9135 4.6
      vertex 34.7221 57.6575 0
      vertex 33.8779 57.9135 0
    endloop
  endfacet
  facet normal -0.881898 0.471441 0
    outer loop
      vertex 28.8425 55.2221 0
      vertex 29.2584 56.0001 4.6
      vertex 29.2584 56.0001 0
    endloop
  endfacet
  facet normal -0.881898 0.471441 0
    outer loop
      vertex 29.2584 56.0001 4.6
      vertex 28.8425 55.2221 0
      vertex 28.8425 55.2221 4.6
    endloop
  endfacet
  facet normal 0.956967 0.290196 0
    outer loop
      vertex 37.4135 54.3779 4.6
      vertex 37.1575 55.2221 0
      vertex 37.1575 55.2221 4.6
    endloop
  endfacet
  facet normal 0.956967 0.290196 0
    outer loop
      vertex 37.1575 55.2221 0
      vertex 37.4135 54.3779 4.6
      vertex 37.4135 54.3779 0
    endloop
  endfacet
  facet normal 0.0980558 0.995181 -0
    outer loop
      vertex 33.8779 57.9135 0
      vertex 33 58 4.6
      vertex 33.8779 57.9135 4.6
    endloop
  endfacet
  facet normal 0.0980558 0.995181 0
    outer loop
      vertex 33 58 4.6
      vertex 33.8779 57.9135 0
      vertex 33 58 0
    endloop
  endfacet
  facet normal -0.471441 0.881898 0
    outer loop
      vertex 31.2779 57.6575 0
      vertex 30.4999 57.2416 4.6
      vertex 31.2779 57.6575 4.6
    endloop
  endfacet
  facet normal -0.471441 0.881898 0
    outer loop
      vertex 30.4999 57.2416 4.6
      vertex 31.2779 57.6575 0
      vertex 30.4999 57.2416 0
    endloop
  endfacet
  facet normal 1 -0 0
    outer loop
      vertex 37.5 37.5 4.6
      vertex 37.5 53.5 0
      vertex 37.5 53.5 4.6
    endloop
  endfacet
  facet normal 1 0 0
    outer loop
      vertex 37.5 53.5 0
      vertex 37.5 37.5 4.6
      vertex 37.5 37.5 0
    endloop
  endfacet
  facet normal -1 0 0
    outer loop
      vertex 28.5 36.1447 0
      vertex 28.5 53.5 4.6
      vertex 28.5 53.5 0
    endloop
  endfacet
  facet normal -1 -0 0
    outer loop
      vertex 28.5 53.5 4.6
      vertex 28.5 36.1447 0
      vertex 28.5 36.1447 4.6
    endloop
  endfacet
  facet normal 0.471441 0.881898 -0
    outer loop
      vertex 35.5001 57.2416 0
      vertex 34.7221 57.6575 4.6
      vertex 35.5001 57.2416 4.6
    endloop
  endfacet
  facet normal 0.471441 0.881898 0
    outer loop
      vertex 34.7221 57.6575 4.6
      vertex 35.5001 57.2416 0
      vertex 34.7221 57.6575 0
    endloop
  endfacet
  facet normal -0.0980558 0.995181 0
    outer loop
      vertex 33 58 0
      vertex 32.1221 57.9135 4.6
      vertex 33 58 4.6
    endloop
  endfacet
  facet normal -0.0980558 0.995181 0
    outer loop
      vertex 32.1221 57.9135 4.6
      vertex 33 58 0
      vertex 32.1221 57.9135 0
    endloop
  endfacet
  facet normal -0.995181 0.0980558 0
    outer loop
      vertex 28.5 53.5 0
      vertex 28.5865 54.3779 4.6
      vertex 28.5865 54.3779 0
    endloop
  endfacet
  facet normal -0.995181 0.0980558 0
    outer loop
      vertex 28.5865 54.3779 4.6
      vertex 28.5 53.5 0
      vertex 28.5 53.5 4.6
    endloop
  endfacet
  facet normal 0.773022 0.634379 0
    outer loop
      vertex 36.7416 56.0001 4.6
      vertex 36.182 56.682 0
      vertex 36.182 56.682 4.6
    endloop
  endfacet
  facet normal 0.773022 0.634379 0
    outer loop
      vertex 36.182 56.682 0
      vertex 36.7416 56.0001 4.6
      vertex 36.7416 56.0001 0
    endloop
  endfacet
  facet normal -0.956967 0.290196 0
    outer loop
      vertex 28.5865 54.3779 0
      vertex 28.8425 55.2221 4.6
      vertex 28.8425 55.2221 0
    endloop
  endfacet
  facet normal -0.956967 0.290196 0
    outer loop
      vertex 28.8425 55.2221 4.6
      vertex 28.5865 54.3779 0
      vertex 28.5865 54.3779 4.6
    endloop
  endfacet
  facet normal -0.773022 0.634379 0
    outer loop
      vertex 29.2584 56.0001 0
      vertex 29.818 56.682 4.6
      vertex 29.818 56.682 0
    endloop
  endfacet
  facet normal -0.773022 0.634379 0
    outer loop
      vertex 29.818 56.682 4.6
      vertex 29.2584 56.0001 0
      vertex 29.2584 56.0001 4.6
    endloop
  endfacet
  facet normal 0.881898 0.471441 0
    outer loop
      vertex 37.1575 55.2221 4.6
      vertex 36.7416 56.0001 0
      vertex 36.7416 56.0001 4.6
    endloop
  endfacet
  facet normal 0.881898 0.471441 0
    outer loop
      vertex 36.7416 56.0001 0
      vertex 37.1575 55.2221 4.6
      vertex 37.1575 55.2221 0
    endloop
  endfacet
  facet normal 0.634277 -0.773106 0
    outer loop
      vertex 36.0556 28.4269 0
      vertex 36.1447 28.5 4.6
      vertex 36.0556 28.4269 4.6
    endloop
  endfacet
  facet normal 0.634277 -0.773106 0
    outer loop
      vertex 36.1447 28.5 4.6
      vertex 36.0556 28.4269 0
      vertex 36.1447 28.5 0
    endloop
  endfacet
  facet normal -0.881926 0.471387 0
    outer loop
      vertex 27.9187 35.1048 0
      vertex 28.4269 36.0556 4.6
      vertex 28.4269 36.0556 0
    endloop
  endfacet
  facet normal -0.881926 0.471387 0
    outer loop
      vertex 28.4269 36.0556 4.6
      vertex 27.9187 35.1048 0
      vertex 27.9187 35.1048 4.6
    endloop
  endfacet
  facet normal -0.773106 0.634277 0
    outer loop
      vertex 28.4269 36.0556 0
      vertex 28.5 36.1447 4.6
      vertex 28.5 36.1447 0
    endloop
  endfacet
  facet normal -0.773106 0.634277 0
    outer loop
      vertex 28.5 36.1447 4.6
      vertex 28.4269 36.0556 0
      vertex 28.4269 36.0556 4.6
    endloop
  endfacet
  facet normal -0.995183 0.0980343 0
    outer loop
      vertex 27.5 33 0
      vertex 27.6057 34.073 4.6
      vertex 27.6057 34.073 0
    endloop
  endfacet
  facet normal -0.995183 0.0980343 0
    outer loop
      vertex 27.6057 34.073 4.6
      vertex 27.5 33 0
      vertex 27.5 33 4.6
    endloop
  endfacet
  facet normal -0.956939 0.290291 0
    outer loop
      vertex 27.6057 34.073 0
      vertex 27.9187 35.1048 4.6
      vertex 27.9187 35.1048 0
    endloop
  endfacet
  facet normal -0.956939 0.290291 0
    outer loop
      vertex 27.9187 35.1048 4.6
      vertex 27.6057 34.073 0
      vertex 27.6057 34.073 4.6
    endloop
  endfacet
  facet normal 0.290291 -0.956939 0
    outer loop
      vertex 34.073 27.6057 0
      vertex 35.1048 27.9187 4.6
      vertex 34.073 27.6057 4.6
    endloop
  endfacet
  facet normal 0.290291 -0.956939 0
    outer loop
      vertex 35.1048 27.9187 4.6
      vertex 34.073 27.6057 0
      vertex 35.1048 27.9187 0
    endloop
  endfacet
  facet normal 0.0980343 -0.995183 0
    outer loop
      vertex 33 27.5 0
      vertex 34.073 27.6057 4.6
      vertex 33 27.5 4.6
    endloop
  endfacet
  facet normal 0.0980343 -0.995183 0
    outer loop
      vertex 34.073 27.6057 4.6
      vertex 33 27.5 0
      vertex 34.073 27.6057 0
    endloop
  endfacet
  facet normal 0.471387 -0.881926 0
    outer loop
      vertex 35.1048 27.9187 0
      vertex 36.0556 28.4269 4.6
      vertex 35.1048 27.9187 4.6
    endloop
  endfacet
  facet normal 0.471387 -0.881926 0
    outer loop
      vertex 36.0556 28.4269 4.6
      vertex 35.1048 27.9187 0
      vertex 36.0556 28.4269 0
    endloop
  endfacet
  facet normal -1 0 0
    outer loop
      vertex 0 0 0
      vertex 0 33 4.6
      vertex 0 33 0
    endloop
  endfacet
  facet normal -1 -0 0
    outer loop
      vertex 0 33 4.6
      vertex 0 0 0
      vertex 0 0 4.6
    endloop
  endfacet
  facet normal 0 -1 0
    outer loop
      vertex 0 0 0
      vertex 33 0 4.6
      vertex 0 0 4.6
    endloop
  endfacet
  facet normal 0 -1 -0
    outer loop
      vertex 33 0 4.6
      vertex 0 0 0
      vertex 33 0 0
    endloop
  endfacet
endsolid OpenSCAD_Model
