solid OpenSCAD_Model
  facet normal 0.99307 0.117529 0
    outer loop
      vertex 52.8366 4.15833 20
      vertex 52.3475 8.29103 3
      vertex 52.3475 8.29103 20
    endloop
  endfacet
  facet normal 0.99307 0.117529 0
    outer loop
      vertex 52.3475 8.29103 3
      vertex 52.8366 4.15833 20
      vertex 52.8366 4.15833 3
    endloop
  endfacet
  facet normal 0.99307 0.117529 0
    outer loop
      vertex 52.8366 4.15833 54
      vertex 52.3475 8.29103 44
      vertex 52.3475 8.29103 54
    endloop
  endfacet
  facet normal 0.99307 0.117529 0
    outer loop
      vertex 52.3475 8.29103 44
      vertex 52.8366 4.15833 54
      vertex 52.8366 4.15833 44
    endloop
  endfacet
  facet normal 0.418663 0.908141 -0
    outer loop
      vertex 24.0615 47.2233 3
      vertex 20.2822 48.9656 20
      vertex 24.0615 47.2233 20
    endloop
  endfacet
  facet normal 0.418663 0.908141 0
    outer loop
      vertex 20.2822 48.9656 20
      vertex 24.0615 47.2233 3
      vertex 20.2822 48.9656 3
    endloop
  endfacet
  facet normal 0.418663 0.908141 -0
    outer loop
      vertex 24.0615 47.2233 44
      vertex 20.2822 48.9656 54
      vertex 24.0615 47.2233 54
    endloop
  endfacet
  facet normal 0.418663 0.908141 0
    outer loop
      vertex 20.2822 48.9656 54
      vertex 24.0615 47.2233 44
      vertex 20.2822 48.9656 44
    endloop
  endfacet
  facet normal 0.980784 0.195096 0
    outer loop
      vertex 52.3475 8.29103 20
      vertex 51.5356 12.3726 3
      vertex 51.5356 12.3726 20
    endloop
  endfacet
  facet normal 0.980784 0.195096 0
    outer loop
      vertex 51.5356 12.3726 3
      vertex 52.3475 8.29103 20
      vertex 52.3475 8.29103 3
    endloop
  endfacet
  facet normal 0.980784 0.195096 0
    outer loop
      vertex 52.3475 8.29103 54
      vertex 51.5356 12.3726 44
      vertex 51.5356 12.3726 54
    endloop
  endfacet
  facet normal 0.980784 0.195096 0
    outer loop
      vertex 51.5356 12.3726 44
      vertex 52.3475 8.29103 54
      vertex 52.3475 8.29103 44
    endloop
  endfacet
  facet normal 0.999229 0.0392643 0
    outer loop
      vertex 53 0 20
      vertex 52.8366 4.15833 3
      vertex 52.8366 4.15833 20
    endloop
  endfacet
  facet normal 0.999229 0.0392643 0
    outer loop
      vertex 52.8366 4.15833 3
      vertex 53 0 20
      vertex 53 0 3
    endloop
  endfacet
  facet normal 0.999229 0.0392643 0
    outer loop
      vertex 53 0 54
      vertex 52.8366 4.15833 44
      vertex 52.8366 4.15833 54
    endloop
  endfacet
  facet normal 0.999229 0.0392643 0
    outer loop
      vertex 52.8366 4.15833 44
      vertex 53 0 54
      vertex 53 0 44
    endloop
  endfacet
  facet normal 0.908141 0.418663 0
    outer loop
      vertex 48.9656 20.2822 20
      vertex 47.2233 24.0615 3
      vertex 47.2233 24.0615 20
    endloop
  endfacet
  facet normal 0.908141 0.418663 0
    outer loop
      vertex 47.2233 24.0615 3
      vertex 48.9656 20.2822 20
      vertex 48.9656 20.2822 3
    endloop
  endfacet
  facet normal 0.908141 0.418663 0
    outer loop
      vertex 48.9656 20.2822 54
      vertex 47.2233 24.0615 44
      vertex 47.2233 24.0615 54
    endloop
  endfacet
  facet normal 0.908141 0.418663 0
    outer loop
      vertex 47.2233 24.0615 44
      vertex 48.9656 20.2822 54
      vertex 48.9656 20.2822 44
    endloop
  endfacet
  facet normal 0.872496 0.488621 0
    outer loop
      vertex 47.2233 24.0615 20
      vertex 45.1899 27.6924 3
      vertex 45.1899 27.6924 20
    endloop
  endfacet
  facet normal 0.872496 0.488621 0
    outer loop
      vertex 45.1899 27.6924 3
      vertex 47.2233 24.0615 20
      vertex 47.2233 24.0615 3
    endloop
  endfacet
  facet normal 0.872496 0.488621 0
    outer loop
      vertex 47.2233 24.0615 54
      vertex 45.1899 27.6924 44
      vertex 45.1899 27.6924 54
    endloop
  endfacet
  facet normal 0.872496 0.488621 0
    outer loop
      vertex 45.1899 27.6924 44
      vertex 47.2233 24.0615 54
      vertex 47.2233 24.0615 44
    endloop
  endfacet
  facet normal 0.195096 0.980784 -0
    outer loop
      vertex 12.3726 51.5356 3
      vertex 8.29103 52.3475 20
      vertex 12.3726 51.5356 20
    endloop
  endfacet
  facet normal 0.195096 0.980784 0
    outer loop
      vertex 8.29103 52.3475 20
      vertex 12.3726 51.5356 3
      vertex 8.29103 52.3475 3
    endloop
  endfacet
  facet normal 0.195096 0.980784 -0
    outer loop
      vertex 12.3726 51.5356 44
      vertex 8.29103 52.3475 54
      vertex 12.3726 51.5356 54
    endloop
  endfacet
  facet normal 0.195096 0.980784 0
    outer loop
      vertex 8.29103 52.3475 54
      vertex 12.3726 51.5356 44
      vertex 8.29103 52.3475 44
    endloop
  endfacet
  facet normal 0.734339 0.678783 0
    outer loop
      vertex 40.3015 34.4207 20
      vertex 37.4767 37.4767 3
      vertex 37.4767 37.4767 20
    endloop
  endfacet
  facet normal 0.734339 0.678783 0
    outer loop
      vertex 37.4767 37.4767 3
      vertex 40.3015 34.4207 20
      vertex 40.3015 34.4207 3
    endloop
  endfacet
  facet normal 0.734339 0.678783 0
    outer loop
      vertex 40.3015 34.4207 54
      vertex 37.4767 37.4767 44
      vertex 37.4767 37.4767 54
    endloop
  endfacet
  facet normal 0.734339 0.678783 0
    outer loop
      vertex 37.4767 37.4767 44
      vertex 40.3015 34.4207 54
      vertex 40.3015 34.4207 44
    endloop
  endfacet
  facet normal 0.488621 0.872496 -0
    outer loop
      vertex 27.6924 45.1899 3
      vertex 24.0615 47.2233 20
      vertex 27.6924 45.1899 20
    endloop
  endfacet
  facet normal 0.488621 0.872496 0
    outer loop
      vertex 24.0615 47.2233 20
      vertex 27.6924 45.1899 3
      vertex 24.0615 47.2233 3
    endloop
  endfacet
  facet normal 0.488621 0.872496 -0
    outer loop
      vertex 27.6924 45.1899 44
      vertex 24.0615 47.2233 54
      vertex 27.6924 45.1899 54
    endloop
  endfacet
  facet normal 0.488621 0.872496 0
    outer loop
      vertex 24.0615 47.2233 54
      vertex 27.6924 45.1899 44
      vertex 24.0615 47.2233 44
    endloop
  endfacet
  facet normal 0.938189 0.346123 0
    outer loop
      vertex 50.406 16.3779 20
      vertex 48.9656 20.2822 3
      vertex 48.9656 20.2822 20
    endloop
  endfacet
  facet normal 0.938189 0.346123 0
    outer loop
      vertex 48.9656 20.2822 3
      vertex 50.406 16.3779 20
      vertex 50.406 16.3779 3
    endloop
  endfacet
  facet normal 0.938189 0.346123 0
    outer loop
      vertex 50.406 16.3779 54
      vertex 48.9656 20.2822 44
      vertex 48.9656 20.2822 54
    endloop
  endfacet
  facet normal 0.938189 0.346123 0
    outer loop
      vertex 48.9656 20.2822 44
      vertex 50.406 16.3779 54
      vertex 50.406 16.3779 44
    endloop
  endfacet
  facet normal 0.678783 0.734339 -0
    outer loop
      vertex 37.4767 37.4767 3
      vertex 34.4207 40.3015 20
      vertex 37.4767 37.4767 20
    endloop
  endfacet
  facet normal 0.678783 0.734339 0
    outer loop
      vertex 34.4207 40.3015 20
      vertex 37.4767 37.4767 3
      vertex 34.4207 40.3015 3
    endloop
  endfacet
  facet normal 0.678783 0.734339 -0
    outer loop
      vertex 37.4767 37.4767 44
      vertex 34.4207 40.3015 54
      vertex 37.4767 37.4767 54
    endloop
  endfacet
  facet normal 0.678783 0.734339 0
    outer loop
      vertex 34.4207 40.3015 54
      vertex 37.4767 37.4767 44
      vertex 34.4207 40.3015 44
    endloop
  endfacet
  facet normal 0.555565 0.831473 -0
    outer loop
      vertex 31.1526 42.8779 3
      vertex 27.6924 45.1899 20
      vertex 31.1526 42.8779 20
    endloop
  endfacet
  facet normal 0.555565 0.831473 0
    outer loop
      vertex 27.6924 45.1899 20
      vertex 31.1526 42.8779 3
      vertex 27.6924 45.1899 3
    endloop
  endfacet
  facet normal 0.555565 0.831473 -0
    outer loop
      vertex 31.1526 42.8779 44
      vertex 27.6924 45.1899 54
      vertex 31.1526 42.8779 54
    endloop
  endfacet
  facet normal 0.555565 0.831473 0
    outer loop
      vertex 27.6924 45.1899 54
      vertex 31.1526 42.8779 44
      vertex 27.6924 45.1899 44
    endloop
  endfacet
  facet normal 0.831473 0.555565 0
    outer loop
      vertex 45.1899 27.6924 20
      vertex 42.8779 31.1526 3
      vertex 42.8779 31.1526 20
    endloop
  endfacet
  facet normal 0.831473 0.555565 0
    outer loop
      vertex 42.8779 31.1526 3
      vertex 45.1899 27.6924 20
      vertex 45.1899 27.6924 3
    endloop
  endfacet
  facet normal 0.831473 0.555565 0
    outer loop
      vertex 45.1899 27.6924 54
      vertex 42.8779 31.1526 44
      vertex 42.8779 31.1526 54
    endloop
  endfacet
  facet normal 0.831473 0.555565 0
    outer loop
      vertex 42.8779 31.1526 44
      vertex 45.1899 27.6924 54
      vertex 45.1899 27.6924 44
    endloop
  endfacet
  facet normal 0.962456 0.271438 0
    outer loop
      vertex 51.5356 12.3726 20
      vertex 50.406 16.3779 3
      vertex 50.406 16.3779 20
    endloop
  endfacet
  facet normal 0.962456 0.271438 0
    outer loop
      vertex 50.406 16.3779 3
      vertex 51.5356 12.3726 20
      vertex 51.5356 12.3726 3
    endloop
  endfacet
  facet normal 0.962456 0.271438 0
    outer loop
      vertex 51.5356 12.3726 54
      vertex 50.406 16.3779 44
      vertex 50.406 16.3779 54
    endloop
  endfacet
  facet normal 0.962456 0.271438 0
    outer loop
      vertex 50.406 16.3779 44
      vertex 51.5356 12.3726 54
      vertex 51.5356 12.3726 44
    endloop
  endfacet
  facet normal 0.117529 0.99307 -0
    outer loop
      vertex 8.29103 52.3475 3
      vertex 4.15833 52.8366 20
      vertex 8.29103 52.3475 20
    endloop
  endfacet
  facet normal 0.117529 0.99307 0
    outer loop
      vertex 4.15833 52.8366 20
      vertex 8.29103 52.3475 3
      vertex 4.15833 52.8366 3
    endloop
  endfacet
  facet normal 0.117529 0.99307 -0
    outer loop
      vertex 8.29103 52.3475 44
      vertex 4.15833 52.8366 54
      vertex 8.29103 52.3475 54
    endloop
  endfacet
  facet normal 0.117529 0.99307 0
    outer loop
      vertex 4.15833 52.8366 54
      vertex 8.29103 52.3475 44
      vertex 4.15833 52.8366 44
    endloop
  endfacet
  facet normal 0.346123 0.938189 -0
    outer loop
      vertex 20.2822 48.9656 3
      vertex 16.3779 50.406 20
      vertex 20.2822 48.9656 20
    endloop
  endfacet
  facet normal 0.346123 0.938189 0
    outer loop
      vertex 16.3779 50.406 20
      vertex 20.2822 48.9656 3
      vertex 16.3779 50.406 3
    endloop
  endfacet
  facet normal 0.346123 0.938189 -0
    outer loop
      vertex 20.2822 48.9656 44
      vertex 16.3779 50.406 54
      vertex 20.2822 48.9656 54
    endloop
  endfacet
  facet normal 0.346123 0.938189 0
    outer loop
      vertex 16.3779 50.406 54
      vertex 20.2822 48.9656 44
      vertex 16.3779 50.406 44
    endloop
  endfacet
  facet normal 0.785313 0.6191 0
    outer loop
      vertex 42.8779 31.1526 20
      vertex 40.3015 34.4207 3
      vertex 40.3015 34.4207 20
    endloop
  endfacet
  facet normal 0.785313 0.6191 0
    outer loop
      vertex 40.3015 34.4207 3
      vertex 42.8779 31.1526 20
      vertex 42.8779 31.1526 3
    endloop
  endfacet
  facet normal 0.785313 0.6191 0
    outer loop
      vertex 42.8779 31.1526 54
      vertex 40.3015 34.4207 44
      vertex 40.3015 34.4207 54
    endloop
  endfacet
  facet normal 0.785313 0.6191 0
    outer loop
      vertex 40.3015 34.4207 44
      vertex 42.8779 31.1526 54
      vertex 42.8779 31.1526 44
    endloop
  endfacet
  facet normal 0.6191 0.785313 -0
    outer loop
      vertex 34.4207 40.3015 3
      vertex 31.1526 42.8779 20
      vertex 34.4207 40.3015 20
    endloop
  endfacet
  facet normal 0.6191 0.785313 0
    outer loop
      vertex 31.1526 42.8779 20
      vertex 34.4207 40.3015 3
      vertex 31.1526 42.8779 3
    endloop
  endfacet
  facet normal 0.6191 0.785313 -0
    outer loop
      vertex 34.4207 40.3015 44
      vertex 31.1526 42.8779 54
      vertex 34.4207 40.3015 54
    endloop
  endfacet
  facet normal 0.6191 0.785313 0
    outer loop
      vertex 31.1526 42.8779 54
      vertex 34.4207 40.3015 44
      vertex 31.1526 42.8779 44
    endloop
  endfacet
  facet normal 0.0392643 0.999229 -0
    outer loop
      vertex 4.15833 52.8366 3
      vertex 0 53 20
      vertex 4.15833 52.8366 20
    endloop
  endfacet
  facet normal 0.0392643 0.999229 0
    outer loop
      vertex 0 53 20
      vertex 4.15833 52.8366 3
      vertex 0 53 3
    endloop
  endfacet
  facet normal 0.0392643 0.999229 -0
    outer loop
      vertex 4.15833 52.8366 44
      vertex 0 53 54
      vertex 4.15833 52.8366 54
    endloop
  endfacet
  facet normal 0.0392643 0.999229 0
    outer loop
      vertex 0 53 54
      vertex 4.15833 52.8366 44
      vertex 0 53 44
    endloop
  endfacet
  facet normal 0.271438 0.962456 -0
    outer loop
      vertex 16.3779 50.406 3
      vertex 12.3726 51.5356 20
      vertex 16.3779 50.406 20
    endloop
  endfacet
  facet normal 0.271438 0.962456 0
    outer loop
      vertex 12.3726 51.5356 20
      vertex 16.3779 50.406 3
      vertex 12.3726 51.5356 3
    endloop
  endfacet
  facet normal 0.271438 0.962456 -0
    outer loop
      vertex 16.3779 50.406 44
      vertex 12.3726 51.5356 54
      vertex 16.3779 50.406 54
    endloop
  endfacet
  facet normal 0.271438 0.962456 0
    outer loop
      vertex 12.3726 51.5356 54
      vertex 16.3779 50.406 44
      vertex 12.3726 51.5356 44
    endloop
  endfacet
  facet normal 0.935696 0.0367678 0.350886
    outer loop
      vertex 52.8366 4.15833 54
      vertex 50 0 62
      vertex 53 0 54
    endloop
  endfacet
  facet normal 0.579744 0.735377 0.350882
    outer loop
      vertex 34.4207 40.3015 54
      vertex 29.3893 40.4509 62
      vertex 32.4724 38.0203 62
    endloop
  endfacet
  facet normal 0.254193 0.901256 0.350891
    outer loop
      vertex 16.3779 50.406 54
      vertex 11.6723 48.6185 62
      vertex 15.4508 47.5528 62
    endloop
  endfacet
  facet normal 0.878544 0.324093 0.350891
    outer loop
      vertex 50.406 16.3779 54
      vertex 46.194 19.1342 62
      vertex 47.5528 15.4508 62
    endloop
  endfacet
  facet normal 0.817022 0.457554 0.350884
    outer loop
      vertex 45.1899 27.6924 54
      vertex 42.632 26.1249 62
      vertex 47.2233 24.0615 54
    endloop
  endfacet
  facet normal 0.687645 0.635622 0.350897
    outer loop
      vertex 37.4767 37.4767 54
      vertex 35.3553 35.3553 62
      vertex 40.3015 34.4207 54
    endloop
  endfacet
  facet normal 0.0367678 0.935696 0.350886
    outer loop
      vertex 0 53 54
      vertex 0 50 62
      vertex 4.15833 52.8366 54
    endloop
  endfacet
  facet normal 0.392055 0.850395 0.350886
    outer loop
      vertex 24.0615 47.2233 54
      vertex 19.1342 46.194 62
      vertex 22.6995 44.5503 62
    endloop
  endfacet
  facet normal 0.817023 0.457551 0.350886
    outer loop
      vertex 47.2233 24.0615 54
      vertex 42.632 26.1249 62
      vertex 44.5503 22.6995 62
    endloop
  endfacet
  facet normal 0.110056 0.929927 0.35089
    outer loop
      vertex 8.29103 52.3475 54
      vertex 4.15833 52.8366 54
      vertex 7.82172 49.3844 62
    endloop
  endfacet
  facet normal 0.324093 0.878544 0.350891
    outer loop
      vertex 16.3779 50.406 54
      vertex 15.4508 47.5528 62
      vertex 19.1342 46.194 62
    endloop
  endfacet
  facet normal 0.520243 0.778609 0.350878
    outer loop
      vertex 31.1526 42.8779 54
      vertex 27.6924 45.1899 54
      vertex 29.3893 40.4509 62
    endloop
  endfacet
  facet normal 0.735383 0.579738 0.350878
    outer loop
      vertex 42.8779 31.1526 54
      vertex 40.3015 34.4207 54
      vertex 40.4509 29.3893 62
    endloop
  endfacet
  facet normal 0.918425 0.182692 0.350884
    outer loop
      vertex 51.5356 12.3726 54
      vertex 48.6185 11.6723 62
      vertex 52.3475 8.29103 54
    endloop
  endfacet
  facet normal 0.25418 0.901262 0.350884
    outer loop
      vertex 12.3726 51.5356 54
      vertex 11.6723 48.6185 62
      vertex 16.3779 50.406 54
    endloop
  endfacet
  facet normal 0.850395 0.392055 0.350886
    outer loop
      vertex 47.2233 24.0615 54
      vertex 44.5503 22.6995 62
      vertex 46.194 19.1342 62
    endloop
  endfacet
  facet normal 0.929928 0.110076 0.350881
    outer loop
      vertex 52.8366 4.15833 54
      vertex 49.3844 7.82172 62
      vertex 49.8459 3.92295 62
    endloop
  endfacet
  facet normal 0.878539 0.324116 0.350881
    outer loop
      vertex 48.9656 20.2822 54
      vertex 46.194 19.1342 62
      vertex 50.406 16.3779 54
    endloop
  endfacet
  facet normal 0.850402 0.392045 0.35088
    outer loop
      vertex 47.2233 24.0615 54
      vertex 46.194 19.1342 62
      vertex 48.9656 20.2822 54
    endloop
  endfacet
  facet normal 0.182679 0.918425 0.35089
    outer loop
      vertex 8.29103 52.3475 54
      vertex 7.82172 49.3844 62
      vertex 11.6723 48.6185 62
    endloop
  endfacet
  facet normal 0.635622 0.687645 0.350897
    outer loop
      vertex 37.4767 37.4767 54
      vertex 34.4207 40.3015 54
      vertex 35.3553 35.3553 62
    endloop
  endfacet
  facet normal 0.901262 0.25418 0.350884
    outer loop
      vertex 50.406 16.3779 54
      vertex 48.6185 11.6723 62
      vertex 51.5356 12.3726 54
    endloop
  endfacet
  facet normal 0.457551 0.817023 0.350886
    outer loop
      vertex 24.0615 47.2233 54
      vertex 22.6995 44.5503 62
      vertex 26.1249 42.632 62
    endloop
  endfacet
  facet normal 0.918425 0.182679 0.35089
    outer loop
      vertex 52.3475 8.29103 54
      vertex 48.6185 11.6723 62
      vertex 49.3844 7.82172 62
    endloop
  endfacet
  facet normal 0.929927 0.110056 0.35089
    outer loop
      vertex 52.3475 8.29103 54
      vertex 49.3844 7.82172 62
      vertex 52.8366 4.15833 54
    endloop
  endfacet
  facet normal 0.935699 0.0367558 0.350881
    outer loop
      vertex 52.8366 4.15833 54
      vertex 49.8459 3.92295 62
      vertex 50 0 62
    endloop
  endfacet
  facet normal 0.635652 0.687625 0.350881
    outer loop
      vertex 34.4207 40.3015 54
      vertex 32.4724 38.0203 62
      vertex 35.3553 35.3553 62
    endloop
  endfacet
  facet normal 0.901256 0.254193 0.350891
    outer loop
      vertex 50.406 16.3779 54
      vertex 47.5528 15.4508 62
      vertex 48.6185 11.6723 62
    endloop
  endfacet
  facet normal 0.110076 0.929928 0.350881
    outer loop
      vertex 4.15833 52.8366 54
      vertex 3.92295 49.8459 62
      vertex 7.82172 49.3844 62
    endloop
  endfacet
  facet normal 0.182692 0.918425 0.350884
    outer loop
      vertex 12.3726 51.5356 54
      vertex 8.29103 52.3475 54
      vertex 11.6723 48.6185 62
    endloop
  endfacet
  facet normal 0.687625 0.635652 0.350881
    outer loop
      vertex 40.3015 34.4207 54
      vertex 35.3553 35.3553 62
      vertex 38.0203 32.4724 62
    endloop
  endfacet
  facet normal 0.778609 0.520243 0.350878
    outer loop
      vertex 42.8779 31.1526 54
      vertex 40.4509 29.3893 62
      vertex 45.1899 27.6924 54
    endloop
  endfacet
  facet normal 0.457554 0.817022 0.350884
    outer loop
      vertex 27.6924 45.1899 54
      vertex 24.0615 47.2233 54
      vertex 26.1249 42.632 62
    endloop
  endfacet
  facet normal 0.0367558 0.935699 0.350881
    outer loop
      vertex 4.15833 52.8366 54
      vertex 0 50 62
      vertex 3.92295 49.8459 62
    endloop
  endfacet
  facet normal 0.735377 0.579744 0.350882
    outer loop
      vertex 40.3015 34.4207 54
      vertex 38.0203 32.4724 62
      vertex 40.4509 29.3893 62
    endloop
  endfacet
  facet normal 0.579738 0.735383 0.350878
    outer loop
      vertex 31.1526 42.8779 54
      vertex 29.3893 40.4509 62
      vertex 34.4207 40.3015 54
    endloop
  endfacet
  facet normal 0.392045 0.850402 0.35088
    outer loop
      vertex 20.2822 48.9656 54
      vertex 19.1342 46.194 62
      vertex 24.0615 47.2233 54
    endloop
  endfacet
  facet normal 0.324116 0.878539 0.350881
    outer loop
      vertex 20.2822 48.9656 54
      vertex 16.3779 50.406 54
      vertex 19.1342 46.194 62
    endloop
  endfacet
  facet normal 0.520229 0.778615 0.350885
    outer loop
      vertex 27.6924 45.1899 54
      vertex 26.1249 42.632 62
      vertex 29.3893 40.4509 62
    endloop
  endfacet
  facet normal 0.778615 0.520229 0.350885
    outer loop
      vertex 45.1899 27.6924 54
      vertex 40.4509 29.3893 62
      vertex 42.632 26.1249 62
    endloop
  endfacet
  facet normal -0 0 1
    outer loop
      vertex -2 59 62
      vertex 0 50 62
      vertex 0 59 62
    endloop
  endfacet
  facet normal 0 0 1
    outer loop
      vertex -2 47.9214 62
      vertex 0 50 62
      vertex -2 59 62
    endloop
  endfacet
  facet normal 0 0 1
    outer loop
      vertex 0 50 62
      vertex -2 47.9214 62
      vertex 0 48 62
    endloop
  endfacet
  facet normal 0 0 1
    outer loop
      vertex 49.8459 3.92295 62
      vertex 47.852 3.76604 62
      vertex 48 0 62
    endloop
  endfacet
  facet normal 0 0 1
    outer loop
      vertex 46.6738 11.2054 62
      vertex 48.6185 11.6723 62
      vertex 47.5528 15.4508 62
    endloop
  endfacet
  facet normal 0 0 1
    outer loop
      vertex 49.3844 7.82172 62
      vertex 47.409 7.50885 62
      vertex 47.852 3.76604 62
    endloop
  endfacet
  facet normal 0 0 1
    outer loop
      vertex 48.6185 11.6723 62
      vertex 46.6738 11.2054 62
      vertex 47.409 7.50885 62
    endloop
  endfacet
  facet normal 0 0 1
    outer loop
      vertex 45.6507 14.8328 62
      vertex 47.5528 15.4508 62
      vertex 46.194 19.1342 62
    endloop
  endfacet
  facet normal 0 0 1
    outer loop
      vertex 47.5528 15.4508 62
      vertex 45.6507 14.8328 62
      vertex 46.6738 11.2054 62
    endloop
  endfacet
  facet normal 0 0 1
    outer loop
      vertex 44.3462 18.3688 62
      vertex 46.194 19.1342 62
      vertex 44.5503 22.6995 62
    endloop
  endfacet
  facet normal 0 0 1
    outer loop
      vertex 46.194 19.1342 62
      vertex 44.3462 18.3688 62
      vertex 45.6507 14.8328 62
    endloop
  endfacet
  facet normal 0 0 1
    outer loop
      vertex 44.5503 22.6995 62
      vertex 42.7683 21.7915 62
      vertex 44.3462 18.3688 62
    endloop
  endfacet
  facet normal 0 0 1
    outer loop
      vertex 42.632 26.1249 62
      vertex 42.7683 21.7915 62
      vertex 44.5503 22.6995 62
    endloop
  endfacet
  facet normal 0 0 1
    outer loop
      vertex 42.632 26.1249 62
      vertex 40.9267 25.0799 62
      vertex 42.7683 21.7915 62
    endloop
  endfacet
  facet normal 0 0 1
    outer loop
      vertex 40.4509 29.3893 62
      vertex 40.9267 25.0799 62
      vertex 42.632 26.1249 62
    endloop
  endfacet
  facet normal 0 0 1
    outer loop
      vertex 40.4509 29.3893 62
      vertex 38.8328 28.2137 62
      vertex 40.9267 25.0799 62
    endloop
  endfacet
  facet normal 0 0 1
    outer loop
      vertex 38.0203 32.4724 62
      vertex 38.8328 28.2137 62
      vertex 40.4509 29.3893 62
    endloop
  endfacet
  facet normal 0 0 1
    outer loop
      vertex 38.0203 32.4724 62
      vertex 36.4995 31.1735 62
      vertex 38.8328 28.2137 62
    endloop
  endfacet
  facet normal 0 0 1
    outer loop
      vertex 35.3553 35.3553 62
      vertex 36.4995 31.1735 62
      vertex 38.0203 32.4724 62
    endloop
  endfacet
  facet normal 0 0 1
    outer loop
      vertex 35.3553 35.3553 62
      vertex 33.9411 33.9411 62
      vertex 36.4995 31.1735 62
    endloop
  endfacet
  facet normal 0 0 1
    outer loop
      vertex 32.4724 38.0203 62
      vertex 33.9411 33.9411 62
      vertex 35.3553 35.3553 62
    endloop
  endfacet
  facet normal 0 0 1
    outer loop
      vertex 32.4724 38.0203 62
      vertex 31.1735 36.4995 62
      vertex 33.9411 33.9411 62
    endloop
  endfacet
  facet normal 0 0 1
    outer loop
      vertex 29.3893 40.4509 62
      vertex 31.1735 36.4995 62
      vertex 32.4724 38.0203 62
    endloop
  endfacet
  facet normal 0 0 1
    outer loop
      vertex 29.3893 40.4509 62
      vertex 28.2137 38.8328 62
      vertex 31.1735 36.4995 62
    endloop
  endfacet
  facet normal 0 0 1
    outer loop
      vertex 26.1249 42.632 62
      vertex 28.2137 38.8328 62
      vertex 29.3893 40.4509 62
    endloop
  endfacet
  facet normal 0 0 1
    outer loop
      vertex 26.1249 42.632 62
      vertex 25.0799 40.9267 62
      vertex 28.2137 38.8328 62
    endloop
  endfacet
  facet normal 0 0 1
    outer loop
      vertex 22.6995 44.5503 62
      vertex 25.0799 40.9267 62
      vertex 26.1249 42.632 62
    endloop
  endfacet
  facet normal 0 0 1
    outer loop
      vertex 22.6995 44.5503 62
      vertex 21.7915 42.7683 62
      vertex 25.0799 40.9267 62
    endloop
  endfacet
  facet normal 0 0 1
    outer loop
      vertex 19.1342 46.194 62
      vertex 21.7915 42.7683 62
      vertex 22.6995 44.5503 62
    endloop
  endfacet
  facet normal 0 0 1
    outer loop
      vertex 19.1342 46.194 62
      vertex 18.3688 44.3462 62
      vertex 21.7915 42.7683 62
    endloop
  endfacet
  facet normal 0 0 1
    outer loop
      vertex 15.4508 47.5528 62
      vertex 18.3688 44.3462 62
      vertex 19.1342 46.194 62
    endloop
  endfacet
  facet normal 0 0 1
    outer loop
      vertex 15.4508 47.5528 62
      vertex 14.8328 45.6507 62
      vertex 18.3688 44.3462 62
    endloop
  endfacet
  facet normal 0 0 1
    outer loop
      vertex 11.6723 48.6185 62
      vertex 14.8328 45.6507 62
      vertex 15.4508 47.5528 62
    endloop
  endfacet
  facet normal 0 0 1
    outer loop
      vertex 11.6723 48.6185 62
      vertex 11.2054 46.6738 62
      vertex 14.8328 45.6507 62
    endloop
  endfacet
  facet normal 0 0 1
    outer loop
      vertex 7.82172 49.3844 62
      vertex 11.2054 46.6738 62
      vertex 11.6723 48.6185 62
    endloop
  endfacet
  facet normal 0 0 1
    outer loop
      vertex 7.82172 49.3844 62
      vertex 7.50885 47.409 62
      vertex 11.2054 46.6738 62
    endloop
  endfacet
  facet normal 0 0 1
    outer loop
      vertex 3.92295 49.8459 62
      vertex 7.50885 47.409 62
      vertex 7.82172 49.3844 62
    endloop
  endfacet
  facet normal 0 0 1
    outer loop
      vertex 3.92295 49.8459 62
      vertex 3.76604 47.852 62
      vertex 7.50885 47.409 62
    endloop
  endfacet
  facet normal 0 0 1
    outer loop
      vertex 0 50 62
      vertex 3.76604 47.852 62
      vertex 3.92295 49.8459 62
    endloop
  endfacet
  facet normal 0 0 1
    outer loop
      vertex 3.76604 47.852 62
      vertex 0 50 62
      vertex 0 48 62
    endloop
  endfacet
  facet normal -0 0 1
    outer loop
      vertex 50 0 62
      vertex 59 -2 62
      vertex 59 0 62
    endloop
  endfacet
  facet normal 0 0 1
    outer loop
      vertex 47.852 3.76604 62
      vertex 49.8459 3.92295 62
      vertex 49.3844 7.82172 62
    endloop
  endfacet
  facet normal 0 0 1
    outer loop
      vertex 47.409 7.50885 62
      vertex 49.3844 7.82172 62
      vertex 48.6185 11.6723 62
    endloop
  endfacet
  facet normal 0 0 1
    outer loop
      vertex 49.8459 3.92295 62
      vertex 48 0 62
      vertex 50 0 62
    endloop
  endfacet
  facet normal 0 0 1
    outer loop
      vertex 47.9214 -2 62
      vertex 50 0 62
      vertex 48 0 62
    endloop
  endfacet
  facet normal 0 0 1
    outer loop
      vertex 50 0 62
      vertex 47.9214 -2 62
      vertex 59 -2 62
    endloop
  endfacet
  facet normal 0.706834 0.0277748 -0.706834
    outer loop
      vertex 53 0 20
      vertex 52.8366 4.15833 20
      vertex 57 0 24
    endloop
  endfacet
  facet normal 0.588166 0.392991 -0.706837
    outer loop
      vertex 48.6005 29.7824 24
      vertex 45.1899 27.6924 20
      vertex 46.114 33.5038 24
    endloop
  endfacet
  facet normal 0.519455 0.480163 -0.70683
    outer loop
      vertex 43.3431 37.0185 24
      vertex 37.4767 37.4767 20
      vertex 40.3051 40.3051 24
    endloop
  endfacet
  facet normal 0.693784 0.138007 -0.706836
    outer loop
      vertex 52.3475 8.29103 20
      vertex 51.5356 12.3726 20
      vertex 55.4251 13.3064 24
    endloop
  endfacet
  facet normal 0.702482 0.0831379 -0.706829
    outer loop
      vertex 52.8366 4.15833 20
      vertex 52.3475 8.29103 20
      vertex 56.2982 8.91676 24
    endloop
  endfacet
  facet normal 0.555503 0.437944 -0.706839
    outer loop
      vertex 46.114 33.5038 24
      vertex 42.8779 31.1526 20
      vertex 43.3431 37.0185 24
    endloop
  endfacet
  facet normal 0.693793 0.137996 -0.706829
    outer loop
      vertex 56.2982 8.91676 24
      vertex 52.3475 8.29103 20
      vertex 55.4251 13.3064 24
    endloop
  endfacet
  facet normal 0.192015 0.680818 -0.706836
    outer loop
      vertex 17.614 54.2102 24
      vertex 12.3726 51.5356 20
      vertex 13.3064 55.4251 24
    endloop
  endfacet
  facet normal 0.138007 0.693784 -0.706836
    outer loop
      vertex 12.3726 51.5356 20
      vertex 8.29103 52.3475 20
      vertex 13.3064 55.4251 24
    endloop
  endfacet
  facet normal 0.663656 0.244837 -0.706835
    outer loop
      vertex 54.2102 17.614 24
      vertex 48.9656 20.2822 20
      vertex 52.6611 21.813 24
    endloop
  endfacet
  facet normal 0.137996 0.693793 -0.706829
    outer loop
      vertex 13.3064 55.4251 24
      vertex 8.29103 52.3475 20
      vertex 8.91676 56.2982 24
    endloop
  endfacet
  facet normal 0.680823 0.19201 -0.706833
    outer loop
      vertex 51.5356 12.3726 20
      vertex 50.406 16.3779 20
      vertex 54.2102 17.614 24
    endloop
  endfacet
  facet normal 0.480158 0.519457 -0.706833
    outer loop
      vertex 37.4767 37.4767 20
      vertex 34.4207 40.3015 20
      vertex 37.0185 43.3431 24
    endloop
  endfacet
  facet normal 0.617179 0.345645 -0.706837
    outer loop
      vertex 50.7874 25.8775 24
      vertex 45.1899 27.6924 20
      vertex 48.6005 29.7824 24
    endloop
  endfacet
  facet normal 0.0831507 0.702473 -0.706837
    outer loop
      vertex 8.91676 56.2982 24
      vertex 4.15833 52.8366 20
      vertex 4.47217 56.8243 24
    endloop
  endfacet
  facet normal 0.0277748 0.706834 -0.706834
    outer loop
      vertex 4.15833 52.8366 20
      vertex 0 53 20
      vertex 0 57 24
    endloop
  endfacet
  facet normal 0.480163 0.519455 -0.70683
    outer loop
      vertex 37.4767 37.4767 20
      vertex 37.0185 43.3431 24
      vertex 40.3051 40.3051 24
    endloop
  endfacet
  facet normal 0.706831 0.0277696 -0.706837
    outer loop
      vertex 57 0 24
      vertex 52.8366 4.15833 20
      vertex 56.8243 4.47217 24
    endloop
  endfacet
  facet normal 0.702473 0.0831507 -0.706837
    outer loop
      vertex 56.8243 4.47217 24
      vertex 52.8366 4.15833 20
      vertex 56.2982 8.91676 24
    endloop
  endfacet
  facet normal 0.29614 0.642399 -0.706841
    outer loop
      vertex 24.0615 47.2233 20
      vertex 21.813 52.6611 24
      vertex 25.8775 50.7874 24
    endloop
  endfacet
  facet normal 0.392991 0.588166 -0.706837
    outer loop
      vertex 33.5038 46.114 24
      vertex 27.6924 45.1899 20
      vertex 29.7824 48.6005 24
    endloop
  endfacet
  facet normal 0.244841 0.663657 -0.706833
    outer loop
      vertex 20.2822 48.9656 20
      vertex 16.3779 50.406 20
      vertex 17.614 54.2102 24
    endloop
  endfacet
  facet normal 0.680818 0.192015 -0.706836
    outer loop
      vertex 55.4251 13.3064 24
      vertex 51.5356 12.3726 20
      vertex 54.2102 17.614 24
    endloop
  endfacet
  facet normal 0.437944 0.555503 -0.706839
    outer loop
      vertex 37.0185 43.3431 24
      vertex 31.1526 42.8779 20
      vertex 33.5038 46.114 24
    endloop
  endfacet
  facet normal 0.0277696 0.706831 -0.706837
    outer loop
      vertex 4.15833 52.8366 20
      vertex 0 57 24
      vertex 4.47217 56.8243 24
    endloop
  endfacet
  facet normal 0.663657 0.244841 -0.706833
    outer loop
      vertex 50.406 16.3779 20
      vertex 48.9656 20.2822 20
      vertex 54.2102 17.614 24
    endloop
  endfacet
  facet normal 0.617179 0.345637 -0.706841
    outer loop
      vertex 47.2233 24.0615 20
      vertex 45.1899 27.6924 20
      vertex 50.7874 25.8775 24
    endloop
  endfacet
  facet normal 0.244837 0.663656 -0.706835
    outer loop
      vertex 20.2822 48.9656 20
      vertex 17.614 54.2102 24
      vertex 21.813 52.6611 24
    endloop
  endfacet
  facet normal 0.296154 0.6424 -0.706835
    outer loop
      vertex 24.0615 47.2233 20
      vertex 20.2822 48.9656 20
      vertex 21.813 52.6611 24
    endloop
  endfacet
  facet normal 0.588163 0.392992 -0.706839
    outer loop
      vertex 45.1899 27.6924 20
      vertex 42.8779 31.1526 20
      vertex 46.114 33.5038 24
    endloop
  endfacet
  facet normal 0.519457 0.480158 -0.706833
    outer loop
      vertex 40.3015 34.4207 20
      vertex 37.4767 37.4767 20
      vertex 43.3431 37.0185 24
    endloop
  endfacet
  facet normal 0.345645 0.617179 -0.706837
    outer loop
      vertex 27.6924 45.1899 20
      vertex 25.8775 50.7874 24
      vertex 29.7824 48.6005 24
    endloop
  endfacet
  facet normal 0.345637 0.617179 -0.706841
    outer loop
      vertex 27.6924 45.1899 20
      vertex 24.0615 47.2233 20
      vertex 25.8775 50.7874 24
    endloop
  endfacet
  facet normal 0.0831379 0.702482 -0.706829
    outer loop
      vertex 8.29103 52.3475 20
      vertex 4.15833 52.8366 20
      vertex 8.91676 56.2982 24
    endloop
  endfacet
  facet normal 0.19201 0.680823 -0.706833
    outer loop
      vertex 16.3779 50.406 20
      vertex 12.3726 51.5356 20
      vertex 17.614 54.2102 24
    endloop
  endfacet
  facet normal 0.437939 0.555515 -0.706833
    outer loop
      vertex 34.4207 40.3015 20
      vertex 31.1526 42.8779 20
      vertex 37.0185 43.3431 24
    endloop
  endfacet
  facet normal 0.555515 0.437939 -0.706833
    outer loop
      vertex 42.8779 31.1526 20
      vertex 40.3015 34.4207 20
      vertex 43.3431 37.0185 24
    endloop
  endfacet
  facet normal 0.6424 0.296154 -0.706835
    outer loop
      vertex 48.9656 20.2822 20
      vertex 47.2233 24.0615 20
      vertex 52.6611 21.813 24
    endloop
  endfacet
  facet normal 0.642399 0.29614 -0.706841
    outer loop
      vertex 52.6611 21.813 24
      vertex 47.2233 24.0615 20
      vertex 50.7874 25.8775 24
    endloop
  endfacet
  facet normal 0.392992 0.588163 -0.706839
    outer loop
      vertex 31.1526 42.8779 20
      vertex 27.6924 45.1899 20
      vertex 33.5038 46.114 24
    endloop
  endfacet
  facet normal 0.993067 0.117548 0
    outer loop
      vertex 56.8243 4.47217 25
      vertex 56.2982 8.91676 24
      vertex 56.2982 8.91676 25
    endloop
  endfacet
  facet normal 0.993067 0.117548 0
    outer loop
      vertex 56.2982 8.91676 24
      vertex 56.8243 4.47217 25
      vertex 56.8243 4.47217 24
    endloop
  endfacet
  facet normal 0.999229 0.0392571 0
    outer loop
      vertex 57 0 25
      vertex 56.8243 4.47217 24
      vertex 56.8243 4.47217 25
    endloop
  endfacet
  facet normal 0.999229 0.0392571 0
    outer loop
      vertex 56.8243 4.47217 24
      vertex 57 0 25
      vertex 57 0 24
    endloop
  endfacet
  facet normal 0.962453 0.271447 0
    outer loop
      vertex 55.4251 13.3064 25
      vertex 54.2102 17.614 24
      vertex 54.2102 17.614 25
    endloop
  endfacet
  facet normal 0.962453 0.271447 0
    outer loop
      vertex 54.2102 17.614 24
      vertex 55.4251 13.3064 25
      vertex 55.4251 13.3064 24
    endloop
  endfacet
  facet normal 0.48863 0.872491 -0
    outer loop
      vertex 29.7824 48.6005 24
      vertex 25.8775 50.7874 25
      vertex 29.7824 48.6005 25
    endloop
  endfacet
  facet normal 0.48863 0.872491 0
    outer loop
      vertex 25.8775 50.7874 25
      vertex 29.7824 48.6005 24
      vertex 25.8775 50.7874 24
    endloop
  endfacet
  facet normal 0.346118 0.938191 -0
    outer loop
      vertex 21.813 52.6611 24
      vertex 17.614 54.2102 25
      vertex 21.813 52.6611 25
    endloop
  endfacet
  facet normal 0.346118 0.938191 0
    outer loop
      vertex 17.614 54.2102 25
      vertex 21.813 52.6611 24
      vertex 17.614 54.2102 24
    endloop
  endfacet
  facet normal 0.271447 0.962453 -0
    outer loop
      vertex 17.614 54.2102 24
      vertex 13.3064 55.4251 25
      vertex 17.614 54.2102 25
    endloop
  endfacet
  facet normal 0.271447 0.962453 0
    outer loop
      vertex 13.3064 55.4251 25
      vertex 17.614 54.2102 24
      vertex 13.3064 55.4251 24
    endloop
  endfacet
  facet normal 0.418649 0.908148 -0
    outer loop
      vertex 25.8775 50.7874 24
      vertex 21.813 52.6611 25
      vertex 25.8775 50.7874 25
    endloop
  endfacet
  facet normal 0.418649 0.908148 0
    outer loop
      vertex 21.813 52.6611 25
      vertex 25.8775 50.7874 24
      vertex 21.813 52.6611 24
    endloop
  endfacet
  facet normal 0.195079 0.980788 -0
    outer loop
      vertex 13.3064 55.4251 24
      vertex 8.91676 56.2982 25
      vertex 13.3064 55.4251 25
    endloop
  endfacet
  facet normal 0.195079 0.980788 0
    outer loop
      vertex 8.91676 56.2982 25
      vertex 13.3064 55.4251 24
      vertex 8.91676 56.2982 24
    endloop
  endfacet
  facet normal 0.785302 0.619112 0
    outer loop
      vertex 46.114 33.5038 25
      vertex 43.3431 37.0185 24
      vertex 43.3431 37.0185 25
    endloop
  endfacet
  facet normal 0.785302 0.619112 0
    outer loop
      vertex 43.3431 37.0185 24
      vertex 46.114 33.5038 25
      vertex 46.114 33.5038 24
    endloop
  endfacet
  facet normal 0.0392571 0.999229 -0
    outer loop
      vertex 4.47217 56.8243 24
      vertex 0 57 25
      vertex 4.47217 56.8243 25
    endloop
  endfacet
  facet normal 0.0392571 0.999229 0
    outer loop
      vertex 0 57 25
      vertex 4.47217 56.8243 24
      vertex 0 57 24
    endloop
  endfacet
  facet normal 0.938191 0.346118 0
    outer loop
      vertex 54.2102 17.614 25
      vertex 52.6611 21.813 24
      vertex 52.6611 21.813 25
    endloop
  endfacet
  facet normal 0.938191 0.346118 0
    outer loop
      vertex 52.6611 21.813 24
      vertex 54.2102 17.614 25
      vertex 54.2102 17.614 24
    endloop
  endfacet
  facet normal 0.908148 0.418649 0
    outer loop
      vertex 52.6611 21.813 25
      vertex 50.7874 25.8775 24
      vertex 50.7874 25.8775 25
    endloop
  endfacet
  facet normal 0.908148 0.418649 0
    outer loop
      vertex 50.7874 25.8775 24
      vertex 52.6611 21.813 25
      vertex 52.6611 21.813 24
    endloop
  endfacet
  facet normal 0.872491 0.48863 0
    outer loop
      vertex 50.7874 25.8775 25
      vertex 48.6005 29.7824 24
      vertex 48.6005 29.7824 25
    endloop
  endfacet
  facet normal 0.872491 0.48863 0
    outer loop
      vertex 48.6005 29.7824 24
      vertex 50.7874 25.8775 25
      vertex 50.7874 25.8775 24
    endloop
  endfacet
  facet normal 0.555561 0.831476 -0
    outer loop
      vertex 33.5038 46.114 24
      vertex 29.7824 48.6005 25
      vertex 33.5038 46.114 25
    endloop
  endfacet
  facet normal 0.555561 0.831476 0
    outer loop
      vertex 29.7824 48.6005 25
      vertex 33.5038 46.114 24
      vertex 29.7824 48.6005 24
    endloop
  endfacet
  facet normal 0.734334 0.678788 0
    outer loop
      vertex 43.3431 37.0185 25
      vertex 40.3051 40.3051 24
      vertex 40.3051 40.3051 25
    endloop
  endfacet
  facet normal 0.734334 0.678788 0
    outer loop
      vertex 40.3051 40.3051 24
      vertex 43.3431 37.0185 25
      vertex 43.3431 37.0185 24
    endloop
  endfacet
  facet normal 0.980788 0.195079 0
    outer loop
      vertex 56.2982 8.91676 25
      vertex 55.4251 13.3064 24
      vertex 55.4251 13.3064 25
    endloop
  endfacet
  facet normal 0.980788 0.195079 0
    outer loop
      vertex 55.4251 13.3064 24
      vertex 56.2982 8.91676 25
      vertex 56.2982 8.91676 24
    endloop
  endfacet
  facet normal 0.117548 0.993067 -0
    outer loop
      vertex 8.91676 56.2982 24
      vertex 4.47217 56.8243 25
      vertex 8.91676 56.2982 25
    endloop
  endfacet
  facet normal 0.117548 0.993067 0
    outer loop
      vertex 4.47217 56.8243 25
      vertex 8.91676 56.2982 24
      vertex 4.47217 56.8243 24
    endloop
  endfacet
  facet normal 0.619112 0.785302 -0
    outer loop
      vertex 37.0185 43.3431 24
      vertex 33.5038 46.114 25
      vertex 37.0185 43.3431 25
    endloop
  endfacet
  facet normal 0.619112 0.785302 0
    outer loop
      vertex 33.5038 46.114 25
      vertex 37.0185 43.3431 24
      vertex 33.5038 46.114 24
    endloop
  endfacet
  facet normal 0.678788 0.734334 -0
    outer loop
      vertex 40.3051 40.3051 24
      vertex 37.0185 43.3431 25
      vertex 40.3051 40.3051 25
    endloop
  endfacet
  facet normal 0.678788 0.734334 0
    outer loop
      vertex 37.0185 43.3431 25
      vertex 40.3051 40.3051 24
      vertex 37.0185 43.3431 24
    endloop
  endfacet
  facet normal 0.831476 0.555561 0
    outer loop
      vertex 48.6005 29.7824 25
      vertex 46.114 33.5038 24
      vertex 46.114 33.5038 25
    endloop
  endfacet
  facet normal 0.831476 0.555561 0
    outer loop
      vertex 46.114 33.5038 24
      vertex 48.6005 29.7824 25
      vertex 48.6005 29.7824 24
    endloop
  endfacet
  facet normal 0 0 1
    outer loop
      vertex 53.8335 4.23679 25
      vertex 56.8243 4.47217 25
      vertex 56.2982 8.91676 25
    endloop
  endfacet
  facet normal 0 0 1
    outer loop
      vertex 53.3352 8.44746 25
      vertex 56.2982 8.91676 25
      vertex 55.4251 13.3064 25
    endloop
  endfacet
  facet normal 0 0 1
    outer loop
      vertex 52.508 12.606 25
      vertex 55.4251 13.3064 25
      vertex 54.2102 17.614 25
    endloop
  endfacet
  facet normal 0 -0 1
    outer loop
      vertex 53.8335 4.23679 25
      vertex 56.2982 8.91676 25
      vertex 53.3352 8.44746 25
    endloop
  endfacet
  facet normal 0 0 1
    outer loop
      vertex 57 0 25
      vertex 53.8335 4.23679 25
      vertex 54 0 25
    endloop
  endfacet
  facet normal 0 0 1
    outer loop
      vertex 56.8243 4.47217 25
      vertex 53.8335 4.23679 25
      vertex 57 0 25
    endloop
  endfacet
  facet normal 0 0 1
    outer loop
      vertex 51.3571 16.6869 25
      vertex 54.2102 17.614 25
      vertex 52.6611 21.813 25
    endloop
  endfacet
  facet normal 0 0 1
    outer loop
      vertex 55.4251 13.3064 25
      vertex 52.508 12.606 25
      vertex 53.3352 8.44746 25
    endloop
  endfacet
  facet normal 0 0 1
    outer loop
      vertex 54.2102 17.614 25
      vertex 51.3571 16.6869 25
      vertex 52.508 12.606 25
    endloop
  endfacet
  facet normal 0 0 1
    outer loop
      vertex 49.8895 20.6649 25
      vertex 52.6611 21.813 25
      vertex 50.7874 25.8775 25
    endloop
  endfacet
  facet normal 0 0 1
    outer loop
      vertex 52.6611 21.813 25
      vertex 49.8895 20.6649 25
      vertex 51.3571 16.6869 25
    endloop
  endfacet
  facet normal 0 0 1
    outer loop
      vertex 48.1144 24.5155 25
      vertex 50.7874 25.8775 25
      vertex 48.6005 29.7824 25
    endloop
  endfacet
  facet normal 0 0 1
    outer loop
      vertex 50.7874 25.8775 25
      vertex 48.1144 24.5155 25
      vertex 49.8895 20.6649 25
    endloop
  endfacet
  facet normal 0 0 1
    outer loop
      vertex 46.0426 28.2149 25
      vertex 48.6005 29.7824 25
      vertex 46.114 33.5038 25
    endloop
  endfacet
  facet normal 0 0 1
    outer loop
      vertex 48.6005 29.7824 25
      vertex 46.0426 28.2149 25
      vertex 48.1144 24.5155 25
    endloop
  endfacet
  facet normal 0 0 1
    outer loop
      vertex 46.114 33.5038 25
      vertex 43.6869 31.7404 25
      vertex 46.0426 28.2149 25
    endloop
  endfacet
  facet normal 0 0 1
    outer loop
      vertex 43.3431 37.0185 25
      vertex 43.6869 31.7404 25
      vertex 46.114 33.5038 25
    endloop
  endfacet
  facet normal 0 0 1
    outer loop
      vertex 43.3431 37.0185 25
      vertex 41.0619 35.0702 25
      vertex 43.6869 31.7404 25
    endloop
  endfacet
  facet normal 0 0 1
    outer loop
      vertex 40.3051 40.3051 25
      vertex 41.0619 35.0702 25
      vertex 43.3431 37.0185 25
    endloop
  endfacet
  facet normal 0 0 1
    outer loop
      vertex 40.3051 40.3051 25
      vertex 38.1838 38.1838 25
      vertex 41.0619 35.0702 25
    endloop
  endfacet
  facet normal 0 0 1
    outer loop
      vertex 37.0185 43.3431 25
      vertex 38.1838 38.1838 25
      vertex 40.3051 40.3051 25
    endloop
  endfacet
  facet normal 0 0 1
    outer loop
      vertex 37.0185 43.3431 25
      vertex 35.0702 41.0619 25
      vertex 38.1838 38.1838 25
    endloop
  endfacet
  facet normal 0 0 1
    outer loop
      vertex 33.5038 46.114 25
      vertex 35.0702 41.0619 25
      vertex 37.0185 43.3431 25
    endloop
  endfacet
  facet normal 0 0 1
    outer loop
      vertex 33.5038 46.114 25
      vertex 31.7404 43.6869 25
      vertex 35.0702 41.0619 25
    endloop
  endfacet
  facet normal 0 0 1
    outer loop
      vertex 29.7824 48.6005 25
      vertex 31.7404 43.6869 25
      vertex 33.5038 46.114 25
    endloop
  endfacet
  facet normal 0 0 1
    outer loop
      vertex 29.7824 48.6005 25
      vertex 28.2149 46.0426 25
      vertex 31.7404 43.6869 25
    endloop
  endfacet
  facet normal 0 0 1
    outer loop
      vertex 25.8775 50.7874 25
      vertex 28.2149 46.0426 25
      vertex 29.7824 48.6005 25
    endloop
  endfacet
  facet normal 0 0 1
    outer loop
      vertex 25.8775 50.7874 25
      vertex 24.5155 48.1144 25
      vertex 28.2149 46.0426 25
    endloop
  endfacet
  facet normal 0 0 1
    outer loop
      vertex 21.813 52.6611 25
      vertex 24.5155 48.1144 25
      vertex 25.8775 50.7874 25
    endloop
  endfacet
  facet normal 0 0 1
    outer loop
      vertex 21.813 52.6611 25
      vertex 20.6649 49.8895 25
      vertex 24.5155 48.1144 25
    endloop
  endfacet
  facet normal 0 0 1
    outer loop
      vertex 17.614 54.2102 25
      vertex 20.6649 49.8895 25
      vertex 21.813 52.6611 25
    endloop
  endfacet
  facet normal 0 0 1
    outer loop
      vertex 17.614 54.2102 25
      vertex 16.6869 51.3571 25
      vertex 20.6649 49.8895 25
    endloop
  endfacet
  facet normal 0 0 1
    outer loop
      vertex 13.3064 55.4251 25
      vertex 16.6869 51.3571 25
      vertex 17.614 54.2102 25
    endloop
  endfacet
  facet normal 0 0 1
    outer loop
      vertex 13.3064 55.4251 25
      vertex 12.606 52.508 25
      vertex 16.6869 51.3571 25
    endloop
  endfacet
  facet normal 0 0 1
    outer loop
      vertex 8.91676 56.2982 25
      vertex 12.606 52.508 25
      vertex 13.3064 55.4251 25
    endloop
  endfacet
  facet normal 0 0 1
    outer loop
      vertex 8.91676 56.2982 25
      vertex 8.44746 53.3352 25
      vertex 12.606 52.508 25
    endloop
  endfacet
  facet normal 0 0 1
    outer loop
      vertex 4.47217 56.8243 25
      vertex 8.44746 53.3352 25
      vertex 8.91676 56.2982 25
    endloop
  endfacet
  facet normal 0 0 1
    outer loop
      vertex 4.47217 56.8243 25
      vertex 4.23679 53.8335 25
      vertex 8.44746 53.3352 25
    endloop
  endfacet
  facet normal 0 0 1
    outer loop
      vertex 0 57 25
      vertex 4.23679 53.8335 25
      vertex 4.47217 56.8243 25
    endloop
  endfacet
  facet normal 0 0 1
    outer loop
      vertex 4.23679 53.8335 25
      vertex 0 57 25
      vertex 0 54 25
    endloop
  endfacet
  facet normal 0 0 1
    outer loop
      vertex 50.3443 3.96218 25
      vertex 53.8335 4.23679 25
      vertex 53.3352 8.44746 25
    endloop
  endfacet
  facet normal 0 0 1
    outer loop
      vertex 49.8783 7.89994 25
      vertex 53.3352 8.44746 25
      vertex 52.508 12.606 25
    endloop
  endfacet
  facet normal 0 0 1
    outer loop
      vertex 49.1047 11.789 25
      vertex 52.508 12.606 25
      vertex 51.3571 16.6869 25
    endloop
  endfacet
  facet normal 0 -0 1
    outer loop
      vertex 50.3443 3.96218 25
      vertex 53.3352 8.44746 25
      vertex 49.8783 7.89994 25
    endloop
  endfacet
  facet normal 0 0 1
    outer loop
      vertex 54 0 25
      vertex 50.3443 3.96218 25
      vertex 50.5 0 25
    endloop
  endfacet
  facet normal 0 0 1
    outer loop
      vertex 48.0284 15.6054 25
      vertex 51.3571 16.6869 25
      vertex 49.8895 20.6649 25
    endloop
  endfacet
  facet normal 0 0 1
    outer loop
      vertex 53.8335 4.23679 25
      vertex 50.3443 3.96218 25
      vertex 54 0 25
    endloop
  endfacet
  facet normal 0 0 1
    outer loop
      vertex 52.508 12.606 25
      vertex 49.1047 11.789 25
      vertex 49.8783 7.89994 25
    endloop
  endfacet
  facet normal 0 0 1
    outer loop
      vertex 46.6559 19.3255 25
      vertex 49.8895 20.6649 25
      vertex 48.1144 24.5155 25
    endloop
  endfacet
  facet normal 0 0 1
    outer loop
      vertex 51.3571 16.6869 25
      vertex 48.0284 15.6054 25
      vertex 49.1047 11.789 25
    endloop
  endfacet
  facet normal 0 0 1
    outer loop
      vertex 49.8895 20.6649 25
      vertex 46.6559 19.3255 25
      vertex 48.0284 15.6054 25
    endloop
  endfacet
  facet normal 0 0 1
    outer loop
      vertex 44.9958 22.9265 25
      vertex 48.1144 24.5155 25
      vertex 46.0426 28.2149 25
    endloop
  endfacet
  facet normal 0 0 1
    outer loop
      vertex 48.1144 24.5155 25
      vertex 44.9958 22.9265 25
      vertex 46.6559 19.3255 25
    endloop
  endfacet
  facet normal 0 0 1
    outer loop
      vertex 43.0583 26.3862 25
      vertex 46.0426 28.2149 25
      vertex 43.6869 31.7404 25
    endloop
  endfacet
  facet normal 0 0 1
    outer loop
      vertex 46.0426 28.2149 25
      vertex 43.0583 26.3862 25
      vertex 44.9958 22.9265 25
    endloop
  endfacet
  facet normal 0 0 1
    outer loop
      vertex 40.8554 29.6832 25
      vertex 43.6869 31.7404 25
      vertex 41.0619 35.0702 25
    endloop
  endfacet
  facet normal 0 0 1
    outer loop
      vertex 43.6869 31.7404 25
      vertex 40.8554 29.6832 25
      vertex 43.0583 26.3862 25
    endloop
  endfacet
  facet normal 0 0 1
    outer loop
      vertex 41.0619 35.0702 25
      vertex 38.4005 32.7971 25
      vertex 40.8554 29.6832 25
    endloop
  endfacet
  facet normal 0 0 1
    outer loop
      vertex 38.1838 38.1838 25
      vertex 38.4005 32.7971 25
      vertex 41.0619 35.0702 25
    endloop
  endfacet
  facet normal 0 0 1
    outer loop
      vertex 38.1838 38.1838 25
      vertex 35.7089 35.7089 25
      vertex 38.4005 32.7971 25
    endloop
  endfacet
  facet normal 0 0 1
    outer loop
      vertex 35.0702 41.0619 25
      vertex 35.7089 35.7089 25
      vertex 38.1838 38.1838 25
    endloop
  endfacet
  facet normal 0 0 1
    outer loop
      vertex 35.0702 41.0619 25
      vertex 32.7971 38.4005 25
      vertex 35.7089 35.7089 25
    endloop
  endfacet
  facet normal 0 0 1
    outer loop
      vertex 31.7404 43.6869 25
      vertex 32.7971 38.4005 25
      vertex 35.0702 41.0619 25
    endloop
  endfacet
  facet normal 0 0 1
    outer loop
      vertex 31.7404 43.6869 25
      vertex 29.6832 40.8554 25
      vertex 32.7971 38.4005 25
    endloop
  endfacet
  facet normal 0 0 1
    outer loop
      vertex 28.2149 46.0426 25
      vertex 29.6832 40.8554 25
      vertex 31.7404 43.6869 25
    endloop
  endfacet
  facet normal 0 0 1
    outer loop
      vertex 28.2149 46.0426 25
      vertex 26.3862 43.0583 25
      vertex 29.6832 40.8554 25
    endloop
  endfacet
  facet normal 0 0 1
    outer loop
      vertex 24.5155 48.1144 25
      vertex 26.3862 43.0583 25
      vertex 28.2149 46.0426 25
    endloop
  endfacet
  facet normal 0 0 1
    outer loop
      vertex 24.5155 48.1144 25
      vertex 22.9265 44.9958 25
      vertex 26.3862 43.0583 25
    endloop
  endfacet
  facet normal 0 0 1
    outer loop
      vertex 20.6649 49.8895 25
      vertex 22.9265 44.9958 25
      vertex 24.5155 48.1144 25
    endloop
  endfacet
  facet normal 0 0 1
    outer loop
      vertex 20.6649 49.8895 25
      vertex 19.3255 46.6559 25
      vertex 22.9265 44.9958 25
    endloop
  endfacet
  facet normal 0 0 1
    outer loop
      vertex 16.6869 51.3571 25
      vertex 19.3255 46.6559 25
      vertex 20.6649 49.8895 25
    endloop
  endfacet
  facet normal 0 0 1
    outer loop
      vertex 16.6869 51.3571 25
      vertex 15.6054 48.0284 25
      vertex 19.3255 46.6559 25
    endloop
  endfacet
  facet normal 0 0 1
    outer loop
      vertex 12.606 52.508 25
      vertex 15.6054 48.0284 25
      vertex 16.6869 51.3571 25
    endloop
  endfacet
  facet normal 0 0 1
    outer loop
      vertex 12.606 52.508 25
      vertex 11.789 49.1047 25
      vertex 15.6054 48.0284 25
    endloop
  endfacet
  facet normal 0 0 1
    outer loop
      vertex 8.44746 53.3352 25
      vertex 11.789 49.1047 25
      vertex 12.606 52.508 25
    endloop
  endfacet
  facet normal 0 0 1
    outer loop
      vertex 8.44746 53.3352 25
      vertex 7.89994 49.8783 25
      vertex 11.789 49.1047 25
    endloop
  endfacet
  facet normal 0 0 1
    outer loop
      vertex 4.23679 53.8335 25
      vertex 7.89994 49.8783 25
      vertex 8.44746 53.3352 25
    endloop
  endfacet
  facet normal 0 0 1
    outer loop
      vertex 4.23679 53.8335 25
      vertex 3.96218 50.3443 25
      vertex 7.89994 49.8783 25
    endloop
  endfacet
  facet normal 0 0 1
    outer loop
      vertex 0 54 25
      vertex 3.96218 50.3443 25
      vertex 4.23679 53.8335 25
    endloop
  endfacet
  facet normal 0 0 1
    outer loop
      vertex 3.96218 50.3443 25
      vertex 0 54 25
      vertex 0 50.5 25
    endloop
  endfacet
  facet normal 0 1 0
    outer loop
      vertex 59 0 62
      vertex 53 0 54
      vertex 50 0 62
    endloop
  endfacet
  facet normal 0 1 0
    outer loop
      vertex 59 0 62
      vertex 54 0 44
      vertex 53 0 54
    endloop
  endfacet
  facet normal 0 1 0
    outer loop
      vertex 59 0 62
      vertex 57 0 25
      vertex 54 0 44
    endloop
  endfacet
  facet normal 0 1 -0
    outer loop
      vertex 59 0 3
      vertex 57 0 25
      vertex 59 0 62
    endloop
  endfacet
  facet normal 0 1 0
    outer loop
      vertex 57 0 25
      vertex 59 0 3
      vertex 57 0 24
    endloop
  endfacet
  facet normal 0 1 0
    outer loop
      vertex 59 0 3
      vertex 53 0 20
      vertex 57 0 24
    endloop
  endfacet
  facet normal 0 1 0
    outer loop
      vertex 53 0 20
      vertex 59 0 3
      vertex 53 0 3
    endloop
  endfacet
  facet normal 0 1 0
    outer loop
      vertex 53 0 54
      vertex 54 0 44
      vertex 53 0 44
    endloop
  endfacet
  facet normal 0 1 0
    outer loop
      vertex 54 0 44
      vertex 57 0 25
      vertex 54 0 25
    endloop
  endfacet
  facet normal 0 1 -0
    outer loop
      vertex 54 0 25
      vertex 53 0 44
      vertex 54 0 44
    endloop
  endfacet
  facet normal 0 1 0
    outer loop
      vertex 50.5 0 25
      vertex 53 0 44
      vertex 54 0 25
    endloop
  endfacet
  facet normal 0 1 0
    outer loop
      vertex 53 0 44
      vertex 50.5 0 25
      vertex 50.5 0 44
    endloop
  endfacet
  facet normal 1 0 0
    outer loop
      vertex 0 59 62
      vertex 0 57 25
      vertex 0 59 3
    endloop
  endfacet
  facet normal 1 0 0
    outer loop
      vertex 0 59 62
      vertex 0 54 44
      vertex 0 57 25
    endloop
  endfacet
  facet normal 1 0 0
    outer loop
      vertex 0 59 62
      vertex 0 53 54
      vertex 0 54 44
    endloop
  endfacet
  facet normal 1 0 -0
    outer loop
      vertex 0 53 54
      vertex 0 59 62
      vertex 0 50 62
    endloop
  endfacet
  facet normal 1 -0 0
    outer loop
      vertex 0 57 24
      vertex 0 59 3
      vertex 0 57 25
    endloop
  endfacet
  facet normal 1 -0 0
    outer loop
      vertex 0 53 20
      vertex 0 59 3
      vertex 0 57 24
    endloop
  endfacet
  facet normal 1 0 0
    outer loop
      vertex 0 59 3
      vertex 0 53 20
      vertex 0 53 3
    endloop
  endfacet
  facet normal 1 0 0
    outer loop
      vertex 0 57 25
      vertex 0 54 44
      vertex 0 54 25
    endloop
  endfacet
  facet normal 1 0 0
    outer loop
      vertex 0 54 44
      vertex 0 53 54
      vertex 0 53 44
    endloop
  endfacet
  facet normal 1 -0 0
    outer loop
      vertex 0 53 44
      vertex 0 54 25
      vertex 0 54 44
    endloop
  endfacet
  facet normal 1 0 0
    outer loop
      vertex 0 50.5 25
      vertex 0 53 44
      vertex 0 50.5 44
    endloop
  endfacet
  facet normal 1 0 0
    outer loop
      vertex 0 53 44
      vertex 0 50.5 25
      vertex 0 54 25
    endloop
  endfacet
  facet normal 1 0 0
    outer loop
      vertex 59 0 62
      vertex 59 -2 62
      vertex 59 0 3
    endloop
  endfacet
  facet normal 1 -0 0
    outer loop
      vertex 59 0 3
      vertex 59 59 0
      vertex 59 59 3
    endloop
  endfacet
  facet normal 1 0 0
    outer loop
      vertex 59 0 3
      vertex 59 -2 0
      vertex 59 59 0
    endloop
  endfacet
  facet normal 1 0 0
    outer loop
      vertex 59 -2 0
      vertex 59 0 3
      vertex 59 -2 62
    endloop
  endfacet
  facet normal 0 0 -1
    outer loop
      vertex 30.4056 28.9914 0
      vertex 33.2062 34.6204 0
      vertex 34.6204 33.2062 0
    endloop
  endfacet
  facet normal 0 0 -1
    outer loop
      vertex 33.2062 34.6204 0
      vertex 30.4056 28.9914 0
      vertex 28.9914 30.4056 0
    endloop
  endfacet
  facet normal 0 0 -1
    outer loop
      vertex 47.852 3.76604 0
      vertex 59 -2 0
      vertex 48 0 0
    endloop
  endfacet
  facet normal 0 -0 -1
    outer loop
      vertex 48 0 0
      vertex 59 -2 0
      vertex 47.9214 -2 0
    endloop
  endfacet
  facet normal 0 0 -1
    outer loop
      vertex 47.409 7.50885 0
      vertex 59 -2 0
      vertex 47.852 3.76604 0
    endloop
  endfacet
  facet normal 0 0 -1
    outer loop
      vertex 46.6738 11.2054 0
      vertex 59 -2 0
      vertex 47.409 7.50885 0
    endloop
  endfacet
  facet normal 0 0 -1
    outer loop
      vertex 45.6507 14.8328 0
      vertex 59 -2 0
      vertex 46.6738 11.2054 0
    endloop
  endfacet
  facet normal 0 0 -1
    outer loop
      vertex 59 -2 0
      vertex 45.6507 14.8328 0
      vertex 59 59 0
    endloop
  endfacet
  facet normal 0 0 -1
    outer loop
      vertex 44.3462 18.3688 0
      vertex 59 59 0
      vertex 45.6507 14.8328 0
    endloop
  endfacet
  facet normal 0 0 -1
    outer loop
      vertex 42.7683 21.7915 0
      vertex 59 59 0
      vertex 44.3462 18.3688 0
    endloop
  endfacet
  facet normal 0 0 -1
    outer loop
      vertex 40.9267 25.0799 0
      vertex 59 59 0
      vertex 42.7683 21.7915 0
    endloop
  endfacet
  facet normal 0 0 -1
    outer loop
      vertex 38.8328 28.2137 0
      vertex 59 59 0
      vertex 40.9267 25.0799 0
    endloop
  endfacet
  facet normal 0 0 -1
    outer loop
      vertex 36.4995 31.1735 0
      vertex 59 59 0
      vertex 38.8328 28.2137 0
    endloop
  endfacet
  facet normal 0 0 -1
    outer loop
      vertex 34.6204 33.2062 0
      vertex 59 59 0
      vertex 36.4995 31.1735 0
    endloop
  endfacet
  facet normal 0 0 -1
    outer loop
      vertex 33.2062 34.6204 0
      vertex 59 59 0
      vertex 34.6204 33.2062 0
    endloop
  endfacet
  facet normal 0 0 -1
    outer loop
      vertex 31.1735 36.4995 0
      vertex 59 59 0
      vertex 33.2062 34.6204 0
    endloop
  endfacet
  facet normal 0 0 -1
    outer loop
      vertex 28.2137 38.8328 0
      vertex 59 59 0
      vertex 31.1735 36.4995 0
    endloop
  endfacet
  facet normal 0 0 -1
    outer loop
      vertex 25.0799 40.9267 0
      vertex 59 59 0
      vertex 28.2137 38.8328 0
    endloop
  endfacet
  facet normal 0 0 -1
    outer loop
      vertex 21.7915 42.7683 0
      vertex 59 59 0
      vertex 25.0799 40.9267 0
    endloop
  endfacet
  facet normal 0 0 -1
    outer loop
      vertex 18.3688 44.3462 0
      vertex 59 59 0
      vertex 21.7915 42.7683 0
    endloop
  endfacet
  facet normal 0 0 -1
    outer loop
      vertex 14.8328 45.6507 0
      vertex 59 59 0
      vertex 18.3688 44.3462 0
    endloop
  endfacet
  facet normal 0 0 -1
    outer loop
      vertex -2 59 0
      vertex 14.8328 45.6507 0
      vertex 11.2054 46.6738 0
    endloop
  endfacet
  facet normal 0 0 -1
    outer loop
      vertex -2 59 0
      vertex 11.2054 46.6738 0
      vertex 7.50885 47.409 0
    endloop
  endfacet
  facet normal 0 0 -1
    outer loop
      vertex -2 59 0
      vertex 7.50885 47.409 0
      vertex 3.76604 47.852 0
    endloop
  endfacet
  facet normal 0 0 -1
    outer loop
      vertex -2 59 0
      vertex 3.76604 47.852 0
      vertex 0 48 0
    endloop
  endfacet
  facet normal 0 0 -1
    outer loop
      vertex -2 59 0
      vertex 0 48 0
      vertex -2 47.9214 0
    endloop
  endfacet
  facet normal 0 0 -1
    outer loop
      vertex 14.8328 45.6507 0
      vertex -2 59 0
      vertex 59 59 0
    endloop
  endfacet
  facet normal 0 -1 0
    outer loop
      vertex 47.9214 -2 0
      vertex 59 -2 62
      vertex 47.9214 -2 62
    endloop
  endfacet
  facet normal 0 -1 -0
    outer loop
      vertex 59 -2 62
      vertex 47.9214 -2 0
      vertex 59 -2 0
    endloop
  endfacet
  facet normal -1 0 0
    outer loop
      vertex -2 47.9214 0
      vertex -2 59 62
      vertex -2 59 0
    endloop
  endfacet
  facet normal -1 -0 0
    outer loop
      vertex -2 59 62
      vertex -2 47.9214 0
      vertex -2 47.9214 62
    endloop
  endfacet
  facet normal 0 1 0
    outer loop
      vertex 59 59 3
      vertex 59 59 0
      vertex 0 59 3
    endloop
  endfacet
  facet normal 0 1 -0
    outer loop
      vertex 0 59 3
      vertex -2 59 62
      vertex 0 59 62
    endloop
  endfacet
  facet normal 0 1 0
    outer loop
      vertex 0 59 3
      vertex -2 59 0
      vertex -2 59 62
    endloop
  endfacet
  facet normal 0 1 0
    outer loop
      vertex -2 59 0
      vertex 0 59 3
      vertex 59 59 0
    endloop
  endfacet
  facet normal -0 0 1
    outer loop
      vertex 50.406 16.3779 3
      vertex 59 0 3
      vertex 59 59 3
    endloop
  endfacet
  facet normal 0 0 1
    outer loop
      vertex 59 0 3
      vertex 52.8366 4.15833 3
      vertex 53 0 3
    endloop
  endfacet
  facet normal 0 0 1
    outer loop
      vertex 59 0 3
      vertex 52.3475 8.29103 3
      vertex 52.8366 4.15833 3
    endloop
  endfacet
  facet normal 0 0 1
    outer loop
      vertex 59 0 3
      vertex 51.5356 12.3726 3
      vertex 52.3475 8.29103 3
    endloop
  endfacet
  facet normal 0 0 1
    outer loop
      vertex 59 0 3
      vertex 50.406 16.3779 3
      vertex 51.5356 12.3726 3
    endloop
  endfacet
  facet normal 0 0 1
    outer loop
      vertex 59 59 3
      vertex 48.9656 20.2822 3
      vertex 50.406 16.3779 3
    endloop
  endfacet
  facet normal 0 0 1
    outer loop
      vertex 59 59 3
      vertex 47.2233 24.0615 3
      vertex 48.9656 20.2822 3
    endloop
  endfacet
  facet normal 0 0 1
    outer loop
      vertex 59 59 3
      vertex 45.1899 27.6924 3
      vertex 47.2233 24.0615 3
    endloop
  endfacet
  facet normal 0 0 1
    outer loop
      vertex 59 59 3
      vertex 42.8779 31.1526 3
      vertex 45.1899 27.6924 3
    endloop
  endfacet
  facet normal 0 0 1
    outer loop
      vertex 59 59 3
      vertex 40.3015 34.4207 3
      vertex 42.8779 31.1526 3
    endloop
  endfacet
  facet normal 0 0 1
    outer loop
      vertex 59 59 3
      vertex 37.4767 37.4767 3
      vertex 40.3015 34.4207 3
    endloop
  endfacet
  facet normal 0 0 1
    outer loop
      vertex 59 59 3
      vertex 34.4207 40.3015 3
      vertex 37.4767 37.4767 3
    endloop
  endfacet
  facet normal 0 0 1
    outer loop
      vertex 59 59 3
      vertex 31.1526 42.8779 3
      vertex 34.4207 40.3015 3
    endloop
  endfacet
  facet normal 0 0 1
    outer loop
      vertex 59 59 3
      vertex 27.6924 45.1899 3
      vertex 31.1526 42.8779 3
    endloop
  endfacet
  facet normal 0 0 1
    outer loop
      vertex 59 59 3
      vertex 24.0615 47.2233 3
      vertex 27.6924 45.1899 3
    endloop
  endfacet
  facet normal 0 0 1
    outer loop
      vertex 59 59 3
      vertex 20.2822 48.9656 3
      vertex 24.0615 47.2233 3
    endloop
  endfacet
  facet normal 0 0 1
    outer loop
      vertex 59 59 3
      vertex 16.3779 50.406 3
      vertex 20.2822 48.9656 3
    endloop
  endfacet
  facet normal -0 0 1
    outer loop
      vertex 0 59 3
      vertex 16.3779 50.406 3
      vertex 59 59 3
    endloop
  endfacet
  facet normal 0 0 1
    outer loop
      vertex 16.3779 50.406 3
      vertex 0 59 3
      vertex 12.3726 51.5356 3
    endloop
  endfacet
  facet normal 0 0 1
    outer loop
      vertex 12.3726 51.5356 3
      vertex 0 59 3
      vertex 8.29103 52.3475 3
    endloop
  endfacet
  facet normal 0 0 1
    outer loop
      vertex 8.29103 52.3475 3
      vertex 0 59 3
      vertex 4.15833 52.8366 3
    endloop
  endfacet
  facet normal 0 0 1
    outer loop
      vertex 4.15833 52.8366 3
      vertex 0 59 3
      vertex 0 53 3
    endloop
  endfacet
  facet normal 0.0392662 0.999229 -0
    outer loop
      vertex 3.96218 50.3443 25
      vertex 0 50.5 44
      vertex 3.96218 50.3443 44
    endloop
  endfacet
  facet normal 0.0392662 0.999229 0
    outer loop
      vertex 0 50.5 44
      vertex 3.96218 50.3443 25
      vertex 0 50.5 25
    endloop
  endfacet
  facet normal 0.117521 0.99307 -0
    outer loop
      vertex 7.89994 49.8783 25
      vertex 3.96218 50.3443 44
      vertex 7.89994 49.8783 44
    endloop
  endfacet
  facet normal 0.117521 0.99307 0
    outer loop
      vertex 3.96218 50.3443 44
      vertex 7.89994 49.8783 25
      vertex 3.96218 50.3443 25
    endloop
  endfacet
  facet normal 0.195095 0.980784 -0
    outer loop
      vertex 11.789 49.1047 25
      vertex 7.89994 49.8783 44
      vertex 11.789 49.1047 44
    endloop
  endfacet
  facet normal 0.195095 0.980784 0
    outer loop
      vertex 7.89994 49.8783 44
      vertex 11.789 49.1047 25
      vertex 7.89994 49.8783 25
    endloop
  endfacet
  facet normal 0.271432 0.962458 -0
    outer loop
      vertex 15.6054 48.0284 25
      vertex 11.789 49.1047 44
      vertex 15.6054 48.0284 44
    endloop
  endfacet
  facet normal 0.271432 0.962458 0
    outer loop
      vertex 11.789 49.1047 44
      vertex 15.6054 48.0284 25
      vertex 11.789 49.1047 25
    endloop
  endfacet
  facet normal 0.346135 0.938185 -0
    outer loop
      vertex 19.3255 46.6559 25
      vertex 15.6054 48.0284 44
      vertex 19.3255 46.6559 44
    endloop
  endfacet
  facet normal 0.346135 0.938185 0
    outer loop
      vertex 15.6054 48.0284 44
      vertex 19.3255 46.6559 25
      vertex 15.6054 48.0284 25
    endloop
  endfacet
  facet normal 0.418663 0.908142 -0
    outer loop
      vertex 22.9265 44.9958 25
      vertex 19.3255 46.6559 44
      vertex 22.9265 44.9958 44
    endloop
  endfacet
  facet normal 0.418663 0.908142 0
    outer loop
      vertex 19.3255 46.6559 44
      vertex 22.9265 44.9958 25
      vertex 19.3255 46.6559 25
    endloop
  endfacet
  facet normal 0.488616 0.872499 -0
    outer loop
      vertex 26.3862 43.0583 25
      vertex 22.9265 44.9958 44
      vertex 26.3862 43.0583 44
    endloop
  endfacet
  facet normal 0.488616 0.872499 0
    outer loop
      vertex 22.9265 44.9958 44
      vertex 26.3862 43.0583 25
      vertex 22.9265 44.9958 25
    endloop
  endfacet
  facet normal 0.555555 0.83148 -0
    outer loop
      vertex 29.6832 40.8554 25
      vertex 26.3862 43.0583 44
      vertex 29.6832 40.8554 44
    endloop
  endfacet
  facet normal 0.555555 0.83148 0
    outer loop
      vertex 26.3862 43.0583 44
      vertex 29.6832 40.8554 25
      vertex 26.3862 43.0583 25
    endloop
  endfacet
  facet normal 0.619109 0.785305 -0
    outer loop
      vertex 32.7971 38.4005 25
      vertex 29.6832 40.8554 44
      vertex 32.7971 38.4005 44
    endloop
  endfacet
  facet normal 0.619109 0.785305 0
    outer loop
      vertex 29.6832 40.8554 44
      vertex 32.7971 38.4005 25
      vertex 29.6832 40.8554 25
    endloop
  endfacet
  facet normal 0.678795 0.734328 -0
    outer loop
      vertex 35.7089 35.7089 25
      vertex 32.7971 38.4005 44
      vertex 35.7089 35.7089 44
    endloop
  endfacet
  facet normal 0.678795 0.734328 0
    outer loop
      vertex 32.7971 38.4005 44
      vertex 35.7089 35.7089 25
      vertex 32.7971 38.4005 25
    endloop
  endfacet
  facet normal 0.734328 0.678795 0
    outer loop
      vertex 38.4005 32.7971 44
      vertex 35.7089 35.7089 25
      vertex 35.7089 35.7089 44
    endloop
  endfacet
  facet normal 0.734328 0.678795 0
    outer loop
      vertex 35.7089 35.7089 25
      vertex 38.4005 32.7971 44
      vertex 38.4005 32.7971 25
    endloop
  endfacet
  facet normal 0.785305 0.619109 0
    outer loop
      vertex 40.8554 29.6832 44
      vertex 38.4005 32.7971 25
      vertex 38.4005 32.7971 44
    endloop
  endfacet
  facet normal 0.785305 0.619109 0
    outer loop
      vertex 38.4005 32.7971 25
      vertex 40.8554 29.6832 44
      vertex 40.8554 29.6832 25
    endloop
  endfacet
  facet normal 0.83148 0.555555 0
    outer loop
      vertex 43.0583 26.3862 44
      vertex 40.8554 29.6832 25
      vertex 40.8554 29.6832 44
    endloop
  endfacet
  facet normal 0.83148 0.555555 0
    outer loop
      vertex 40.8554 29.6832 25
      vertex 43.0583 26.3862 44
      vertex 43.0583 26.3862 25
    endloop
  endfacet
  facet normal 0.872499 0.488616 0
    outer loop
      vertex 44.9958 22.9265 44
      vertex 43.0583 26.3862 25
      vertex 43.0583 26.3862 44
    endloop
  endfacet
  facet normal 0.872499 0.488616 0
    outer loop
      vertex 43.0583 26.3862 25
      vertex 44.9958 22.9265 44
      vertex 44.9958 22.9265 25
    endloop
  endfacet
  facet normal 0.908142 0.418663 0
    outer loop
      vertex 46.6559 19.3255 44
      vertex 44.9958 22.9265 25
      vertex 44.9958 22.9265 44
    endloop
  endfacet
  facet normal 0.908142 0.418663 0
    outer loop
      vertex 44.9958 22.9265 25
      vertex 46.6559 19.3255 44
      vertex 46.6559 19.3255 25
    endloop
  endfacet
  facet normal 0.938185 0.346135 0
    outer loop
      vertex 48.0284 15.6054 44
      vertex 46.6559 19.3255 25
      vertex 46.6559 19.3255 44
    endloop
  endfacet
  facet normal 0.938185 0.346135 0
    outer loop
      vertex 46.6559 19.3255 25
      vertex 48.0284 15.6054 44
      vertex 48.0284 15.6054 25
    endloop
  endfacet
  facet normal 0.962458 0.271432 0
    outer loop
      vertex 49.1047 11.789 44
      vertex 48.0284 15.6054 25
      vertex 48.0284 15.6054 44
    endloop
  endfacet
  facet normal 0.962458 0.271432 0
    outer loop
      vertex 48.0284 15.6054 25
      vertex 49.1047 11.789 44
      vertex 49.1047 11.789 25
    endloop
  endfacet
  facet normal 0.980784 0.195095 0
    outer loop
      vertex 49.8783 7.89994 44
      vertex 49.1047 11.789 25
      vertex 49.1047 11.789 44
    endloop
  endfacet
  facet normal 0.980784 0.195095 0
    outer loop
      vertex 49.1047 11.789 25
      vertex 49.8783 7.89994 44
      vertex 49.8783 7.89994 25
    endloop
  endfacet
  facet normal 0.99307 0.117521 0
    outer loop
      vertex 50.3443 3.96218 44
      vertex 49.8783 7.89994 25
      vertex 49.8783 7.89994 44
    endloop
  endfacet
  facet normal 0.99307 0.117521 0
    outer loop
      vertex 49.8783 7.89994 25
      vertex 50.3443 3.96218 44
      vertex 50.3443 3.96218 25
    endloop
  endfacet
  facet normal 0.999229 0.0392662 0
    outer loop
      vertex 50.5 0 44
      vertex 50.3443 3.96218 25
      vertex 50.3443 3.96218 44
    endloop
  endfacet
  facet normal 0.999229 0.0392662 0
    outer loop
      vertex 50.3443 3.96218 25
      vertex 50.5 0 44
      vertex 50.5 0 25
    endloop
  endfacet
  facet normal 0 0 -1
    outer loop
      vertex 50.3443 3.96218 44
      vertex 52.8366 4.15833 44
      vertex 53 0 44
    endloop
  endfacet
  facet normal -0 0 -1
    outer loop
      vertex 52.8366 4.15833 44
      vertex 50.3443 3.96218 44
      vertex 52.3475 8.29103 44
    endloop
  endfacet
  facet normal 0 0 -1
    outer loop
      vertex 50.3443 3.96218 44
      vertex 53 0 44
      vertex 50.5 0 44
    endloop
  endfacet
  facet normal 0 0 -1
    outer loop
      vertex 49.8783 7.89994 44
      vertex 52.3475 8.29103 44
      vertex 50.3443 3.96218 44
    endloop
  endfacet
  facet normal -0 0 -1
    outer loop
      vertex 52.3475 8.29103 44
      vertex 49.8783 7.89994 44
      vertex 51.5356 12.3726 44
    endloop
  endfacet
  facet normal 0 0 -1
    outer loop
      vertex 49.1047 11.789 44
      vertex 51.5356 12.3726 44
      vertex 49.8783 7.89994 44
    endloop
  endfacet
  facet normal -0 0 -1
    outer loop
      vertex 51.5356 12.3726 44
      vertex 49.1047 11.789 44
      vertex 50.406 16.3779 44
    endloop
  endfacet
  facet normal 0 0 -1
    outer loop
      vertex 48.0284 15.6054 44
      vertex 50.406 16.3779 44
      vertex 49.1047 11.789 44
    endloop
  endfacet
  facet normal -0 0 -1
    outer loop
      vertex 50.406 16.3779 44
      vertex 48.0284 15.6054 44
      vertex 48.9656 20.2822 44
    endloop
  endfacet
  facet normal 0 0 -1
    outer loop
      vertex 46.6559 19.3255 44
      vertex 48.9656 20.2822 44
      vertex 48.0284 15.6054 44
    endloop
  endfacet
  facet normal -0 0 -1
    outer loop
      vertex 48.9656 20.2822 44
      vertex 46.6559 19.3255 44
      vertex 47.2233 24.0615 44
    endloop
  endfacet
  facet normal 0 0 -1
    outer loop
      vertex 44.9958 22.9265 44
      vertex 47.2233 24.0615 44
      vertex 46.6559 19.3255 44
    endloop
  endfacet
  facet normal -0 0 -1
    outer loop
      vertex 47.2233 24.0615 44
      vertex 44.9958 22.9265 44
      vertex 45.1899 27.6924 44
    endloop
  endfacet
  facet normal 0 0 -1
    outer loop
      vertex 43.0583 26.3862 44
      vertex 45.1899 27.6924 44
      vertex 44.9958 22.9265 44
    endloop
  endfacet
  facet normal 0 0 -1
    outer loop
      vertex 43.0583 26.3862 44
      vertex 42.8779 31.1526 44
      vertex 45.1899 27.6924 44
    endloop
  endfacet
  facet normal 0 0 -1
    outer loop
      vertex 40.8554 29.6832 44
      vertex 42.8779 31.1526 44
      vertex 43.0583 26.3862 44
    endloop
  endfacet
  facet normal 0 0 -1
    outer loop
      vertex 40.8554 29.6832 44
      vertex 40.3015 34.4207 44
      vertex 42.8779 31.1526 44
    endloop
  endfacet
  facet normal 0 0 -1
    outer loop
      vertex 38.4005 32.7971 44
      vertex 40.3015 34.4207 44
      vertex 40.8554 29.6832 44
    endloop
  endfacet
  facet normal 0 0 -1
    outer loop
      vertex 38.4005 32.7971 44
      vertex 37.4767 37.4767 44
      vertex 40.3015 34.4207 44
    endloop
  endfacet
  facet normal 0 0 -1
    outer loop
      vertex 35.7089 35.7089 44
      vertex 37.4767 37.4767 44
      vertex 38.4005 32.7971 44
    endloop
  endfacet
  facet normal 0 0 -1
    outer loop
      vertex 35.7089 35.7089 44
      vertex 34.4207 40.3015 44
      vertex 37.4767 37.4767 44
    endloop
  endfacet
  facet normal 0 0 -1
    outer loop
      vertex 32.7971 38.4005 44
      vertex 34.4207 40.3015 44
      vertex 35.7089 35.7089 44
    endloop
  endfacet
  facet normal 0 0 -1
    outer loop
      vertex 32.7971 38.4005 44
      vertex 31.1526 42.8779 44
      vertex 34.4207 40.3015 44
    endloop
  endfacet
  facet normal 0 0 -1
    outer loop
      vertex 29.6832 40.8554 44
      vertex 31.1526 42.8779 44
      vertex 32.7971 38.4005 44
    endloop
  endfacet
  facet normal 0 0 -1
    outer loop
      vertex 29.6832 40.8554 44
      vertex 27.6924 45.1899 44
      vertex 31.1526 42.8779 44
    endloop
  endfacet
  facet normal 0 0 -1
    outer loop
      vertex 26.3862 43.0583 44
      vertex 27.6924 45.1899 44
      vertex 29.6832 40.8554 44
    endloop
  endfacet
  facet normal 0 0 -1
    outer loop
      vertex 26.3862 43.0583 44
      vertex 24.0615 47.2233 44
      vertex 27.6924 45.1899 44
    endloop
  endfacet
  facet normal 0 0 -1
    outer loop
      vertex 22.9265 44.9958 44
      vertex 24.0615 47.2233 44
      vertex 26.3862 43.0583 44
    endloop
  endfacet
  facet normal 0 0 -1
    outer loop
      vertex 22.9265 44.9958 44
      vertex 20.2822 48.9656 44
      vertex 24.0615 47.2233 44
    endloop
  endfacet
  facet normal 0 0 -1
    outer loop
      vertex 19.3255 46.6559 44
      vertex 20.2822 48.9656 44
      vertex 22.9265 44.9958 44
    endloop
  endfacet
  facet normal 0 0 -1
    outer loop
      vertex 19.3255 46.6559 44
      vertex 16.3779 50.406 44
      vertex 20.2822 48.9656 44
    endloop
  endfacet
  facet normal 0 0 -1
    outer loop
      vertex 15.6054 48.0284 44
      vertex 16.3779 50.406 44
      vertex 19.3255 46.6559 44
    endloop
  endfacet
  facet normal 0 0 -1
    outer loop
      vertex 15.6054 48.0284 44
      vertex 12.3726 51.5356 44
      vertex 16.3779 50.406 44
    endloop
  endfacet
  facet normal 0 0 -1
    outer loop
      vertex 11.789 49.1047 44
      vertex 12.3726 51.5356 44
      vertex 15.6054 48.0284 44
    endloop
  endfacet
  facet normal 0 0 -1
    outer loop
      vertex 11.789 49.1047 44
      vertex 8.29103 52.3475 44
      vertex 12.3726 51.5356 44
    endloop
  endfacet
  facet normal 0 0 -1
    outer loop
      vertex 7.89994 49.8783 44
      vertex 8.29103 52.3475 44
      vertex 11.789 49.1047 44
    endloop
  endfacet
  facet normal 0 0 -1
    outer loop
      vertex 7.89994 49.8783 44
      vertex 4.15833 52.8366 44
      vertex 8.29103 52.3475 44
    endloop
  endfacet
  facet normal 0 0 -1
    outer loop
      vertex 3.96218 50.3443 44
      vertex 4.15833 52.8366 44
      vertex 7.89994 49.8783 44
    endloop
  endfacet
  facet normal 0 0 -1
    outer loop
      vertex 0 50.5 44
      vertex 4.15833 52.8366 44
      vertex 3.96218 50.3443 44
    endloop
  endfacet
  facet normal -0 0 -1
    outer loop
      vertex 4.15833 52.8366 44
      vertex 0 50.5 44
      vertex 0 53 44
    endloop
  endfacet
  facet normal -0.993068 -0.11754 0
    outer loop
      vertex 47.852 3.76604 0
      vertex 47.409 7.50885 62
      vertex 47.409 7.50885 0
    endloop
  endfacet
  facet normal -0.993068 -0.11754 0
    outer loop
      vertex 47.409 7.50885 62
      vertex 47.852 3.76604 0
      vertex 47.852 3.76604 62
    endloop
  endfacet
  facet normal -0.999229 -0.0392683 0
    outer loop
      vertex 48 0 0
      vertex 47.852 3.76604 62
      vertex 47.852 3.76604 0
    endloop
  endfacet
  facet normal -0.999229 -0.0392683 0
    outer loop
      vertex 47.852 3.76604 62
      vertex 48 0 0
      vertex 48 0 62
    endloop
  endfacet
  facet normal -0.98079 -0.195067 0
    outer loop
      vertex 47.409 7.50885 0
      vertex 46.6738 11.2054 62
      vertex 46.6738 11.2054 0
    endloop
  endfacet
  facet normal -0.98079 -0.195067 0
    outer loop
      vertex 46.6738 11.2054 62
      vertex 47.409 7.50885 0
      vertex 47.409 7.50885 62
    endloop
  endfacet
  facet normal -0.678809 -0.734315 0.000557752
    outer loop
      vertex 31.1735 36.4995 62
      vertex 33.2062 34.6204 61.9346
      vertex 33.9411 33.9411 62
    endloop
  endfacet
  facet normal -0.678819 -0.734306 0
    outer loop
      vertex 31.1735 36.4995 0
      vertex 33.2062 34.6204 61.9346
      vertex 31.1735 36.4995 62
    endloop
  endfacet
  facet normal -0.678819 -0.734306 -0
    outer loop
      vertex 33.2062 34.6204 61.9346
      vertex 31.1735 36.4995 0
      vertex 33.2062 34.6204 0
    endloop
  endfacet
  facet normal -0.418663 -0.908142 0
    outer loop
      vertex 18.3688 44.3462 0
      vertex 21.7915 42.7683 62
      vertex 18.3688 44.3462 62
    endloop
  endfacet
  facet normal -0.418663 -0.908142 -0
    outer loop
      vertex 21.7915 42.7683 62
      vertex 18.3688 44.3462 0
      vertex 21.7915 42.7683 0
    endloop
  endfacet
  facet normal -0.11754 -0.993068 0
    outer loop
      vertex 3.76604 47.852 0
      vertex 7.50885 47.409 62
      vertex 3.76604 47.852 62
    endloop
  endfacet
  facet normal -0.11754 -0.993068 -0
    outer loop
      vertex 7.50885 47.409 62
      vertex 3.76604 47.852 0
      vertex 7.50885 47.409 0
    endloop
  endfacet
  facet normal -0.488623 -0.872495 0
    outer loop
      vertex 21.7915 42.7683 0
      vertex 25.0799 40.9267 62
      vertex 21.7915 42.7683 62
    endloop
  endfacet
  facet normal -0.488623 -0.872495 -0
    outer loop
      vertex 25.0799 40.9267 62
      vertex 21.7915 42.7683 0
      vertex 25.0799 40.9267 0
    endloop
  endfacet
  facet normal -0.872495 -0.488623 0
    outer loop
      vertex 42.7683 21.7915 0
      vertex 40.9267 25.0799 62
      vertex 40.9267 25.0799 0
    endloop
  endfacet
  facet normal -0.872495 -0.488623 0
    outer loop
      vertex 40.9267 25.0799 62
      vertex 42.7683 21.7915 0
      vertex 42.7683 21.7915 62
    endloop
  endfacet
  facet normal -0.785319 -0.619091 0
    outer loop
      vertex 38.8328 28.2137 0
      vertex 36.4995 31.1735 62
      vertex 36.4995 31.1735 0
    endloop
  endfacet
  facet normal -0.785319 -0.619091 0
    outer loop
      vertex 36.4995 31.1735 62
      vertex 38.8328 28.2137 0
      vertex 38.8328 28.2137 62
    endloop
  endfacet
  facet normal -0.962451 -0.271457 0
    outer loop
      vertex 46.6738 11.2054 0
      vertex 45.6507 14.8328 62
      vertex 45.6507 14.8328 0
    endloop
  endfacet
  facet normal -0.962451 -0.271457 0
    outer loop
      vertex 45.6507 14.8328 62
      vertex 46.6738 11.2054 0
      vertex 46.6738 11.2054 62
    endloop
  endfacet
  facet normal -0.346117 -0.938191 0
    outer loop
      vertex 14.8328 45.6507 0
      vertex 18.3688 44.3462 62
      vertex 14.8328 45.6507 62
    endloop
  endfacet
  facet normal -0.346117 -0.938191 -0
    outer loop
      vertex 18.3688 44.3462 62
      vertex 14.8328 45.6507 0
      vertex 18.3688 44.3462 0
    endloop
  endfacet
  facet normal -0.938191 -0.346117 0
    outer loop
      vertex 45.6507 14.8328 0
      vertex 44.3462 18.3688 62
      vertex 44.3462 18.3688 0
    endloop
  endfacet
  facet normal -0.938191 -0.346117 0
    outer loop
      vertex 44.3462 18.3688 62
      vertex 45.6507 14.8328 0
      vertex 45.6507 14.8328 62
    endloop
  endfacet
  facet normal -0.999229 0.0392697 0
    outer loop
      vertex 47.9214 -2 0
      vertex 48 0 62
      vertex 48 0 0
    endloop
  endfacet
  facet normal -0.999229 0.0392697 0
    outer loop
      vertex 48 0 62
      vertex 47.9214 -2 0
      vertex 47.9214 -2 62
    endloop
  endfacet
  facet normal -0.271457 -0.962451 0
    outer loop
      vertex 11.2054 46.6738 0
      vertex 14.8328 45.6507 62
      vertex 11.2054 46.6738 62
    endloop
  endfacet
  facet normal -0.271457 -0.962451 -0
    outer loop
      vertex 14.8328 45.6507 62
      vertex 11.2054 46.6738 0
      vertex 14.8328 45.6507 0
    endloop
  endfacet
  facet normal -0.619091 -0.785319 0
    outer loop
      vertex 28.2137 38.8328 0
      vertex 31.1735 36.4995 62
      vertex 28.2137 38.8328 62
    endloop
  endfacet
  facet normal -0.619091 -0.785319 -0
    outer loop
      vertex 31.1735 36.4995 62
      vertex 28.2137 38.8328 0
      vertex 31.1735 36.4995 0
    endloop
  endfacet
  facet normal -0.555563 -0.831474 0
    outer loop
      vertex 25.0799 40.9267 0
      vertex 28.2137 38.8328 62
      vertex 25.0799 40.9267 62
    endloop
  endfacet
  facet normal -0.555563 -0.831474 -0
    outer loop
      vertex 28.2137 38.8328 62
      vertex 25.0799 40.9267 0
      vertex 28.2137 38.8328 0
    endloop
  endfacet
  facet normal 0.0392697 -0.999229 0
    outer loop
      vertex -2 47.9214 0
      vertex 0 48 62
      vertex -2 47.9214 62
    endloop
  endfacet
  facet normal 0.0392697 -0.999229 0
    outer loop
      vertex 0 48 62
      vertex -2 47.9214 0
      vertex 0 48 0
    endloop
  endfacet
  facet normal -0.908142 -0.418663 0
    outer loop
      vertex 44.3462 18.3688 0
      vertex 42.7683 21.7915 62
      vertex 42.7683 21.7915 0
    endloop
  endfacet
  facet normal -0.908142 -0.418663 0
    outer loop
      vertex 42.7683 21.7915 62
      vertex 44.3462 18.3688 0
      vertex 44.3462 18.3688 62
    endloop
  endfacet
  facet normal -0.0392683 -0.999229 0
    outer loop
      vertex 0 48 0
      vertex 3.76604 47.852 62
      vertex 0 48 62
    endloop
  endfacet
  facet normal -0.0392683 -0.999229 -0
    outer loop
      vertex 3.76604 47.852 62
      vertex 0 48 0
      vertex 3.76604 47.852 0
    endloop
  endfacet
  facet normal -0.195067 -0.98079 0
    outer loop
      vertex 7.50885 47.409 0
      vertex 11.2054 46.6738 62
      vertex 7.50885 47.409 62
    endloop
  endfacet
  facet normal -0.195067 -0.98079 -0
    outer loop
      vertex 11.2054 46.6738 62
      vertex 7.50885 47.409 0
      vertex 11.2054 46.6738 0
    endloop
  endfacet
  facet normal -0.734315 -0.678809 0.000557752
    outer loop
      vertex 34.6204 33.2062 61.9346
      vertex 36.4995 31.1735 62
      vertex 33.9411 33.9411 62
    endloop
  endfacet
  facet normal -0.734306 -0.678819 -0
    outer loop
      vertex 36.4995 31.1735 62
      vertex 34.6204 33.2062 61.9346
      vertex 36.4995 31.1735 0
    endloop
  endfacet
  facet normal -0.734306 -0.678819 0
    outer loop
      vertex 34.6204 33.2062 0
      vertex 36.4995 31.1735 0
      vertex 34.6204 33.2062 61.9346
    endloop
  endfacet
  facet normal -0.831474 -0.555563 0
    outer loop
      vertex 40.9267 25.0799 0
      vertex 38.8328 28.2137 62
      vertex 38.8328 28.2137 0
    endloop
  endfacet
  facet normal -0.831474 -0.555563 0
    outer loop
      vertex 38.8328 28.2137 62
      vertex 40.9267 25.0799 0
      vertex 40.9267 25.0799 62
    endloop
  endfacet
  facet normal -0.707107 -0.707107 0
    outer loop
      vertex 30.4056 28.9914 0
      vertex 28.9914 30.4056 52.01
      vertex 28.9914 30.4056 0
    endloop
  endfacet
  facet normal -0.707107 -0.707107 0
    outer loop
      vertex 28.9914 30.4056 52.01
      vertex 30.4056 28.9914 0
      vertex 30.4056 28.9914 52.01
    endloop
  endfacet
  facet normal -0.707107 0.707107 0
    outer loop
      vertex 28.9914 30.4056 52.01
      vertex 33.2062 34.6204 0
      vertex 28.9914 30.4056 0
    endloop
  endfacet
  facet normal -0.707107 0.707107 0
    outer loop
      vertex 33.2062 34.6204 0
      vertex 28.9914 30.4056 52.01
      vertex 33.2062 34.6204 61.9346
    endloop
  endfacet
  facet normal 0.707107 -0.707107 0
    outer loop
      vertex 34.6204 33.2062 0
      vertex 30.4056 28.9914 52.01
      vertex 30.4056 28.9914 0
    endloop
  endfacet
  facet normal 0.707107 -0.707107 0
    outer loop
      vertex 30.4056 28.9914 52.01
      vertex 34.6204 33.2062 0
      vertex 34.6204 33.2062 61.9346
    endloop
  endfacet
  facet normal -0.606032 -0.606032 0.51522
    outer loop
      vertex 33.2062 34.6204 61.9346
      vertex 34.6204 33.2062 61.9346
      vertex 33.9411 33.9411 62
    endloop
  endfacet
  facet normal -0.606181 -0.606181 0.514868
    outer loop
      vertex 28.9914 30.4056 52.01
      vertex 34.6204 33.2062 61.9346
      vertex 33.2062 34.6204 61.9346
    endloop
  endfacet
  facet normal -0.606181 -0.606181 0.514868
    outer loop
      vertex 34.6204 33.2062 61.9346
      vertex 28.9914 30.4056 52.01
      vertex 30.4056 28.9914 52.01
    endloop
  endfacet
endsolid OpenSCAD_Model
