solid OpenSCAD_Model
  facet normal 1 -0 0
    outer loop
      vertex 3 3 25
      vertex 3 100 0
      vertex 3 100 25
    endloop
  endfacet
  facet normal 1 0 0
    outer loop
      vertex 3 100 0
      vertex 3 3 25
      vertex 3 3 0
    endloop
  endfacet
  facet normal 0 0 1
    outer loop
      vertex 3 100 25
      vertex 0 100 25
      vertex 3 3 25
    endloop
  endfacet
  facet normal -0 0 1
    outer loop
      vertex 3 3 25
      vertex 80 0 25
      vertex 80 3 25
    endloop
  endfacet
  facet normal 0 0 1
    outer loop
      vertex 3 3 25
      vertex 0 0 25
      vertex 80 0 25
    endloop
  endfacet
  facet normal 0 0 1
    outer loop
      vertex 0 0 25
      vertex 3 3 25
      vertex 0 100 25
    endloop
  endfacet
  facet normal 0 0 -1
    outer loop
      vertex 80 0 0
      vertex 3 3 0
      vertex 80 3 0
    endloop
  endfacet
  facet normal 0 0 -1
    outer loop
      vertex 0 0 0
      vertex 3 3 0
      vertex 80 0 0
    endloop
  endfacet
  facet normal 0 0 -1
    outer loop
      vertex 0 100 0
      vertex 3 3 0
      vertex 0 0 0
    endloop
  endfacet
  facet normal 0 0 -1
    outer loop
      vertex 3 3 0
      vertex 0 100 0
      vertex 3 100 0
    endloop
  endfacet
  facet normal -1 0 0
    outer loop
      vertex 0 0 0
      vertex 0 100 25
      vertex 0 100 0
    endloop
  endfacet
  facet normal -1 -0 0
    outer loop
      vertex 0 100 25
      vertex 0 0 0
      vertex 0 0 25
    endloop
  endfacet
  facet normal 0 1 -0
    outer loop
      vertex 3 100 0
      vertex 0 100 25
      vertex 3 100 25
    endloop
  endfacet
  facet normal 0 1 0
    outer loop
      vertex 0 100 25
      vertex 3 100 0
      vertex 0 100 0
    endloop
  endfacet
  facet normal 0 -1 0
    outer loop
      vertex 0 0 0
      vertex 80 0 25
      vertex 0 0 25
    endloop
  endfacet
  facet normal 0 -1 -0
    outer loop
      vertex 80 0 25
      vertex 0 0 0
      vertex 80 0 0
    endloop
  endfacet
  facet normal 1 -0 0
    outer loop
      vertex 80 0 25
      vertex 80 3 0
      vertex 80 3 25
    endloop
  endfacet
  facet normal 1 0 0
    outer loop
      vertex 80 3 0
      vertex 80 0 25
      vertex 80 0 0
    endloop
  endfacet
  facet normal 0 1 -0
    outer loop
      vertex 80 3 0
      vertex 3 3 25
      vertex 80 3 25
    endloop
  endfacet
  facet normal 0 1 0
    outer loop
      vertex 3 3 25
      vertex 80 3 0
      vertex 3 3 0
    endloop
  endfacet
endsolid OpenSCAD_Model
