solid OpenSCAD_Model
  facet normal 1 -0 0
    outer loop
      vertex 86 0 12.5
      vertex 86 157 0
      vertex 86 157 12.5
    endloop
  endfacet
  facet normal 1 0 0
    outer loop
      vertex 86 157 0
      vertex 86 0 12.5
      vertex 86 0 0
    endloop
  endfacet
  facet normal 0 0 1
    outer loop
      vertex 86 157 12.5
      vertex 83 154 12.5
      vertex 86 0 12.5
    endloop
  endfacet
  facet normal 0 0 1
    outer loop
      vertex 86 157 12.5
      vertex 3 154 12.5
      vertex 83 154 12.5
    endloop
  endfacet
  facet normal -0 0 1
    outer loop
      vertex 0 157 12.5
      vertex 3 154 12.5
      vertex 86 157 12.5
    endloop
  endfacet
  facet normal 0 0 1
    outer loop
      vertex 0 129 12.5
      vertex 3 154 12.5
      vertex 0 157 12.5
    endloop
  endfacet
  facet normal 0 0 1
    outer loop
      vertex 3 154 12.5
      vertex 0 129 12.5
      vertex 3 129 12.5
    endloop
  endfacet
  facet normal -0 0 1
    outer loop
      vertex 83 3 12.5
      vertex 86 0 12.5
      vertex 83 154 12.5
    endloop
  endfacet
  facet normal 0 0 1
    outer loop
      vertex 58 0 12.5
      vertex 83 3 12.5
      vertex 58 3 12.5
    endloop
  endfacet
  facet normal 0 0 1
    outer loop
      vertex 83 3 12.5
      vertex 58 0 12.5
      vertex 86 0 12.5
    endloop
  endfacet
  facet normal 0 0 -1
    outer loop
      vertex 3 129 0
      vertex 0 129 0
      vertex 3 154 0
    endloop
  endfacet
  facet normal 0 0 -1
    outer loop
      vertex 86 0 0
      vertex 83 3 0
      vertex 86 157 0
    endloop
  endfacet
  facet normal 0 0 -1
    outer loop
      vertex 58 0 0
      vertex 83 3 0
      vertex 86 0 0
    endloop
  endfacet
  facet normal -0 0 -1
    outer loop
      vertex 83 3 0
      vertex 58 0 0
      vertex 58 3 0
    endloop
  endfacet
  facet normal 0 0 -1
    outer loop
      vertex 83 154 0
      vertex 86 157 0
      vertex 83 3 0
    endloop
  endfacet
  facet normal 0 0 -1
    outer loop
      vertex 3 154 0
      vertex 86 157 0
      vertex 83 154 0
    endloop
  endfacet
  facet normal 0 0 -1
    outer loop
      vertex 3 154 0
      vertex 0 157 0
      vertex 86 157 0
    endloop
  endfacet
  facet normal 0 0 -1
    outer loop
      vertex 0 157 0
      vertex 3 154 0
      vertex 0 129 0
    endloop
  endfacet
  facet normal -1 0 0
    outer loop
      vertex 0 129 0
      vertex 0 157 12.5
      vertex 0 157 0
    endloop
  endfacet
  facet normal -1 -0 0
    outer loop
      vertex 0 157 12.5
      vertex 0 129 0
      vertex 0 129 12.5
    endloop
  endfacet
  facet normal 0 1 -0
    outer loop
      vertex 86 157 0
      vertex 0 157 12.5
      vertex 86 157 12.5
    endloop
  endfacet
  facet normal 0 1 0
    outer loop
      vertex 0 157 12.5
      vertex 86 157 0
      vertex 0 157 0
    endloop
  endfacet
  facet normal 0 -1 0
    outer loop
      vertex 3 154 0
      vertex 83 154 12.5
      vertex 3 154 12.5
    endloop
  endfacet
  facet normal 0 -1 -0
    outer loop
      vertex 83 154 12.5
      vertex 3 154 0
      vertex 83 154 0
    endloop
  endfacet
  facet normal -1 0 0
    outer loop
      vertex 83 3 0
      vertex 83 154 12.5
      vertex 83 154 0
    endloop
  endfacet
  facet normal -1 -0 0
    outer loop
      vertex 83 154 12.5
      vertex 83 3 0
      vertex 83 3 12.5
    endloop
  endfacet
  facet normal 0 -1 0
    outer loop
      vertex 58 0 0
      vertex 86 0 12.5
      vertex 58 0 12.5
    endloop
  endfacet
  facet normal 0 -1 -0
    outer loop
      vertex 86 0 12.5
      vertex 58 0 0
      vertex 86 0 0
    endloop
  endfacet
  facet normal 1 -0 0
    outer loop
      vertex 3 129 12.5
      vertex 3 154 0
      vertex 3 154 12.5
    endloop
  endfacet
  facet normal 1 0 0
    outer loop
      vertex 3 154 0
      vertex 3 129 12.5
      vertex 3 129 0
    endloop
  endfacet
  facet normal 0 -1 0
    outer loop
      vertex 0 129 0
      vertex 3 129 12.5
      vertex 0 129 12.5
    endloop
  endfacet
  facet normal 0 -1 -0
    outer loop
      vertex 3 129 12.5
      vertex 0 129 0
      vertex 3 129 0
    endloop
  endfacet
  facet normal -1 0 0
    outer loop
      vertex 58 0 0
      vertex 58 3 12.5
      vertex 58 3 0
    endloop
  endfacet
  facet normal -1 -0 0
    outer loop
      vertex 58 3 12.5
      vertex 58 0 0
      vertex 58 0 12.5
    endloop
  endfacet
  facet normal 0 1 -0
    outer loop
      vertex 83 3 0
      vertex 58 3 12.5
      vertex 83 3 12.5
    endloop
  endfacet
  facet normal 0 1 0
    outer loop
      vertex 58 3 12.5
      vertex 83 3 0
      vertex 58 3 0
    endloop
  endfacet
endsolid OpenSCAD_Model
