<svg xmlns="http://www.w3.org/2000/svg" viewBox="0 0 960 700" width="960" height="700">
  <defs>
    <marker id="arrowA" markerWidth="10" markerHeight="7" refX="9" refY="3.5" orient="auto">
      <polygon points="0 0, 10 3.5, 0 7" fill="#7c3aed"/>
    </marker>
    <marker id="arrowB" markerWidth="10" markerHeight="7" refX="9" refY="3.5" orient="auto">
      <polygon points="0 0, 10 3.5, 0 7" fill="#10b981"/>
    </marker>
    <marker id="arrowC" markerWidth="10" markerHeight="7" refX="9" refY="3.5" orient="auto">
      <polygon points="0 0, 10 3.5, 0 7" fill="#2563eb"/>
    </marker>
    <marker id="arrowE" markerWidth="10" markerHeight="7" refX="9" refY="3.5" orient="auto">
      <polygon points="0 0, 10 3.5, 0 7" fill="#f97316"/>
    </marker>
    <marker id="arrowF" markerWidth="10" markerHeight="7" refX="9" refY="3.5" orient="auto">
      <polygon points="0 0, 10 3.5, 0 7" fill="#7c3aed"/>
    </marker>
    <marker id="arrowG" markerWidth="10" markerHeight="7" refX="9" refY="3.5" orient="auto">
      <polygon points="0 0, 10 3.5, 0 7" fill="#ef4444"/>
    </marker>
    <marker id="arrowH" markerWidth="10" markerHeight="7" refX="9" refY="3.5" orient="auto">
      <polygon points="0 0, 10 3.5, 0 7" fill="#6b7280"/>
    </marker>
    <filter id="shadowSoft" x="-20%" y="-20%" width="140%" height="160%">
      <feDropShadow dx="0" dy="3" stdDeviation="6" flood-color="#0f172a" flood-opacity="0.12"/>
    </filter>
    <filter id="shadowGlass" x="-20%" y="-20%" width="140%" height="160%">
      <feDropShadow dx="0" dy="10" stdDeviation="16" flood-color="#020617" flood-opacity="0.28"/>
    </filter>
    <style>
    text { font-family: 'Helvetica Neue', Helvetica, Arial, 'PingFang SC', 'Microsoft YaHei', 'Microsoft JhengHei', 'SimHei', sans-serif; }
    .title { font-size: 30px; font-weight: 700; fill: #111827; }
    .subtitle { font-size: 14px; font-weight: 500; fill: #6b7280; }
    .section { font-size: 13px; font-weight: 700; fill: #2563eb; letter-spacing: 1.4px; }
    .section-sub { font-size: 12px; font-weight: 500; fill: #94a3b8; }
    .node-title { font-size: 18px; font-weight: 700; fill: #111827; }
    .node-sub { font-size: 12px; font-weight: 500; fill: #6b7280; }
    .node-type { font-size: 12px; font-weight: 700; fill: #9ca3af; letter-spacing: 0.08em; }
    .arrow-label { font-size: 12px; font-weight: 600; fill: #6b7280; }
    .legend { font-size: 12px; font-weight: 500; fill: #6b7280; }
    .footnote { font-size: 12px; font-weight: 500; fill: #94a3b8; }
    </style>
  </defs>
  <rect width="960.0" height="700.0" fill="#ffffff"/>
  <text x="480.0" y="56" text-anchor="middle" class="title">AI 3D Modeling Pipeline</text>
  <text x="480.0" y="82" text-anchor="middle" class="subtitle">Seven specialized agents with Blender hero renders</text>
  <rect x="40.0" y="100.0" width="1200.0" height="110.0" rx="16.0" fill="none" stroke="#dbe5f1" stroke-width="1.4" stroke-dasharray="6 5"/>
  <text x="58.0" y="124.0" class="section">01 // SPEC</text>
  <rect x="40.0" y="240.0" width="1200.0" height="110.0" rx="16.0" fill="none" stroke="#dbe5f1" stroke-width="1.4" stroke-dasharray="6 5"/>
  <text x="58.0" y="264.0" class="section">02 // DESIGN (OPTIONAL ID LOOP)</text>
  <rect x="40.0" y="380.0" width="1200.0" height="110.0" rx="16.0" fill="none" stroke="#dbe5f1" stroke-width="1.4" stroke-dasharray="6 5"/>
  <text x="58.0" y="404.0" class="section">03 // BUILD &amp; ANALYZE</text>
  <rect x="40.0" y="520.0" width="1200.0" height="110.0" rx="16.0" fill="none" stroke="#dbe5f1" stroke-width="1.4" stroke-dasharray="6 5"/>
  <text x="58.0" y="544.0" class="section">04 // REVIEW &amp; GATE</text>
  <rect x="40.0" y="660.0" width="1200.0" height="110.0" rx="16.0" fill="none" stroke="#dbe5f1" stroke-width="1.4" stroke-dasharray="6 5"/>
  <text x="58.0" y="684.0" class="section">05 // TEST (OPTIONAL)</text>
  <rect x="40.0" y="800.0" width="1200.0" height="180.0" rx="16.0" fill="none" stroke="#dbe5f1" stroke-width="1.4" stroke-dasharray="6 5"/>
  <text x="58.0" y="824.0" class="section">06 // SHIP WITH RENDERS</text>
  <path d="M 600.0,195.0 L 290.0,255.0" fill="none" stroke="#7c3aed" stroke-width="2.4" marker-end="url(#arrowA)" stroke-dasharray="6,4"/>
  <path d="M 600.0,195.0 L 600.0,395.0" fill="none" stroke="#f97316" stroke-width="2.4" marker-end="url(#arrowE)"/>
  <path d="M 290.0,335.0 L 600.0,395.0" fill="none" stroke="#f97316" stroke-width="2.4" marker-end="url(#arrowE)" stroke-dasharray="6,4"/>
  <path d="M 600.0,475.0 L 310.0,535.0" fill="none" stroke="#f97316" stroke-width="2.4" marker-end="url(#arrowE)"/>
  <path d="M 600.0,475.0 L 840.0,535.0" fill="none" stroke="#f97316" stroke-width="2.4" marker-end="url(#arrowE)" stroke-dasharray="6,4"/>
  <path d="M 310.0,615.0 L 600.0,675.0" fill="none" stroke="#f97316" stroke-width="2.4" marker-end="url(#arrowE)"/>
  <path d="M 840.0,615.0 L 600.0,675.0" fill="none" stroke="#f97316" stroke-width="2.4" marker-end="url(#arrowE)" stroke-dasharray="6,4"/>
  <path d="M 600.0,755.0 L 310.0,815.0" fill="none" stroke="#7c3aed" stroke-width="2.4" marker-end="url(#arrowA)" stroke-dasharray="6,4"/>
  <path d="M 600.0,755.0 L 820.0,855.0" fill="none" stroke="#f97316" stroke-width="2.4" marker-end="url(#arrowE)"/>
  <path d="M 400.0,855.0 L 520.0,855.0" fill="none" stroke="#7c3aed" stroke-width="2.4" marker-end="url(#arrowA)"/>
  <path d="M 700.0,855.0 L 820.0,855.0" fill="none" stroke="#f97316" stroke-width="2.4" marker-end="url(#arrowE)" stroke-dasharray="6,4"/>
  <path d="M 980.0,855.0 L 1020.0,855.0" fill="none" stroke="#7c3aed" stroke-width="2.4" marker-end="url(#arrowA)"/>
  <rect x="500.0" y="115.0" width="200.0" height="80.0" rx="10.0" fill="#ffffff" stroke="#d1d5db" stroke-width="2.0" filter="url(#shadowSoft)"/>
  <text x="600.0" y="155.0" text-anchor="middle" class="node-title">spec-writer
(Agent)</text>
  <path d="M 222.0 255.0 L 358.0 255.0 L 380.0 295.0 L 358.0 335.0 L 222.0 335.0 L 200.0 295.0 Z" fill="#ffffff" stroke="#d1d5db" stroke-width="2.0" filter="url(#shadowSoft)"/>
  <text x="290.0" y="295.0" text-anchor="middle" class="node-title">id-designer
(Optional)</text>
  <rect x="500.0" y="395.0" width="200.0" height="80.0" rx="10.0" fill="#ffffff" stroke="#d1d5db" stroke-width="2.0" filter="url(#shadowSoft)"/>
  <text x="600.0" y="435.0" text-anchor="middle" class="node-title">modeler
(Orchestrator)</text>
  <rect x="220.0" y="535.0" width="180.0" height="80.0" rx="10.0" fill="#ffffff" stroke="#d1d5db" stroke-width="2.0" filter="url(#shadowSoft)"/>
  <text x="310.0" y="575.0" text-anchor="middle" class="node-title">geometry-analyzer</text>
  <rect x="750.0" y="535.0" width="180.0" height="80.0" rx="10.0" fill="#ffffff" stroke="#d1d5db" stroke-width="2.0" filter="url(#shadowSoft)"/>
  <text x="840.0" y="575.0" text-anchor="middle" class="node-title">fit-reviewer
(Optional)</text>
  <rect x="500.0" y="675.0" width="200.0" height="80.0" rx="10.0" fill="#ffffff" stroke="#d1d5db" stroke-width="2.0" filter="url(#shadowSoft)"/>
  <rect x="506.0" y="681.0" width="188.0" height="68.0" rx="7.0" fill="none" stroke="#d1d5db" stroke-width="1.2" opacity="0.65"/>
  <text x="600.0" y="715.0" text-anchor="middle" class="node-title">print-reviewer
(Gate)</text>
  <rect x="220.0" y="815.0" width="180.0" height="80.0" rx="10.0" fill="#ffffff" stroke="#d1d5db" stroke-width="2.0" filter="url(#shadowSoft)"/>
  <text x="310.0" y="855.0" text-anchor="middle" class="node-title">test-print-planner
(Optional)</text>
  <rect x="520.0" y="815.0" width="180.0" height="80.0" rx="10.0" fill="#ffffff" stroke="#d1d5db" stroke-width="2.0" filter="url(#shadowSoft)"/>
  <text x="610.0" y="855.0" text-anchor="middle" class="node-title">modeler
(Test)</text>
  <rect x="820.0" y="815.0" width="160.0" height="80.0" rx="10.0" fill="#ffffff" stroke="#d1d5db" stroke-width="2.0" filter="url(#shadowSoft)"/>
  <text x="900.0" y="855.0" text-anchor="middle" class="node-title">shipper
(Agent)</text>
  <rect x="1020.0" y="815.0" width="180.0" height="80.0" rx="10.0" fill="#ffffff" stroke="#d1d5db" stroke-width="2.0" filter="url(#shadowSoft)"/>
  <rect x="1020.0" y="815.0" width="180.0" height="18" rx="10.0" fill="#1f2937" opacity="0.95"/>
  <circle cx="1036.0" cy="824.0" r="4" fill="#ef4444"/>
  <circle cx="1050.0" cy="824.0" r="4" fill="#f59e0b"/>
  <circle cx="1064.0" cy="824.0" r="4" fill="#10b981"/>
  <text x="1038.0" y="859.0" font-size="28" font-weight="700" fill="#10b981">$</text>
  <text x="1058.0" y="859.0" font-size="22" font-weight="500" fill="#6b7280">_</text>
  <text x="1110.0" y="881.0" text-anchor="middle" class="node-title">Blender Render
(Cycles + OIDN)</text>
  <rect x="371.5" y="195.0" width="147" height="20" rx="6" fill="#ffffff" opacity="0.94"/>
  <text x="445.0" y="209.0" text-anchor="middle" class="arrow-label">for aesthetic parts</text>
  <rect x="543.5" y="281.0" width="77" height="20" rx="6" fill="#ffffff" opacity="0.94"/>
  <text x="582.0" y="295.0" text-anchor="middle" class="arrow-label">spec.json</text>
  <rect x="410.0" y="335.0" width="70" height="20" rx="6" fill="#ffffff" opacity="0.94"/>
  <text x="445.0" y="349.0" text-anchor="middle" class="arrow-label">brief.md</text>
  <rect x="437.0" y="475.0" width="36" height="20" rx="6" fill="#ffffff" opacity="0.94"/>
  <text x="455.0" y="489.0" text-anchor="middle" class="arrow-label">STL</text>
  <rect x="695.5" y="475.0" width="49" height="20" rx="6" fill="#ffffff" opacity="0.94"/>
  <text x="720.0" y="489.0" text-anchor="middle" class="arrow-label">parts</text>
  <rect x="951.0" y="841.0" width="98" height="20" rx="6" fill="#ffffff" opacity="0.94"/>
  <text x="1000.0" y="855.0" text-anchor="middle" class="arrow-label">hero renders</text>
</svg>