<svg xmlns="http://www.w3.org/2000/svg" viewBox="0 0 1280 920" width="1280" height="920">
  <defs>
    <marker id="arrowA" markerWidth="10" markerHeight="7" refX="9" refY="3.5" orient="auto">
      <polygon points="0 0, 10 3.5, 0 7" fill="#c9c5b6"/>
    </marker>
    <marker id="arrowB" markerWidth="10" markerHeight="7" refX="9" refY="3.5" orient="auto">
      <polygon points="0 0, 10 3.5, 0 7" fill="#6fd1b4"/>
    </marker>
    <marker id="arrowC" markerWidth="10" markerHeight="7" refX="9" refY="3.5" orient="auto">
      <polygon points="0 0, 10 3.5, 0 7" fill="#c9c5b6"/>
    </marker>
    <marker id="arrowE" markerWidth="10" markerHeight="7" refX="9" refY="3.5" orient="auto">
      <polygon points="0 0, 10 3.5, 0 7" fill="#c9c5b6"/>
    </marker>
    <marker id="arrowF" markerWidth="10" markerHeight="7" refX="9" refY="3.5" orient="auto">
      <polygon points="0 0, 10 3.5, 0 7" fill="#8b8899"/>
    </marker>
    <marker id="arrowG" markerWidth="10" markerHeight="7" refX="9" refY="3.5" orient="auto">
      <polygon points="0 0, 10 3.5, 0 7" fill="#e6a562"/>
    </marker>
    <marker id="arrowH" markerWidth="10" markerHeight="7" refX="9" refY="3.5" orient="auto">
      <polygon points="0 0, 10 3.5, 0 7" fill="#8b8899"/>
    </marker>
    <filter id="editorialGrain" x="0" y="0" width="100%" height="100%">
      <feTurbulence type="fractalNoise" baseFrequency="0.9" numOctaves="2" stitchTiles="stitch"/>
      <feColorMatrix values="0 0 0 0 1  0 0 0 0 1  0 0 0 0 1  0 0 0 0.08 0"/>
    </filter>
    <radialGradient id="editorialTopGlow" cx="50%" cy="0%" r="80%">
      <stop offset="0%" stop-color="#e6a562" stop-opacity="0.12"/>
      <stop offset="100%" stop-color="#e6a562" stop-opacity="0"/>
    </radialGradient>
    <style>
    text { font-family: 'Inter', 'Noto Sans', 'Helvetica Neue', 'DejaVu Sans', sans-serif; }
    .title { font-size: 46px; font-weight: 700; fill: #f5efe0; font-family: 'Playfair Display', 'Noto Serif Display', 'DejaVu Serif', Georgia, serif; }
    .subtitle { font-size: 12px; font-weight: 500; fill: #e6a562; letter-spacing: 0.3em; text-transform: uppercase; }
    .section { font-size: 13px; font-weight: 700; fill: #f5efe0; letter-spacing: 1.4px; }
    .section-sub { font-size: 12px; font-weight: 500; fill: #b5b3a8; }
    .node-title { font-size: 18px; font-weight: 700; fill: #f5efe0; }
    .node-sub { font-size: 12px; font-weight: 500; fill: #d4cfbf; }
    .node-type { font-size: 10px; font-weight: 700; fill: #b5b3a8; letter-spacing: 0.08em; }
    .arrow-label { font-size: 12px; font-weight: 600; fill: #c9c5b6; }
    .legend { font-size: 12px; font-weight: 500; fill: #d4cfbf; }
    .footnote { font-size: 12px; font-weight: 500; fill: #b5b3a8; }
    </style>
  </defs>
  <rect width="1280.0" height="920.0" fill="#15151e"/>
  <rect width="1280.0" height="400" fill="url(#editorialTopGlow)"/>
  <rect width="1280.0" height="920.0" filter="url(#editorialGrain)" opacity="0.6"/>
  <text x="640.0" y="56" text-anchor="middle" class="title">AI 3D Modeling Pipeline</text>
  <text x="640.0" y="82" text-anchor="middle" class="subtitle">Seven specialized agents · file handoff · mesh-ground-truth review</text>
  <rect x="40.0" y="160.0" width="1200.0" height="110.0" rx="16.0" fill="none" stroke="rgba(245,239,224,0.12)" stroke-width="1.4"/>
  <text x="58.0" y="184.0" class="section">01 // SPEC</text>
  <rect x="40.0" y="292.0" width="1200.0" height="110.0" rx="16.0" fill="none" stroke="rgba(245,239,224,0.12)" stroke-width="1.4"/>
  <text x="58.0" y="316.0" class="section">02 // BUILD</text>
  <rect x="40.0" y="424.0" width="1200.0" height="110.0" rx="16.0" fill="none" stroke="rgba(245,239,224,0.12)" stroke-width="1.4"/>
  <text x="58.0" y="448.0" class="section">03 // ANALYZE</text>
  <rect x="40.0" y="556.0" width="1200.0" height="110.0" rx="16.0" fill="none" stroke="rgba(245,239,224,0.12)" stroke-width="1.4"/>
  <text x="58.0" y="580.0" class="section">04 // REVIEW</text>
  <rect x="40.0" y="688.0" width="1200.0" height="110.0" rx="16.0" fill="none" stroke="rgba(245,239,224,0.12)" stroke-width="1.4"/>
  <text x="58.0" y="712.0" class="section">05 // TEST</text>
  <path d="M 640.0,244.0 L 640.0,320.0" fill="none" stroke="#c9c5b6" stroke-width="1.6" marker-end="url(#arrowA)"/>
  <path d="M 640.0,376.0 L 640.0,396.4 L 420.0,396.4 L 420.0,452.0" fill="none" stroke="#c9c5b6" stroke-width="1.6" marker-end="url(#arrowA)"/>
  <path d="M 640.0,376.0 L 640.0,396.4 L 860.0,396.4 L 860.0,452.0" fill="none" stroke="#6fd1b4" stroke-width="1.6" marker-end="url(#arrowB)" stroke-dasharray="6,4"/>
  <path d="M 420.0,508.0 L 420.0,528.4 L 640.0,528.4 L 640.0,584.0" fill="none" stroke="#c9c5b6" stroke-width="1.6" marker-end="url(#arrowA)"/>
  <path d="M 860.0,508.0 L 860.0,528.4 L 640.0,528.4 L 640.0,584.0" fill="none" stroke="#6fd1b4" stroke-width="1.6" marker-end="url(#arrowB)" stroke-dasharray="6,4"/>
  <path d="M 640.0,640.0 L 640.0,660.4 L 420.0,660.4 L 420.0,716.0" fill="none" stroke="#c9c5b6" stroke-width="1.6" marker-end="url(#arrowA)"/>
  <path d="M 520.0,744.0 L 760.0,744.0" fill="none" stroke="#c9c5b6" stroke-width="1.6" marker-end="url(#arrowA)"/>
  <path d="M 960.0,744.0 L 1030.0,744.0" fill="none" stroke="#c9c5b6" stroke-width="1.6" marker-end="url(#arrowA)"/>
  <path d="M 550.0,612.0 L 100.0,612.0 L 100.0,348.0 L 550.0,348.0" fill="none" stroke="#e6a562" stroke-width="1.6" marker-end="url(#arrowG)" stroke-dasharray="6,4"/>
  <rect x="550.0" y="188.0" width="180.0" height="56.0" rx="8.0" fill="#24222f" stroke="rgba(245,239,224,0.18)" stroke-width="1.8"/>
  <text x="640.0" y="206.0" text-anchor="middle" class="node-type">AGENT</text>
  <text x="640.0" y="222.0" text-anchor="middle" class="node-title">spec-writer</text>
  <rect x="550.0" y="320.0" width="180.0" height="56.0" rx="8.0" fill="#24222f" stroke="#e6a562" stroke-width="2.0"/>
  <rect x="556.0" y="326.0" width="168.0" height="44.0" rx="5.0" fill="none" stroke="#e6a562" stroke-width="1.2" opacity="0.65"/>
  <text x="640.0" y="338.0" text-anchor="middle" class="node-type">ORCHESTRATOR</text>
  <text x="640.0" y="354.0" text-anchor="middle" class="node-title">modeler</text>
  <rect x="320.0" y="452.0" width="200.0" height="56.0" rx="8.0" fill="#24222f" stroke="rgba(245,239,224,0.18)" stroke-width="1.8"/>
  <text x="420.0" y="470.0" text-anchor="middle" class="node-type">AGENT</text>
  <text x="420.0" y="486.0" text-anchor="middle" class="node-title">geometry-analyzer</text>
  <rect x="760.0" y="452.0" width="200.0" height="56.0" rx="8.0" fill="#24222f" stroke="#6fd1b4" stroke-width="1.8"/>
  <text x="860.0" y="470.0" text-anchor="middle" class="node-type">IF MULTI-PART</text>
  <text x="860.0" y="486.0" text-anchor="middle" class="node-title">fit-reviewer</text>
  <rect x="550.0" y="584.0" width="180.0" height="56.0" rx="8.0" fill="#24222f" stroke="#e6a562" stroke-width="2.0"/>
  <rect x="556.0" y="590.0" width="168.0" height="44.0" rx="5.0" fill="none" stroke="#e6a562" stroke-width="1.2" opacity="0.65"/>
  <text x="640.0" y="602.0" text-anchor="middle" class="node-type">GATE</text>
  <text x="640.0" y="618.0" text-anchor="middle" class="node-title">print-reviewer</text>
  <rect x="320.0" y="716.0" width="200.0" height="56.0" rx="8.0" fill="#24222f" stroke="rgba(245,239,224,0.18)" stroke-width="1.8"/>
  <text x="420.0" y="734.0" text-anchor="middle" class="node-type">AGENT</text>
  <text x="420.0" y="750.0" text-anchor="middle" class="node-title">test-print-planner</text>
  <rect x="760.0" y="716.0" width="200.0" height="56.0" rx="8.0" fill="#24222f" stroke="rgba(245,239,224,0.18)" stroke-width="1.8"/>
  <text x="860.0" y="734.0" text-anchor="middle" class="node-type">AGENT</text>
  <text x="860.0" y="750.0" text-anchor="middle" class="node-title">modeler (test)</text>
  <rect x="1030.0" y="716.0" width="160.0" height="56.0" rx="8.0" fill="#24222f" stroke="rgba(245,239,224,0.18)" stroke-width="1.8"/>
  <text x="1110.0" y="734.0" text-anchor="middle" class="node-type">AGENT</text>
  <text x="1110.0" y="750.0" text-anchor="middle" class="node-title">shipper</text>
  <rect x="520.5" y="268.0" width="203" height="20" rx="6" fill="#15151e" opacity="1"/>
  <text x="622.0" y="282.0" text-anchor="middle" class="arrow-label">requirements.md · spec.json</text>
  <rect x="484.5" y="398.4" width="91" height="20" rx="6" fill="#15151e" opacity="1"/>
  <text x="530.0" y="412.4" text-anchor="middle" class="arrow-label">.scad · STL</text>
  <rect x="453.0" y="530.4" width="154" height="20" rx="6" fill="#15151e" opacity="1"/>
  <text x="530.0" y="544.4" text-anchor="middle" class="arrow-label">geometry-report.json</text>
  <rect x="701.0" y="530.4" width="98" height="20" rx="6" fill="#15151e" opacity="1"/>
  <text x="750.0" y="544.4" text-anchor="middle" class="arrow-label">fitment.json</text>
  <rect x="477.5" y="662.4" width="105" height="20" rx="6" fill="#15151e" opacity="1"/>
  <text x="530.0" y="676.4" text-anchor="middle" class="arrow-label">review + recs</text>
  <rect x="304.0" y="614.0" width="42" height="20" rx="6" fill="#15151e" opacity="1"/>
  <text x="325.0" y="628.0" text-anchor="middle" class="arrow-label">FAIL</text>
  <line x1="60.0" y1="820.0" x2="90.0" y2="820.0" stroke="#c9c5b6" stroke-width="1.6" marker-end="url(#arrowA)"/>
  <text x="100.0" y="824.0" class="legend">File handoff</text>
  <line x1="60.0" y1="842.0" x2="90.0" y2="842.0" stroke="#6fd1b4" stroke-width="1.6" marker-end="url(#arrowB)"/>
  <text x="100.0" y="846.0" class="legend">Conditional · multi-part</text>
  <line x1="60.0" y1="864.0" x2="90.0" y2="864.0" stroke="#c9c5b6" stroke-width="1.6" marker-end="url(#arrowA)"/>
  <text x="100.0" y="868.0" class="legend">Dispatch</text>
  <line x1="60.0" y1="886.0" x2="90.0" y2="886.0" stroke="#e6a562" stroke-width="1.6" marker-end="url(#arrowG)"/>
  <text x="100.0" y="890.0" class="legend">Retry on fail</text>
</svg>