<svg xmlns="http://www.w3.org/2000/svg" viewBox="0 0 960 700" width="960" height="700">
  <defs>
    <marker id="arrowA" markerWidth="10" markerHeight="7" refX="9" refY="3.5" orient="auto">
      <polygon points="0 0, 10 3.5, 0 7" fill="#67e8f9"/>
    </marker>
    <marker id="arrowB" markerWidth="10" markerHeight="7" refX="9" refY="3.5" orient="auto">
      <polygon points="0 0, 10 3.5, 0 7" fill="#22d3ee"/>
    </marker>
    <marker id="arrowC" markerWidth="10" markerHeight="7" refX="9" refY="3.5" orient="auto">
      <polygon points="0 0, 10 3.5, 0 7" fill="#38bdf8"/>
    </marker>
    <marker id="arrowE" markerWidth="10" markerHeight="7" refX="9" refY="3.5" orient="auto">
      <polygon points="0 0, 10 3.5, 0 7" fill="#fde047"/>
    </marker>
    <marker id="arrowF" markerWidth="10" markerHeight="7" refX="9" refY="3.5" orient="auto">
      <polygon points="0 0, 10 3.5, 0 7" fill="#c084fc"/>
    </marker>
    <marker id="arrowG" markerWidth="10" markerHeight="7" refX="9" refY="3.5" orient="auto">
      <polygon points="0 0, 10 3.5, 0 7" fill="#fb7185"/>
    </marker>
    <marker id="arrowH" markerWidth="10" markerHeight="7" refX="9" refY="3.5" orient="auto">
      <polygon points="0 0, 10 3.5, 0 7" fill="#bae6fd"/>
    </marker>
    <pattern id="blueprintGrid" width="32" height="32" patternUnits="userSpaceOnUse">
      <path d="M 32 0 L 0 0 0 32" fill="none" stroke="#0ea5e9" stroke-opacity="0.12" stroke-width="1"/>
    </pattern>
    <style>
    text { font-family: 'SF Mono', 'Fira Code', Menlo, 'Microsoft YaHei', 'SimHei', monospace; }
    .title { font-size: 30px; font-weight: 700; fill: #e0f2fe; }
    .subtitle { font-size: 14px; font-weight: 500; fill: #7dd3fc; }
    .section { font-size: 13px; font-weight: 700; fill: #67e8f9; letter-spacing: 1.4px; }
    .section-sub { font-size: 12px; font-weight: 500; fill: #7dd3fc; }
    .node-title { font-size: 18px; font-weight: 700; fill: #e0f2fe; }
    .node-sub { font-size: 12px; font-weight: 500; fill: #bae6fd; }
    .node-type { font-size: 11px; font-weight: 700; fill: #7dd3fc; letter-spacing: 0.08em; }
    .arrow-label { font-size: 12px; font-weight: 600; fill: #e0f2fe; }
    .legend { font-size: 12px; font-weight: 500; fill: #bae6fd; }
    .footnote { font-size: 12px; font-weight: 500; fill: #7dd3fc; }
    </style>
  </defs>
  <rect width="960.0" height="700.0" fill="#082f49"/>
  <text x="480.0" y="56" text-anchor="middle" class="title">AI 3D Modeling Pipeline</text>
  <text x="480.0" y="82" text-anchor="middle" class="subtitle">Seven specialized agents · file handoff · Blender hero renders</text>
  <rect x="40.0" y="120.0" width="1200.0" height="100.0" rx="16.0" fill="none" stroke="#0ea5e9" stroke-width="1.4" stroke-dasharray="6 4"/>
  <text x="58.0" y="144.0" class="section">01 // 01 // SPEC</text>
  <rect x="40.0" y="250.0" width="1200.0" height="100.0" rx="16.0" fill="none" stroke="#0ea5e9" stroke-width="1.4" stroke-dasharray="6 4"/>
  <text x="58.0" y="274.0" class="section">02 // 02 // DESIGN</text>
  <rect x="40.0" y="380.0" width="1200.0" height="100.0" rx="16.0" fill="none" stroke="#0ea5e9" stroke-width="1.4" stroke-dasharray="6 4"/>
  <text x="58.0" y="404.0" class="section">03 // 03 // BUILD</text>
  <rect x="40.0" y="510.0" width="1200.0" height="100.0" rx="16.0" fill="none" stroke="#0ea5e9" stroke-width="1.4" stroke-dasharray="6 4"/>
  <text x="58.0" y="534.0" class="section">04 // 04 // ANALYZE</text>
  <rect x="40.0" y="640.0" width="1200.0" height="100.0" rx="16.0" fill="none" stroke="#0ea5e9" stroke-width="1.4" stroke-dasharray="6 4"/>
  <text x="58.0" y="664.0" class="section">05 // 05 // REVIEW</text>
  <rect x="40.0" y="770.0" width="1200.0" height="100.0" rx="16.0" fill="none" stroke="#0ea5e9" stroke-width="1.4" stroke-dasharray="6 4"/>
  <text x="58.0" y="794.0" class="section">06 // 06 // TEST</text>
  <rect x="40.0" y="900.0" width="1200.0" height="120.0" rx="16.0" fill="none" stroke="#0ea5e9" stroke-width="1.4" stroke-dasharray="6 4"/>
  <text x="58.0" y="924.0" class="section">07 // 07 // SHIP</text>
  <path d="M 600.0,205.0 L 320.0,265.0" fill="none" stroke="#67e8f9" stroke-width="2.1" marker-end="url(#arrowA)" stroke-dasharray="6,4"/>
  <path d="M 600.0,205.0 L 600.0,395.0" fill="none" stroke="#fde047" stroke-width="2.1" marker-end="url(#arrowE)"/>
  <path d="M 320.0,335.0 L 600.0,395.0" fill="none" stroke="#fde047" stroke-width="2.1" marker-end="url(#arrowE)" stroke-dasharray="6,4"/>
  <path d="M 600.0,465.0 L 320.0,525.0" fill="none" stroke="#fde047" stroke-width="2.1" marker-end="url(#arrowE)"/>
  <path d="M 600.0,465.0 L 840.0,525.0" fill="none" stroke="#fde047" stroke-width="2.1" marker-end="url(#arrowE)" stroke-dasharray="6,4"/>
  <path d="M 320.0,595.0 L 600.0,655.0" fill="none" stroke="#fde047" stroke-width="2.1" marker-end="url(#arrowE)"/>
  <path d="M 840.0,595.0 L 600.0,655.0" fill="none" stroke="#fde047" stroke-width="2.1" marker-end="url(#arrowE)" stroke-dasharray="6,4"/>
  <path d="M 600.0,725.0 L 320.0,785.0" fill="none" stroke="#67e8f9" stroke-width="2.1" marker-end="url(#arrowA)" stroke-dasharray="6,4"/>
  <path d="M 600.0,725.0 L 600.0,920.0" fill="none" stroke="#fde047" stroke-width="2.1" marker-end="url(#arrowE)"/>
  <path d="M 420.0,820.0 L 540.0,820.0" fill="none" stroke="#67e8f9" stroke-width="2.1" marker-end="url(#arrowA)" stroke-dasharray="6,4"/>
  <path d="M 640.0,855.0 L 600.0,920.0" fill="none" stroke="#fde047" stroke-width="2.1" marker-end="url(#arrowE)" stroke-dasharray="6,4"/>
  <path d="M 720.0,955.0 L 760.0,955.0" fill="none" stroke="#67e8f9" stroke-width="2.1" marker-end="url(#arrowA)"/>
  <rect x="480.0" y="135.0" width="240.0" height="70.0" rx="8.0" fill="#0b3b5e" stroke="#67e8f9" stroke-width="2.0"/>
  <text x="600.0" y="170.0" text-anchor="middle" class="node-title">spec-writer
Agent</text>
  <path d="M 242.0 265.0 L 398.0 265.0 L 420.0 300.0 L 398.0 335.0 L 242.0 335.0 L 220.0 300.0 Z" fill="#0b3b5e" stroke="#67e8f9" stroke-width="2.0"/>
  <text x="320.0" y="300.0" text-anchor="middle" class="node-title">id-designer
Agent</text>
  <rect x="480.0" y="395.0" width="240.0" height="70.0" rx="8.0" fill="#0b3b5e" stroke="#67e8f9" stroke-width="2.0"/>
  <text x="600.0" y="430.0" text-anchor="middle" class="node-title">modeler
Orchestrator</text>
  <rect x="220.0" y="525.0" width="200.0" height="70.0" rx="8.0" fill="#0b3b5e" stroke="#67e8f9" stroke-width="2.0"/>
  <text x="320.0" y="560.0" text-anchor="middle" class="node-title">geometry-analyzer
Agent</text>
  <rect x="740.0" y="525.0" width="200.0" height="70.0" rx="8.0" fill="#0b3b5e" stroke="#67e8f9" stroke-width="2.0"/>
  <text x="840.0" y="560.0" text-anchor="middle" class="node-title">fit-reviewer
Agent</text>
  <rect x="480.0" y="655.0" width="240.0" height="70.0" rx="8.0" fill="#0b3b5e" stroke="#67e8f9" stroke-width="2.0"/>
  <rect x="486.0" y="661.0" width="228.0" height="58.0" rx="5.0" fill="none" stroke="#67e8f9" stroke-width="1.2" opacity="0.65"/>
  <text x="600.0" y="690.0" text-anchor="middle" class="node-title">print-reviewer
Gate</text>
  <rect x="220.0" y="785.0" width="200.0" height="70.0" rx="8.0" fill="#0b3b5e" stroke="#67e8f9" stroke-width="2.0"/>
  <text x="320.0" y="820.0" text-anchor="middle" class="node-title">test-print-planner
Agent</text>
  <rect x="540.0" y="785.0" width="200.0" height="70.0" rx="8.0" fill="#0b3b5e" stroke="#67e8f9" stroke-width="2.0"/>
  <text x="640.0" y="820.0" text-anchor="middle" class="node-title">modeler
Test</text>
  <rect x="480.0" y="920.0" width="240.0" height="70.0" rx="8.0" fill="#0b3b5e" stroke="#67e8f9" stroke-width="2.0"/>
  <text x="600.0" y="955.0" text-anchor="middle" class="node-title">shipper
Agent</text>
  <rect x="760.0" y="920.0" width="200.0" height="70.0" rx="8.0" fill="#0b3b5e" stroke="#67e8f9" stroke-width="2.0"/>
  <rect x="760.0" y="920.0" width="200.0" height="18" rx="8.0" fill="#1f2937" opacity="0.95"/>
  <circle cx="776.0" cy="929.0" r="4" fill="#ef4444"/>
  <circle cx="790.0" cy="929.0" r="4" fill="#f59e0b"/>
  <circle cx="804.0" cy="929.0" r="4" fill="#10b981"/>
  <text x="778.0" y="964.0" font-size="28" font-weight="700" fill="#10b981">$</text>
  <text x="798.0" y="964.0" font-size="22" font-weight="500" fill="#bae6fd">_</text>
  <text x="860.0" y="976.0" text-anchor="middle" class="node-title">Blender Render
Cycles + OIDN</text>
  <rect x="676.0" y="590.0" width="256.0" height="92.0" fill="#0b3552" stroke="#0ea5e9" stroke-width="1.2"/>
  <line x1="676.0" y1="608.0" x2="932.0" y2="608.0" stroke="#0ea5e9" stroke-width="1"/>
  <line x1="676.0" y1="644.0" x2="932.0" y2="644.0" stroke="#0ea5e9" stroke-width="1"/>
  <text x="804.0" y="603.0" text-anchor="middle" font-size="10" font-weight="600" fill="#7dd3fc">SYSTEM ARCHITECTURE</text>
  <text x="804.0" y="632.0" text-anchor="middle" font-size="18" font-weight="700" fill="#e0f2fe">AI 3D Modeling Pipeline</text>
  <text x="688.0" y="665.0" font-size="9.5" font-weight="600" fill="#7dd3fc">REV: 1.0</text>
  <text x="804.0" y="665.0" text-anchor="middle" font-size="9.5" font-weight="600" fill="#67e8f9">AUTO-GENERATED</text>
  <text x="920.0" y="665.0" text-anchor="end" font-size="9.5" font-weight="600" fill="#7dd3fc">DWG: ARCH-001</text>
</svg>